%TF.GenerationSoftware,KiCad,Pcbnew,10.0.3*%
%TF.CreationDate,2026-10-01T16:56:58+09:00*%
%TF.ProjectId,PET_project,5045545f-7072-46f6-9a65-63742e6b6963,rev?*%
%TF.SameCoordinates,Original*%
%TF.FileFunction,Legend,Top*%
%TF.FilePolarity,Positive*%
%FSLAX46Y46*%
G04 Gerber Fmt 4.6, Leading zero omitted, Abs format (unit mm)*
G04 Created by KiCad (PCBNEW 10.0.3) date 2026-10-01 16:56:58*
%MOMM*%
%LPD*%
G01*
G04 APERTURE LIST*
%ADD10C,0.100000*%
%ADD11C,0.150000*%
%ADD12C,0.101600*%
%ADD13C,0.120000*%
%ADD14C,0.127000*%
%ADD15C,0.504000*%
G04 APERTURE END LIST*
D10*
X132042580Y-111238095D02*
X131233057Y-111238095D01*
X131233057Y-111238095D02*
X131137819Y-111285714D01*
X131137819Y-111285714D02*
X131090200Y-111333333D01*
X131090200Y-111333333D02*
X131042580Y-111428571D01*
X131042580Y-111428571D02*
X131042580Y-111619047D01*
X131042580Y-111619047D02*
X131090200Y-111714285D01*
X131090200Y-111714285D02*
X131137819Y-111761904D01*
X131137819Y-111761904D02*
X131233057Y-111809523D01*
X131233057Y-111809523D02*
X132042580Y-111809523D01*
X131947342Y-112238095D02*
X131994961Y-112285714D01*
X131994961Y-112285714D02*
X132042580Y-112380952D01*
X132042580Y-112380952D02*
X132042580Y-112619047D01*
X132042580Y-112619047D02*
X131994961Y-112714285D01*
X131994961Y-112714285D02*
X131947342Y-112761904D01*
X131947342Y-112761904D02*
X131852104Y-112809523D01*
X131852104Y-112809523D02*
X131756866Y-112809523D01*
X131756866Y-112809523D02*
X131614009Y-112761904D01*
X131614009Y-112761904D02*
X131042580Y-112190476D01*
X131042580Y-112190476D02*
X131042580Y-112809523D01*
D11*
X158666666Y-107454819D02*
X158666666Y-108169104D01*
X158666666Y-108169104D02*
X158619047Y-108311961D01*
X158619047Y-108311961D02*
X158523809Y-108407200D01*
X158523809Y-108407200D02*
X158380952Y-108454819D01*
X158380952Y-108454819D02*
X158285714Y-108454819D01*
X159285714Y-107883390D02*
X159190476Y-107835771D01*
X159190476Y-107835771D02*
X159142857Y-107788152D01*
X159142857Y-107788152D02*
X159095238Y-107692914D01*
X159095238Y-107692914D02*
X159095238Y-107645295D01*
X159095238Y-107645295D02*
X159142857Y-107550057D01*
X159142857Y-107550057D02*
X159190476Y-107502438D01*
X159190476Y-107502438D02*
X159285714Y-107454819D01*
X159285714Y-107454819D02*
X159476190Y-107454819D01*
X159476190Y-107454819D02*
X159571428Y-107502438D01*
X159571428Y-107502438D02*
X159619047Y-107550057D01*
X159619047Y-107550057D02*
X159666666Y-107645295D01*
X159666666Y-107645295D02*
X159666666Y-107692914D01*
X159666666Y-107692914D02*
X159619047Y-107788152D01*
X159619047Y-107788152D02*
X159571428Y-107835771D01*
X159571428Y-107835771D02*
X159476190Y-107883390D01*
X159476190Y-107883390D02*
X159285714Y-107883390D01*
X159285714Y-107883390D02*
X159190476Y-107931009D01*
X159190476Y-107931009D02*
X159142857Y-107978628D01*
X159142857Y-107978628D02*
X159095238Y-108073866D01*
X159095238Y-108073866D02*
X159095238Y-108264342D01*
X159095238Y-108264342D02*
X159142857Y-108359580D01*
X159142857Y-108359580D02*
X159190476Y-108407200D01*
X159190476Y-108407200D02*
X159285714Y-108454819D01*
X159285714Y-108454819D02*
X159476190Y-108454819D01*
X159476190Y-108454819D02*
X159571428Y-108407200D01*
X159571428Y-108407200D02*
X159619047Y-108359580D01*
X159619047Y-108359580D02*
X159666666Y-108264342D01*
X159666666Y-108264342D02*
X159666666Y-108073866D01*
X159666666Y-108073866D02*
X159619047Y-107978628D01*
X159619047Y-107978628D02*
X159571428Y-107931009D01*
X159571428Y-107931009D02*
X159476190Y-107883390D01*
X178525219Y-116789565D02*
X177818113Y-116082458D01*
X177818113Y-116082458D02*
X177986471Y-115914099D01*
X177986471Y-115914099D02*
X178121158Y-115846756D01*
X178121158Y-115846756D02*
X178255845Y-115846756D01*
X178255845Y-115846756D02*
X178356861Y-115880428D01*
X178356861Y-115880428D02*
X178525219Y-115981443D01*
X178525219Y-115981443D02*
X178626235Y-116082458D01*
X178626235Y-116082458D02*
X178727250Y-116250817D01*
X178727250Y-116250817D02*
X178760922Y-116351832D01*
X178760922Y-116351832D02*
X178760922Y-116486519D01*
X178760922Y-116486519D02*
X178693578Y-116621206D01*
X178693578Y-116621206D02*
X178525219Y-116789565D01*
X179131311Y-116318160D02*
X179670059Y-115779412D01*
X179703731Y-115543710D02*
X179838418Y-115476366D01*
X179838418Y-115476366D02*
X180006777Y-115308008D01*
X180006777Y-115308008D02*
X180040448Y-115206992D01*
X180040448Y-115206992D02*
X180040448Y-115139649D01*
X180040448Y-115139649D02*
X180006777Y-115038634D01*
X180006777Y-115038634D02*
X179939433Y-114971290D01*
X179939433Y-114971290D02*
X179838418Y-114937618D01*
X179838418Y-114937618D02*
X179771074Y-114937618D01*
X179771074Y-114937618D02*
X179670059Y-114971290D01*
X179670059Y-114971290D02*
X179501700Y-115072305D01*
X179501700Y-115072305D02*
X179400685Y-115105977D01*
X179400685Y-115105977D02*
X179333342Y-115105977D01*
X179333342Y-115105977D02*
X179232326Y-115072305D01*
X179232326Y-115072305D02*
X179164983Y-115004962D01*
X179164983Y-115004962D02*
X179131311Y-114903947D01*
X179131311Y-114903947D02*
X179131311Y-114836603D01*
X179131311Y-114836603D02*
X179164983Y-114735588D01*
X179164983Y-114735588D02*
X179333342Y-114567229D01*
X179333342Y-114567229D02*
X179468029Y-114499886D01*
X180713883Y-114533557D02*
X180680212Y-114634573D01*
X180680212Y-114634573D02*
X180545525Y-114769260D01*
X180545525Y-114769260D02*
X180444509Y-114802931D01*
X180444509Y-114802931D02*
X180377166Y-114802931D01*
X180377166Y-114802931D02*
X180276151Y-114769260D01*
X180276151Y-114769260D02*
X180074120Y-114567229D01*
X180074120Y-114567229D02*
X180040448Y-114466214D01*
X180040448Y-114466214D02*
X180040448Y-114398870D01*
X180040448Y-114398870D02*
X180074120Y-114297855D01*
X180074120Y-114297855D02*
X180208807Y-114163168D01*
X180208807Y-114163168D02*
X180309822Y-114129496D01*
X181050601Y-114264183D02*
X180343494Y-113557076D01*
X181353647Y-113961137D02*
X180983258Y-113590748D01*
X180983258Y-113590748D02*
X180882242Y-113557076D01*
X180882242Y-113557076D02*
X180781227Y-113590748D01*
X180781227Y-113590748D02*
X180680212Y-113691763D01*
X180680212Y-113691763D02*
X180646540Y-113792779D01*
X180646540Y-113792779D02*
X180646540Y-113860122D01*
X181791380Y-113523405D02*
X181690364Y-113557076D01*
X181690364Y-113557076D02*
X181623021Y-113557076D01*
X181623021Y-113557076D02*
X181522006Y-113523405D01*
X181522006Y-113523405D02*
X181319975Y-113321374D01*
X181319975Y-113321374D02*
X181286303Y-113220359D01*
X181286303Y-113220359D02*
X181286303Y-113153015D01*
X181286303Y-113153015D02*
X181319975Y-113052000D01*
X181319975Y-113052000D02*
X181420990Y-112950985D01*
X181420990Y-112950985D02*
X181522006Y-112917313D01*
X181522006Y-112917313D02*
X181589349Y-112917313D01*
X181589349Y-112917313D02*
X181690364Y-112950985D01*
X181690364Y-112950985D02*
X181892395Y-113153015D01*
X181892395Y-113153015D02*
X181926067Y-113254031D01*
X181926067Y-113254031D02*
X181926067Y-113321374D01*
X181926067Y-113321374D02*
X181892395Y-113422389D01*
X181892395Y-113422389D02*
X181791380Y-113523405D01*
X181757708Y-112614267D02*
X182027082Y-112344893D01*
X181623021Y-112277550D02*
X182229112Y-112883641D01*
X182229112Y-112883641D02*
X182330128Y-112917313D01*
X182330128Y-112917313D02*
X182431143Y-112883641D01*
X182431143Y-112883641D02*
X182498486Y-112816298D01*
X182161769Y-112210206D02*
X182431143Y-111940832D01*
X182027082Y-111873488D02*
X182633174Y-112479580D01*
X182633174Y-112479580D02*
X182734189Y-112513252D01*
X182734189Y-112513252D02*
X182835204Y-112479580D01*
X182835204Y-112479580D02*
X182902548Y-112412236D01*
X183138250Y-112176534D02*
X182431144Y-111469427D01*
X182936220Y-111839816D02*
X183407624Y-111907160D01*
X182936220Y-111435755D02*
X182936220Y-111974503D01*
X183171922Y-111200053D02*
X183811686Y-111503099D01*
X183508640Y-110863335D02*
X183811686Y-111503099D01*
X183811686Y-111503099D02*
X183912701Y-111738801D01*
X183912701Y-111738801D02*
X183912701Y-111806145D01*
X183912701Y-111806145D02*
X183879029Y-111907160D01*
X186400706Y-117965045D02*
X185693600Y-117257938D01*
X186804768Y-117560984D02*
X186097661Y-117459968D01*
X186097661Y-116853877D02*
X186097661Y-117661999D01*
X157833333Y-111859580D02*
X157785714Y-111907200D01*
X157785714Y-111907200D02*
X157642857Y-111954819D01*
X157642857Y-111954819D02*
X157547619Y-111954819D01*
X157547619Y-111954819D02*
X157404762Y-111907200D01*
X157404762Y-111907200D02*
X157309524Y-111811961D01*
X157309524Y-111811961D02*
X157261905Y-111716723D01*
X157261905Y-111716723D02*
X157214286Y-111526247D01*
X157214286Y-111526247D02*
X157214286Y-111383390D01*
X157214286Y-111383390D02*
X157261905Y-111192914D01*
X157261905Y-111192914D02*
X157309524Y-111097676D01*
X157309524Y-111097676D02*
X157404762Y-111002438D01*
X157404762Y-111002438D02*
X157547619Y-110954819D01*
X157547619Y-110954819D02*
X157642857Y-110954819D01*
X157642857Y-110954819D02*
X157785714Y-111002438D01*
X157785714Y-111002438D02*
X157833333Y-111050057D01*
X158785714Y-111954819D02*
X158214286Y-111954819D01*
X158500000Y-111954819D02*
X158500000Y-110954819D01*
X158500000Y-110954819D02*
X158404762Y-111097676D01*
X158404762Y-111097676D02*
X158309524Y-111192914D01*
X158309524Y-111192914D02*
X158214286Y-111240533D01*
X172940476Y-97854819D02*
X172940476Y-98569104D01*
X172940476Y-98569104D02*
X172892857Y-98711961D01*
X172892857Y-98711961D02*
X172797619Y-98807200D01*
X172797619Y-98807200D02*
X172654762Y-98854819D01*
X172654762Y-98854819D02*
X172559524Y-98854819D01*
X173940476Y-98854819D02*
X173369048Y-98854819D01*
X173654762Y-98854819D02*
X173654762Y-97854819D01*
X173654762Y-97854819D02*
X173559524Y-97997676D01*
X173559524Y-97997676D02*
X173464286Y-98092914D01*
X173464286Y-98092914D02*
X173369048Y-98140533D01*
X174559524Y-97854819D02*
X174654762Y-97854819D01*
X174654762Y-97854819D02*
X174750000Y-97902438D01*
X174750000Y-97902438D02*
X174797619Y-97950057D01*
X174797619Y-97950057D02*
X174845238Y-98045295D01*
X174845238Y-98045295D02*
X174892857Y-98235771D01*
X174892857Y-98235771D02*
X174892857Y-98473866D01*
X174892857Y-98473866D02*
X174845238Y-98664342D01*
X174845238Y-98664342D02*
X174797619Y-98759580D01*
X174797619Y-98759580D02*
X174750000Y-98807200D01*
X174750000Y-98807200D02*
X174654762Y-98854819D01*
X174654762Y-98854819D02*
X174559524Y-98854819D01*
X174559524Y-98854819D02*
X174464286Y-98807200D01*
X174464286Y-98807200D02*
X174416667Y-98759580D01*
X174416667Y-98759580D02*
X174369048Y-98664342D01*
X174369048Y-98664342D02*
X174321429Y-98473866D01*
X174321429Y-98473866D02*
X174321429Y-98235771D01*
X174321429Y-98235771D02*
X174369048Y-98045295D01*
X174369048Y-98045295D02*
X174416667Y-97950057D01*
X174416667Y-97950057D02*
X174464286Y-97902438D01*
X174464286Y-97902438D02*
X174559524Y-97854819D01*
X162166666Y-146804819D02*
X162166666Y-147519104D01*
X162166666Y-147519104D02*
X162119047Y-147661961D01*
X162119047Y-147661961D02*
X162023809Y-147757200D01*
X162023809Y-147757200D02*
X161880952Y-147804819D01*
X161880952Y-147804819D02*
X161785714Y-147804819D01*
X162547619Y-146804819D02*
X163214285Y-146804819D01*
X163214285Y-146804819D02*
X162785714Y-147804819D01*
X125783333Y-148874819D02*
X125450000Y-148398628D01*
X125211905Y-148874819D02*
X125211905Y-147874819D01*
X125211905Y-147874819D02*
X125592857Y-147874819D01*
X125592857Y-147874819D02*
X125688095Y-147922438D01*
X125688095Y-147922438D02*
X125735714Y-147970057D01*
X125735714Y-147970057D02*
X125783333Y-148065295D01*
X125783333Y-148065295D02*
X125783333Y-148208152D01*
X125783333Y-148208152D02*
X125735714Y-148303390D01*
X125735714Y-148303390D02*
X125688095Y-148351009D01*
X125688095Y-148351009D02*
X125592857Y-148398628D01*
X125592857Y-148398628D02*
X125211905Y-148398628D01*
X126735714Y-148874819D02*
X126164286Y-148874819D01*
X126450000Y-148874819D02*
X126450000Y-147874819D01*
X126450000Y-147874819D02*
X126354762Y-148017676D01*
X126354762Y-148017676D02*
X126259524Y-148112914D01*
X126259524Y-148112914D02*
X126164286Y-148160533D01*
X134833333Y-112954819D02*
X134500000Y-112478628D01*
X134261905Y-112954819D02*
X134261905Y-111954819D01*
X134261905Y-111954819D02*
X134642857Y-111954819D01*
X134642857Y-111954819D02*
X134738095Y-112002438D01*
X134738095Y-112002438D02*
X134785714Y-112050057D01*
X134785714Y-112050057D02*
X134833333Y-112145295D01*
X134833333Y-112145295D02*
X134833333Y-112288152D01*
X134833333Y-112288152D02*
X134785714Y-112383390D01*
X134785714Y-112383390D02*
X134738095Y-112431009D01*
X134738095Y-112431009D02*
X134642857Y-112478628D01*
X134642857Y-112478628D02*
X134261905Y-112478628D01*
X135690476Y-112288152D02*
X135690476Y-112954819D01*
X135452381Y-111907200D02*
X135214286Y-112621485D01*
X135214286Y-112621485D02*
X135833333Y-112621485D01*
X118761905Y-148914819D02*
X118761905Y-147914819D01*
X118761905Y-147914819D02*
X119000000Y-147914819D01*
X119000000Y-147914819D02*
X119142857Y-147962438D01*
X119142857Y-147962438D02*
X119238095Y-148057676D01*
X119238095Y-148057676D02*
X119285714Y-148152914D01*
X119285714Y-148152914D02*
X119333333Y-148343390D01*
X119333333Y-148343390D02*
X119333333Y-148486247D01*
X119333333Y-148486247D02*
X119285714Y-148676723D01*
X119285714Y-148676723D02*
X119238095Y-148771961D01*
X119238095Y-148771961D02*
X119142857Y-148867200D01*
X119142857Y-148867200D02*
X119000000Y-148914819D01*
X119000000Y-148914819D02*
X118761905Y-148914819D01*
X120285714Y-148914819D02*
X119714286Y-148914819D01*
X120000000Y-148914819D02*
X120000000Y-147914819D01*
X120000000Y-147914819D02*
X119904762Y-148057676D01*
X119904762Y-148057676D02*
X119809524Y-148152914D01*
X119809524Y-148152914D02*
X119714286Y-148200533D01*
X167738095Y-111354819D02*
X167738095Y-112164342D01*
X167738095Y-112164342D02*
X167785714Y-112259580D01*
X167785714Y-112259580D02*
X167833333Y-112307200D01*
X167833333Y-112307200D02*
X167928571Y-112354819D01*
X167928571Y-112354819D02*
X168119047Y-112354819D01*
X168119047Y-112354819D02*
X168214285Y-112307200D01*
X168214285Y-112307200D02*
X168261904Y-112259580D01*
X168261904Y-112259580D02*
X168309523Y-112164342D01*
X168309523Y-112164342D02*
X168309523Y-111354819D01*
X169214285Y-111688152D02*
X169214285Y-112354819D01*
X168976190Y-111307200D02*
X168738095Y-112021485D01*
X168738095Y-112021485D02*
X169357142Y-112021485D01*
D12*
X179457561Y-111777309D02*
X180105180Y-111777309D01*
X180105180Y-111777309D02*
X180181370Y-111747071D01*
X180181370Y-111747071D02*
X180219466Y-111716833D01*
X180219466Y-111716833D02*
X180257561Y-111656357D01*
X180257561Y-111656357D02*
X180257561Y-111535404D01*
X180257561Y-111535404D02*
X180219466Y-111474928D01*
X180219466Y-111474928D02*
X180181370Y-111444690D01*
X180181370Y-111444690D02*
X180105180Y-111414452D01*
X180105180Y-111414452D02*
X179457561Y-111414452D01*
X180257561Y-110779452D02*
X180257561Y-111142309D01*
X180257561Y-110960881D02*
X179457561Y-110960881D01*
X179457561Y-110960881D02*
X179571846Y-111021357D01*
X179571846Y-111021357D02*
X179648037Y-111081833D01*
X179648037Y-111081833D02*
X179686132Y-111142309D01*
D11*
X136504819Y-136873333D02*
X137219104Y-136873333D01*
X137219104Y-136873333D02*
X137361961Y-136920952D01*
X137361961Y-136920952D02*
X137457200Y-137016190D01*
X137457200Y-137016190D02*
X137504819Y-137159047D01*
X137504819Y-137159047D02*
X137504819Y-137254285D01*
X136504819Y-136492380D02*
X136504819Y-135873333D01*
X136504819Y-135873333D02*
X136885771Y-136206666D01*
X136885771Y-136206666D02*
X136885771Y-136063809D01*
X136885771Y-136063809D02*
X136933390Y-135968571D01*
X136933390Y-135968571D02*
X136981009Y-135920952D01*
X136981009Y-135920952D02*
X137076247Y-135873333D01*
X137076247Y-135873333D02*
X137314342Y-135873333D01*
X137314342Y-135873333D02*
X137409580Y-135920952D01*
X137409580Y-135920952D02*
X137457200Y-135968571D01*
X137457200Y-135968571D02*
X137504819Y-136063809D01*
X137504819Y-136063809D02*
X137504819Y-136349523D01*
X137504819Y-136349523D02*
X137457200Y-136444761D01*
X137457200Y-136444761D02*
X137409580Y-136492380D01*
X133039819Y-132946666D02*
X132563628Y-133279999D01*
X133039819Y-133518094D02*
X132039819Y-133518094D01*
X132039819Y-133518094D02*
X132039819Y-133137142D01*
X132039819Y-133137142D02*
X132087438Y-133041904D01*
X132087438Y-133041904D02*
X132135057Y-132994285D01*
X132135057Y-132994285D02*
X132230295Y-132946666D01*
X132230295Y-132946666D02*
X132373152Y-132946666D01*
X132373152Y-132946666D02*
X132468390Y-132994285D01*
X132468390Y-132994285D02*
X132516009Y-133041904D01*
X132516009Y-133041904D02*
X132563628Y-133137142D01*
X132563628Y-133137142D02*
X132563628Y-133518094D01*
X132039819Y-132041904D02*
X132039819Y-132518094D01*
X132039819Y-132518094D02*
X132516009Y-132565713D01*
X132516009Y-132565713D02*
X132468390Y-132518094D01*
X132468390Y-132518094D02*
X132420771Y-132422856D01*
X132420771Y-132422856D02*
X132420771Y-132184761D01*
X132420771Y-132184761D02*
X132468390Y-132089523D01*
X132468390Y-132089523D02*
X132516009Y-132041904D01*
X132516009Y-132041904D02*
X132611247Y-131994285D01*
X132611247Y-131994285D02*
X132849342Y-131994285D01*
X132849342Y-131994285D02*
X132944580Y-132041904D01*
X132944580Y-132041904D02*
X132992200Y-132089523D01*
X132992200Y-132089523D02*
X133039819Y-132184761D01*
X133039819Y-132184761D02*
X133039819Y-132422856D01*
X133039819Y-132422856D02*
X132992200Y-132518094D01*
X132992200Y-132518094D02*
X132944580Y-132565713D01*
X133383333Y-119034819D02*
X133050000Y-118558628D01*
X132811905Y-119034819D02*
X132811905Y-118034819D01*
X132811905Y-118034819D02*
X133192857Y-118034819D01*
X133192857Y-118034819D02*
X133288095Y-118082438D01*
X133288095Y-118082438D02*
X133335714Y-118130057D01*
X133335714Y-118130057D02*
X133383333Y-118225295D01*
X133383333Y-118225295D02*
X133383333Y-118368152D01*
X133383333Y-118368152D02*
X133335714Y-118463390D01*
X133335714Y-118463390D02*
X133288095Y-118511009D01*
X133288095Y-118511009D02*
X133192857Y-118558628D01*
X133192857Y-118558628D02*
X132811905Y-118558628D01*
X133716667Y-118034819D02*
X134335714Y-118034819D01*
X134335714Y-118034819D02*
X134002381Y-118415771D01*
X134002381Y-118415771D02*
X134145238Y-118415771D01*
X134145238Y-118415771D02*
X134240476Y-118463390D01*
X134240476Y-118463390D02*
X134288095Y-118511009D01*
X134288095Y-118511009D02*
X134335714Y-118606247D01*
X134335714Y-118606247D02*
X134335714Y-118844342D01*
X134335714Y-118844342D02*
X134288095Y-118939580D01*
X134288095Y-118939580D02*
X134240476Y-118987200D01*
X134240476Y-118987200D02*
X134145238Y-119034819D01*
X134145238Y-119034819D02*
X133859524Y-119034819D01*
X133859524Y-119034819D02*
X133764286Y-118987200D01*
X133764286Y-118987200D02*
X133716667Y-118939580D01*
X113383333Y-143034819D02*
X113050000Y-142558628D01*
X112811905Y-143034819D02*
X112811905Y-142034819D01*
X112811905Y-142034819D02*
X113192857Y-142034819D01*
X113192857Y-142034819D02*
X113288095Y-142082438D01*
X113288095Y-142082438D02*
X113335714Y-142130057D01*
X113335714Y-142130057D02*
X113383333Y-142225295D01*
X113383333Y-142225295D02*
X113383333Y-142368152D01*
X113383333Y-142368152D02*
X113335714Y-142463390D01*
X113335714Y-142463390D02*
X113288095Y-142511009D01*
X113288095Y-142511009D02*
X113192857Y-142558628D01*
X113192857Y-142558628D02*
X112811905Y-142558628D01*
X113764286Y-142130057D02*
X113811905Y-142082438D01*
X113811905Y-142082438D02*
X113907143Y-142034819D01*
X113907143Y-142034819D02*
X114145238Y-142034819D01*
X114145238Y-142034819D02*
X114240476Y-142082438D01*
X114240476Y-142082438D02*
X114288095Y-142130057D01*
X114288095Y-142130057D02*
X114335714Y-142225295D01*
X114335714Y-142225295D02*
X114335714Y-142320533D01*
X114335714Y-142320533D02*
X114288095Y-142463390D01*
X114288095Y-142463390D02*
X113716667Y-143034819D01*
X113716667Y-143034819D02*
X114335714Y-143034819D01*
X176833333Y-111109580D02*
X176785714Y-111157200D01*
X176785714Y-111157200D02*
X176642857Y-111204819D01*
X176642857Y-111204819D02*
X176547619Y-111204819D01*
X176547619Y-111204819D02*
X176404762Y-111157200D01*
X176404762Y-111157200D02*
X176309524Y-111061961D01*
X176309524Y-111061961D02*
X176261905Y-110966723D01*
X176261905Y-110966723D02*
X176214286Y-110776247D01*
X176214286Y-110776247D02*
X176214286Y-110633390D01*
X176214286Y-110633390D02*
X176261905Y-110442914D01*
X176261905Y-110442914D02*
X176309524Y-110347676D01*
X176309524Y-110347676D02*
X176404762Y-110252438D01*
X176404762Y-110252438D02*
X176547619Y-110204819D01*
X176547619Y-110204819D02*
X176642857Y-110204819D01*
X176642857Y-110204819D02*
X176785714Y-110252438D01*
X176785714Y-110252438D02*
X176833333Y-110300057D01*
X177214286Y-110300057D02*
X177261905Y-110252438D01*
X177261905Y-110252438D02*
X177357143Y-110204819D01*
X177357143Y-110204819D02*
X177595238Y-110204819D01*
X177595238Y-110204819D02*
X177690476Y-110252438D01*
X177690476Y-110252438D02*
X177738095Y-110300057D01*
X177738095Y-110300057D02*
X177785714Y-110395295D01*
X177785714Y-110395295D02*
X177785714Y-110490533D01*
X177785714Y-110490533D02*
X177738095Y-110633390D01*
X177738095Y-110633390D02*
X177166667Y-111204819D01*
X177166667Y-111204819D02*
X177785714Y-111204819D01*
X128144819Y-143833333D02*
X128859104Y-143833333D01*
X128859104Y-143833333D02*
X129001961Y-143880952D01*
X129001961Y-143880952D02*
X129097200Y-143976190D01*
X129097200Y-143976190D02*
X129144819Y-144119047D01*
X129144819Y-144119047D02*
X129144819Y-144214285D01*
X129144819Y-143309523D02*
X129144819Y-143119047D01*
X129144819Y-143119047D02*
X129097200Y-143023809D01*
X129097200Y-143023809D02*
X129049580Y-142976190D01*
X129049580Y-142976190D02*
X128906723Y-142880952D01*
X128906723Y-142880952D02*
X128716247Y-142833333D01*
X128716247Y-142833333D02*
X128335295Y-142833333D01*
X128335295Y-142833333D02*
X128240057Y-142880952D01*
X128240057Y-142880952D02*
X128192438Y-142928571D01*
X128192438Y-142928571D02*
X128144819Y-143023809D01*
X128144819Y-143023809D02*
X128144819Y-143214285D01*
X128144819Y-143214285D02*
X128192438Y-143309523D01*
X128192438Y-143309523D02*
X128240057Y-143357142D01*
X128240057Y-143357142D02*
X128335295Y-143404761D01*
X128335295Y-143404761D02*
X128573390Y-143404761D01*
X128573390Y-143404761D02*
X128668628Y-143357142D01*
X128668628Y-143357142D02*
X128716247Y-143309523D01*
X128716247Y-143309523D02*
X128763866Y-143214285D01*
X128763866Y-143214285D02*
X128763866Y-143023809D01*
X128763866Y-143023809D02*
X128716247Y-142928571D01*
X128716247Y-142928571D02*
X128668628Y-142880952D01*
X128668628Y-142880952D02*
X128573390Y-142833333D01*
X104884819Y-134571904D02*
X105694342Y-134571904D01*
X105694342Y-134571904D02*
X105789580Y-134524285D01*
X105789580Y-134524285D02*
X105837200Y-134476666D01*
X105837200Y-134476666D02*
X105884819Y-134381428D01*
X105884819Y-134381428D02*
X105884819Y-134190952D01*
X105884819Y-134190952D02*
X105837200Y-134095714D01*
X105837200Y-134095714D02*
X105789580Y-134048095D01*
X105789580Y-134048095D02*
X105694342Y-134000476D01*
X105694342Y-134000476D02*
X104884819Y-134000476D01*
X104884819Y-133619523D02*
X104884819Y-133000476D01*
X104884819Y-133000476D02*
X105265771Y-133333809D01*
X105265771Y-133333809D02*
X105265771Y-133190952D01*
X105265771Y-133190952D02*
X105313390Y-133095714D01*
X105313390Y-133095714D02*
X105361009Y-133048095D01*
X105361009Y-133048095D02*
X105456247Y-133000476D01*
X105456247Y-133000476D02*
X105694342Y-133000476D01*
X105694342Y-133000476D02*
X105789580Y-133048095D01*
X105789580Y-133048095D02*
X105837200Y-133095714D01*
X105837200Y-133095714D02*
X105884819Y-133190952D01*
X105884819Y-133190952D02*
X105884819Y-133476666D01*
X105884819Y-133476666D02*
X105837200Y-133571904D01*
X105837200Y-133571904D02*
X105789580Y-133619523D01*
X144916666Y-97854819D02*
X144916666Y-98569104D01*
X144916666Y-98569104D02*
X144869047Y-98711961D01*
X144869047Y-98711961D02*
X144773809Y-98807200D01*
X144773809Y-98807200D02*
X144630952Y-98854819D01*
X144630952Y-98854819D02*
X144535714Y-98854819D01*
X145821428Y-97854819D02*
X145630952Y-97854819D01*
X145630952Y-97854819D02*
X145535714Y-97902438D01*
X145535714Y-97902438D02*
X145488095Y-97950057D01*
X145488095Y-97950057D02*
X145392857Y-98092914D01*
X145392857Y-98092914D02*
X145345238Y-98283390D01*
X145345238Y-98283390D02*
X145345238Y-98664342D01*
X145345238Y-98664342D02*
X145392857Y-98759580D01*
X145392857Y-98759580D02*
X145440476Y-98807200D01*
X145440476Y-98807200D02*
X145535714Y-98854819D01*
X145535714Y-98854819D02*
X145726190Y-98854819D01*
X145726190Y-98854819D02*
X145821428Y-98807200D01*
X145821428Y-98807200D02*
X145869047Y-98759580D01*
X145869047Y-98759580D02*
X145916666Y-98664342D01*
X145916666Y-98664342D02*
X145916666Y-98426247D01*
X145916666Y-98426247D02*
X145869047Y-98331009D01*
X145869047Y-98331009D02*
X145821428Y-98283390D01*
X145821428Y-98283390D02*
X145726190Y-98235771D01*
X145726190Y-98235771D02*
X145535714Y-98235771D01*
X145535714Y-98235771D02*
X145440476Y-98283390D01*
X145440476Y-98283390D02*
X145392857Y-98331009D01*
X145392857Y-98331009D02*
X145345238Y-98426247D01*
X135374819Y-131216666D02*
X134898628Y-131549999D01*
X135374819Y-131788094D02*
X134374819Y-131788094D01*
X134374819Y-131788094D02*
X134374819Y-131407142D01*
X134374819Y-131407142D02*
X134422438Y-131311904D01*
X134422438Y-131311904D02*
X134470057Y-131264285D01*
X134470057Y-131264285D02*
X134565295Y-131216666D01*
X134565295Y-131216666D02*
X134708152Y-131216666D01*
X134708152Y-131216666D02*
X134803390Y-131264285D01*
X134803390Y-131264285D02*
X134851009Y-131311904D01*
X134851009Y-131311904D02*
X134898628Y-131407142D01*
X134898628Y-131407142D02*
X134898628Y-131788094D01*
X134374819Y-130883332D02*
X134374819Y-130216666D01*
X134374819Y-130216666D02*
X135374819Y-130645237D01*
%TO.C,U2*%
D10*
X107800000Y-101750000D02*
X128207628Y-101750000D01*
X128207628Y-122241179D01*
X107800000Y-122241179D01*
X107800000Y-101750000D01*
%TO.C,J8*%
D13*
X155940000Y-99090000D02*
X155940000Y-106910000D01*
X155940000Y-105310000D02*
X156860000Y-105310000D01*
X155940000Y-106910000D02*
X156860000Y-106910000D01*
X156860000Y-105310000D02*
X157140000Y-105310000D01*
X156860000Y-106910000D02*
X156860000Y-105310000D01*
X158500000Y-103450000D02*
X158500000Y-99090000D01*
X159500000Y-99090000D02*
X159500000Y-103450000D01*
X159500000Y-103450000D02*
X158500000Y-103450000D01*
X160300000Y-101350000D02*
X160300000Y-99090000D01*
X160800000Y-101350000D02*
X160800000Y-99090000D01*
X160860000Y-105310000D02*
X160860000Y-106525000D01*
X160860000Y-105310000D02*
X161140000Y-105310000D01*
X161140000Y-105310000D02*
X161140000Y-106910000D01*
X161140000Y-106910000D02*
X162060000Y-106910000D01*
X162060000Y-99090000D02*
X155940000Y-99090000D01*
X162060000Y-105310000D02*
X161140000Y-105310000D01*
X162060000Y-106910000D02*
X162060000Y-99090000D01*
X156700000Y-101350000D02*
X157700000Y-101350000D01*
X157700000Y-102950000D01*
X156700000Y-102950000D01*
X156700000Y-101350000D01*
X160300000Y-101350000D02*
X161300000Y-101350000D01*
X161300000Y-102950000D01*
X160300000Y-102950000D01*
X160300000Y-101350000D01*
%TO.C,Q2*%
X136240000Y-112850000D02*
X140860000Y-112850000D01*
X136240000Y-116110000D02*
X137620000Y-116110000D01*
X136240000Y-119810000D02*
X137620000Y-119810000D01*
X136240000Y-123070000D02*
X136240000Y-112850000D01*
X137620000Y-123070000D02*
X137620000Y-112850000D01*
X140860000Y-112850000D02*
X140860000Y-123070000D01*
X140860000Y-123070000D02*
X136240000Y-123070000D01*
%TO.C,D2*%
X181067061Y-116432940D02*
X181809523Y-115690478D01*
X182706975Y-116143026D02*
G75*
G02*
X180006975Y-116143026I-1350000J0D01*
G01*
X180006975Y-116143026D02*
G75*
G02*
X182706975Y-116143026I1350000J0D01*
G01*
%TO.C,C1*%
X155462712Y-113665000D02*
X155912712Y-113665000D01*
X155687712Y-113440000D02*
X155687712Y-113890000D01*
X155880259Y-113940000D02*
G75*
G02*
X160119741Y-113940000I2119741J-1060001D01*
G01*
X160119741Y-116060000D02*
G75*
G02*
X155880259Y-116060000I-2119741J1060001D01*
G01*
%TO.C,J10*%
X164940000Y-99490000D02*
X166360000Y-99490000D01*
X164940000Y-111210000D02*
X164940000Y-99490000D01*
X166360000Y-99490000D02*
X166360000Y-103990000D01*
X167200000Y-101400000D02*
X167800000Y-101400000D01*
X167500000Y-102000000D02*
X167200000Y-101400000D01*
X167800000Y-101400000D02*
X167500000Y-102000000D01*
X173750000Y-111210000D02*
X164940000Y-111210000D01*
X173750000Y-111210000D02*
X182560000Y-111210000D01*
X181140000Y-99490000D02*
X181140000Y-103990000D01*
X182560000Y-99490000D02*
X181140000Y-99490000D01*
X182560000Y-111210000D02*
X182560000Y-99490000D01*
X167250000Y-105100000D02*
X167750000Y-105100000D01*
X167750000Y-110600000D01*
X167250000Y-110600000D01*
X167250000Y-105100000D01*
X169750000Y-105100000D02*
X170250000Y-105100000D01*
X170250000Y-110600000D01*
X169750000Y-110600000D01*
X169750000Y-105100000D01*
X172250000Y-105100000D02*
X172750000Y-105100000D01*
X172750000Y-110600000D01*
X172250000Y-110600000D01*
X172250000Y-105100000D01*
X174750000Y-105100000D02*
X175250000Y-105100000D01*
X175250000Y-110600000D01*
X174750000Y-110600000D01*
X174750000Y-105100000D01*
X177250000Y-105100000D02*
X177750000Y-105100000D01*
X177750000Y-110600000D01*
X177250000Y-110600000D01*
X177250000Y-105100000D01*
X179750000Y-105100000D02*
X180250000Y-105100000D01*
X180250000Y-110600000D01*
X179750000Y-110600000D01*
X179750000Y-105100000D01*
%TO.C,J7*%
X161170000Y-143310000D02*
X161170000Y-125470000D01*
X161170000Y-145910000D02*
X161170000Y-144580000D01*
X162500000Y-145910000D02*
X161170000Y-145910000D01*
X163830000Y-125470000D02*
X161170000Y-125470000D01*
X163830000Y-143310000D02*
X161170000Y-143310000D01*
X163830000Y-143310000D02*
X163830000Y-125470000D01*
%TO.C,R1*%
X126300000Y-146500000D02*
X125680000Y-146500000D01*
X128140000Y-146500000D02*
G75*
G02*
X126300000Y-146500000I-920000J0D01*
G01*
X126300000Y-146500000D02*
G75*
G02*
X128140000Y-146500000I920000J0D01*
G01*
%TO.C,R4*%
X133800000Y-116000000D02*
X133180000Y-116000000D01*
X135640000Y-116000000D02*
G75*
G02*
X133800000Y-116000000I-920000J0D01*
G01*
X133800000Y-116000000D02*
G75*
G02*
X135640000Y-116000000I920000J0D01*
G01*
%TO.C,D1*%
X122060000Y-146045000D02*
X122060000Y-142955000D01*
X116510000Y-144500000D02*
G75*
G02*
X122060000Y-142955170I2990000J0D01*
G01*
X122060000Y-146044830D02*
G75*
G02*
X116510000Y-144500000I-2560000J1544830D01*
G01*
X122000000Y-144500000D02*
G75*
G02*
X117000000Y-144500000I-2500000J0D01*
G01*
X117000000Y-144500000D02*
G75*
G02*
X122000000Y-144500000I2500000J0D01*
G01*
%TO.C,U4*%
X163390000Y-112740000D02*
X173610000Y-112740000D01*
X163390000Y-114120000D02*
X173610000Y-114120000D01*
X163390000Y-117360000D02*
X163390000Y-112740000D01*
X166650000Y-112740000D02*
X166650000Y-114120000D01*
X170350000Y-112740000D02*
X170350000Y-114120000D01*
X173610000Y-112740000D02*
X173610000Y-117360000D01*
X173610000Y-117360000D02*
X163390000Y-117360000D01*
%TO.C,U1*%
D14*
X184730000Y-119827500D02*
X184730000Y-102682500D01*
X186635000Y-121732500D02*
X200605000Y-121732500D01*
X189125000Y-100777500D02*
X189128728Y-99767228D01*
X189628728Y-99267500D02*
X197624000Y-99267500D01*
X198124000Y-99767500D02*
X198124000Y-100777500D01*
D10*
X200605000Y-100777500D02*
X186635000Y-100777500D01*
D14*
X200605000Y-100777500D02*
X186635000Y-100777500D01*
X202510000Y-119827500D02*
X202510000Y-102682500D01*
X184730000Y-102682500D02*
G75*
G02*
X186635000Y-100777500I1905000J0D01*
G01*
X186635000Y-121732500D02*
G75*
G02*
X184730000Y-119827500I1J1905001D01*
G01*
X189128728Y-99767228D02*
G75*
G02*
X189628728Y-99267528I499972J-272D01*
G01*
X197624000Y-99267500D02*
G75*
G02*
X198124000Y-99767500I0J-500000D01*
G01*
X200605000Y-100777500D02*
G75*
G02*
X202510000Y-102682500I0J-1905000D01*
G01*
X202510000Y-119827500D02*
G75*
G02*
X200605000Y-121732500I-1905001J1D01*
G01*
D15*
X184968000Y-100918500D02*
G75*
G02*
X184464000Y-100918500I-252000J0D01*
G01*
X184464000Y-100918500D02*
G75*
G02*
X184968000Y-100918500I252000J0D01*
G01*
X186111000Y-101798500D02*
G75*
G02*
X185607000Y-101798500I-252000J0D01*
G01*
X185607000Y-101798500D02*
G75*
G02*
X186111000Y-101798500I252000J0D01*
G01*
%TO.C,J5*%
D10*
X166000000Y-122770000D02*
X202000000Y-122770000D01*
X202000000Y-148770000D01*
X166000000Y-148770000D01*
X166000000Y-122770000D01*
%TO.C,J3*%
D13*
X135180000Y-124840000D02*
X145220000Y-124840000D01*
X135180000Y-135240000D02*
X135180000Y-124840000D01*
X138200000Y-135240000D02*
X138200000Y-124840000D01*
X143100000Y-135240000D02*
X143100000Y-124840000D01*
X144600000Y-135240000D02*
X144600000Y-124840000D01*
X145220000Y-124840000D02*
X145220000Y-132280000D01*
X145220000Y-132880000D02*
X145220000Y-135240000D01*
X145220000Y-135240000D02*
X135180000Y-135240000D01*
X145220000Y-132580000D02*
X145830000Y-132140000D01*
X145830000Y-133020000D01*
X145220000Y-132580000D01*
G36*
X145830000Y-133020000D02*
G01*
X145220000Y-132580000D01*
X145830000Y-132140000D01*
X145830000Y-133020000D01*
G37*
%TO.C,R5*%
X133000000Y-136620000D02*
X133000000Y-136000000D01*
X133920000Y-137540000D02*
G75*
G02*
X132080000Y-137540000I-920000J0D01*
G01*
X132080000Y-137540000D02*
G75*
G02*
X133920000Y-137540000I920000J0D01*
G01*
%TO.C,R3*%
X133200000Y-120500000D02*
X133820000Y-120500000D01*
X133200000Y-120500000D02*
G75*
G02*
X131360000Y-120500000I-920000J0D01*
G01*
X131360000Y-120500000D02*
G75*
G02*
X133200000Y-120500000I920000J0D01*
G01*
%TO.C,R2*%
X113200000Y-144500000D02*
X113820000Y-144500000D01*
X113200000Y-144500000D02*
G75*
G02*
X111360000Y-144500000I-920000J0D01*
G01*
X111360000Y-144500000D02*
G75*
G02*
X113200000Y-144500000I920000J0D01*
G01*
%TO.C,J2*%
X143680000Y-112760000D02*
X153720000Y-112760000D01*
X143680000Y-123160000D02*
X143680000Y-112760000D01*
X146700000Y-123160000D02*
X146700000Y-112760000D01*
X151600000Y-123160000D02*
X151600000Y-112760000D01*
X153100000Y-123160000D02*
X153100000Y-112760000D01*
X153720000Y-112760000D02*
X153720000Y-120200000D01*
X153720000Y-120800000D02*
X153720000Y-123160000D01*
X153720000Y-123160000D02*
X143680000Y-123160000D01*
X153720000Y-120500000D02*
X154330000Y-120060000D01*
X154330000Y-120940000D01*
X153720000Y-120500000D01*
G36*
X154330000Y-120940000D02*
G01*
X153720000Y-120500000D01*
X154330000Y-120060000D01*
X154330000Y-120940000D01*
G37*
%TO.C,C2*%
X179620000Y-114500000D02*
G75*
G02*
X174380000Y-114500000I-2620000J0D01*
G01*
X174380000Y-114500000D02*
G75*
G02*
X179620000Y-114500000I2620000J0D01*
G01*
%TO.C,J9*%
X130130000Y-142170000D02*
X131460000Y-142170000D01*
X130130000Y-143500000D02*
X130130000Y-142170000D01*
X132730000Y-142170000D02*
X145490000Y-142170000D01*
X132730000Y-144830000D02*
X132730000Y-142170000D01*
X132730000Y-144830000D02*
X145490000Y-144830000D01*
X145490000Y-144830000D02*
X145490000Y-142170000D01*
%TO.C,C3*%
X128567380Y-106161000D02*
X129197380Y-106161000D01*
X128882380Y-105846000D02*
X128882380Y-106476000D01*
X132067621Y-104770000D02*
X132067621Y-111230000D01*
X132107621Y-104770000D02*
X132107621Y-111230000D01*
X132147621Y-104771000D02*
X132147621Y-111229000D01*
X132187621Y-104772000D02*
X132187621Y-111228000D01*
X132227621Y-104774000D02*
X132227621Y-111226000D01*
X132267621Y-104776000D02*
X132267621Y-111224000D01*
X132307621Y-104779000D02*
X132307621Y-106960000D01*
X132307621Y-109040000D02*
X132307621Y-111221000D01*
X132347621Y-104782000D02*
X132347621Y-106960000D01*
X132347621Y-109040000D02*
X132347621Y-111218000D01*
X132387621Y-104786000D02*
X132387621Y-106960000D01*
X132387621Y-109040000D02*
X132387621Y-111214000D01*
X132427621Y-104790000D02*
X132427621Y-106960000D01*
X132427621Y-109040000D02*
X132427621Y-111210000D01*
X132467621Y-104795000D02*
X132467621Y-106960000D01*
X132467621Y-109040000D02*
X132467621Y-111205000D01*
X132507621Y-104800000D02*
X132507621Y-106960000D01*
X132507621Y-109040000D02*
X132507621Y-111200000D01*
X132547621Y-104805000D02*
X132547621Y-106960000D01*
X132547621Y-109040000D02*
X132547621Y-111195000D01*
X132587621Y-104812000D02*
X132587621Y-106960000D01*
X132587621Y-109040000D02*
X132587621Y-111188000D01*
X132627621Y-104818000D02*
X132627621Y-106960000D01*
X132627621Y-109040000D02*
X132627621Y-111182000D01*
X132667621Y-104826000D02*
X132667621Y-106960000D01*
X132667621Y-109040000D02*
X132667621Y-111174000D01*
X132707621Y-104833000D02*
X132707621Y-106960000D01*
X132707621Y-109040000D02*
X132707621Y-111167000D01*
X132747621Y-104841000D02*
X132747621Y-106960000D01*
X132747621Y-109040000D02*
X132747621Y-111159000D01*
X132787621Y-104850000D02*
X132787621Y-106960000D01*
X132787621Y-109040000D02*
X132787621Y-111150000D01*
X132827621Y-104860000D02*
X132827621Y-106960000D01*
X132827621Y-109040000D02*
X132827621Y-111140000D01*
X132867621Y-104869000D02*
X132867621Y-106960000D01*
X132867621Y-109040000D02*
X132867621Y-111131000D01*
X132907621Y-104880000D02*
X132907621Y-106960000D01*
X132907621Y-109040000D02*
X132907621Y-111120000D01*
X132947621Y-104891000D02*
X132947621Y-106960000D01*
X132947621Y-109040000D02*
X132947621Y-111109000D01*
X132987621Y-104902000D02*
X132987621Y-106960000D01*
X132987621Y-109040000D02*
X132987621Y-111098000D01*
X133027621Y-104914000D02*
X133027621Y-106960000D01*
X133027621Y-109040000D02*
X133027621Y-111086000D01*
X133067621Y-104927000D02*
X133067621Y-106960000D01*
X133067621Y-109040000D02*
X133067621Y-111073000D01*
X133107621Y-104940000D02*
X133107621Y-106960000D01*
X133107621Y-109040000D02*
X133107621Y-111060000D01*
X133147621Y-104953000D02*
X133147621Y-106960000D01*
X133147621Y-109040000D02*
X133147621Y-111047000D01*
X133187621Y-104968000D02*
X133187621Y-106960000D01*
X133187621Y-109040000D02*
X133187621Y-111032000D01*
X133227621Y-104983000D02*
X133227621Y-106960000D01*
X133227621Y-109040000D02*
X133227621Y-111017000D01*
X133267621Y-104998000D02*
X133267621Y-106960000D01*
X133267621Y-109040000D02*
X133267621Y-111002000D01*
X133307621Y-105014000D02*
X133307621Y-106960000D01*
X133307621Y-109040000D02*
X133307621Y-110986000D01*
X133347621Y-105031000D02*
X133347621Y-106960000D01*
X133347621Y-109040000D02*
X133347621Y-110969000D01*
X133387621Y-105048000D02*
X133387621Y-106960000D01*
X133387621Y-109040000D02*
X133387621Y-110952000D01*
X133427621Y-105066000D02*
X133427621Y-106960000D01*
X133427621Y-109040000D02*
X133427621Y-110934000D01*
X133467621Y-105085000D02*
X133467621Y-106960000D01*
X133467621Y-109040000D02*
X133467621Y-110915000D01*
X133507621Y-105104000D02*
X133507621Y-106960000D01*
X133507621Y-109040000D02*
X133507621Y-110896000D01*
X133547621Y-105124000D02*
X133547621Y-106960000D01*
X133547621Y-109040000D02*
X133547621Y-110876000D01*
X133587621Y-105145000D02*
X133587621Y-106960000D01*
X133587621Y-109040000D02*
X133587621Y-110855000D01*
X133627621Y-105166000D02*
X133627621Y-106960000D01*
X133627621Y-109040000D02*
X133627621Y-110834000D01*
X133667621Y-105188000D02*
X133667621Y-106960000D01*
X133667621Y-109040000D02*
X133667621Y-110812000D01*
X133707621Y-105211000D02*
X133707621Y-106960000D01*
X133707621Y-109040000D02*
X133707621Y-110789000D01*
X133747621Y-105235000D02*
X133747621Y-106960000D01*
X133747621Y-109040000D02*
X133747621Y-110765000D01*
X133787621Y-105259000D02*
X133787621Y-106960000D01*
X133787621Y-109040000D02*
X133787621Y-110741000D01*
X133827621Y-105284000D02*
X133827621Y-106960000D01*
X133827621Y-109040000D02*
X133827621Y-110716000D01*
X133867621Y-105310000D02*
X133867621Y-106960000D01*
X133867621Y-109040000D02*
X133867621Y-110690000D01*
X133907621Y-105337000D02*
X133907621Y-106960000D01*
X133907621Y-109040000D02*
X133907621Y-110663000D01*
X133947621Y-105364000D02*
X133947621Y-106960000D01*
X133947621Y-109040000D02*
X133947621Y-110636000D01*
X133987621Y-105393000D02*
X133987621Y-106960000D01*
X133987621Y-109040000D02*
X133987621Y-110607000D01*
X134027621Y-105423000D02*
X134027621Y-106960000D01*
X134027621Y-109040000D02*
X134027621Y-110577000D01*
X134067621Y-105453000D02*
X134067621Y-106960000D01*
X134067621Y-109040000D02*
X134067621Y-110547000D01*
X134107621Y-105484000D02*
X134107621Y-106960000D01*
X134107621Y-109040000D02*
X134107621Y-110516000D01*
X134147621Y-105517000D02*
X134147621Y-106960000D01*
X134147621Y-109040000D02*
X134147621Y-110483000D01*
X134187621Y-105550000D02*
X134187621Y-106960000D01*
X134187621Y-109040000D02*
X134187621Y-110450000D01*
X134227621Y-105585000D02*
X134227621Y-106960000D01*
X134227621Y-109040000D02*
X134227621Y-110415000D01*
X134267621Y-105621000D02*
X134267621Y-106960000D01*
X134267621Y-109040000D02*
X134267621Y-110379000D01*
X134307621Y-105658000D02*
X134307621Y-106960000D01*
X134307621Y-109040000D02*
X134307621Y-110342000D01*
X134347621Y-105696000D02*
X134347621Y-106960000D01*
X134347621Y-109040000D02*
X134347621Y-110304000D01*
X134387621Y-105736000D02*
X134387621Y-110264000D01*
X134427621Y-105777000D02*
X134427621Y-110223000D01*
X134467621Y-105819000D02*
X134467621Y-110181000D01*
X134507621Y-105863000D02*
X134507621Y-110137000D01*
X134547621Y-105909000D02*
X134547621Y-110091000D01*
X134587621Y-105956000D02*
X134587621Y-110044000D01*
X134627621Y-106005000D02*
X134627621Y-109995000D01*
X134667621Y-106057000D02*
X134667621Y-109943000D01*
X134707621Y-106110000D02*
X134707621Y-109890000D01*
X134747621Y-106166000D02*
X134747621Y-109834000D01*
X134787621Y-106225000D02*
X134787621Y-109775000D01*
X134827621Y-106286000D02*
X134827621Y-109714000D01*
X134867621Y-106351000D02*
X134867621Y-109649000D01*
X134907621Y-106419000D02*
X134907621Y-109581000D01*
X134947621Y-106491000D02*
X134947621Y-109509000D01*
X134987621Y-106568000D02*
X134987621Y-109432000D01*
X135027621Y-106650000D02*
X135027621Y-109350000D01*
X135067621Y-106739000D02*
X135067621Y-109261000D01*
X135107621Y-106835000D02*
X135107621Y-109165000D01*
X135147621Y-106942000D02*
X135147621Y-109058000D01*
X135187621Y-107061000D02*
X135187621Y-108939000D01*
X135227621Y-107199000D02*
X135227621Y-108801000D01*
X135267621Y-107367000D02*
X135267621Y-108633000D01*
X135307621Y-107598000D02*
X135307621Y-108402000D01*
X135337621Y-108000000D02*
G75*
G02*
X128797621Y-108000000I-3270000J0D01*
G01*
X128797621Y-108000000D02*
G75*
G02*
X135337621Y-108000000I3270000J0D01*
G01*
%TO.C,U3*%
X106430000Y-131160000D02*
X106430000Y-132810000D01*
X106430000Y-134810000D02*
X106430000Y-136460000D01*
X106430000Y-136460000D02*
X129410000Y-136460000D01*
X129410000Y-131160000D02*
X106430000Y-131160000D01*
X129410000Y-136460000D02*
X129410000Y-131160000D01*
X106430000Y-132810000D02*
G75*
G02*
X106430000Y-134810000I0J-1000000D01*
G01*
%TO.C,J6*%
X136440000Y-99490000D02*
X137860000Y-99490000D01*
X136440000Y-111210000D02*
X136440000Y-99490000D01*
X137860000Y-99490000D02*
X137860000Y-103990000D01*
X138700000Y-101400000D02*
X139300000Y-101400000D01*
X139000000Y-102000000D02*
X138700000Y-101400000D01*
X139300000Y-101400000D02*
X139000000Y-102000000D01*
X145250000Y-111210000D02*
X136440000Y-111210000D01*
X145250000Y-111210000D02*
X154060000Y-111210000D01*
X152640000Y-99490000D02*
X152640000Y-103990000D01*
X154060000Y-99490000D02*
X152640000Y-99490000D01*
X154060000Y-111210000D02*
X154060000Y-99490000D01*
X138750000Y-105100000D02*
X139250000Y-105100000D01*
X139250000Y-110600000D01*
X138750000Y-110600000D01*
X138750000Y-105100000D01*
X141250000Y-105100000D02*
X141750000Y-105100000D01*
X141750000Y-110600000D01*
X141250000Y-110600000D01*
X141250000Y-105100000D01*
X143750000Y-105100000D02*
X144250000Y-105100000D01*
X144250000Y-110600000D01*
X143750000Y-110600000D01*
X143750000Y-105100000D01*
X146250000Y-105100000D02*
X146750000Y-105100000D01*
X146750000Y-110600000D01*
X146250000Y-110600000D01*
X146250000Y-105100000D01*
X148750000Y-105100000D02*
X149250000Y-105100000D01*
X149250000Y-110600000D01*
X148750000Y-110600000D01*
X148750000Y-105100000D01*
X151250000Y-105100000D02*
X151750000Y-105100000D01*
X151750000Y-110600000D01*
X151250000Y-110600000D01*
X151250000Y-105100000D01*
%TO.C,Q3*%
X135390000Y-136190000D02*
X145610000Y-136190000D01*
X135390000Y-140810000D02*
X135390000Y-136190000D01*
X138650000Y-140810000D02*
X138650000Y-139430000D01*
X142350000Y-140810000D02*
X142350000Y-139430000D01*
X145610000Y-136190000D02*
X145610000Y-140810000D01*
X145610000Y-139430000D02*
X135390000Y-139430000D01*
X145610000Y-140810000D02*
X135390000Y-140810000D01*
%TO.C,R7*%
X133000000Y-130700000D02*
X133000000Y-131320000D01*
X133920000Y-129780000D02*
G75*
G02*
X132080000Y-129780000I-920000J0D01*
G01*
X132080000Y-129780000D02*
G75*
G02*
X133920000Y-129780000I920000J0D01*
G01*
%TD*%
M02*
