%TF.GenerationSoftware,KiCad,Pcbnew,10.0.3*%
%TF.CreationDate,2026-10-01T16:56:58+09:00*%
%TF.ProjectId,PET_project,5045545f-7072-46f6-9a65-63742e6b6963,rev?*%
%TF.SameCoordinates,Original*%
%TF.FileFunction,Soldermask,Top*%
%TF.FilePolarity,Negative*%
%FSLAX46Y46*%
G04 Gerber Fmt 4.6, Leading zero omitted, Abs format (unit mm)*
G04 Created by KiCad (PCBNEW 10.0.3) date 2026-10-01 16:56:58*
%MOMM*%
%LPD*%
G01*
G04 APERTURE LIST*
G04 Aperture macros list*
%AMRoundRect*
0 Rectangle with rounded corners*
0 $1 Rounding radius*
0 $2 $3 $4 $5 $6 $7 $8 $9 X,Y pos of 4 corners*
0 Add a 4 corners polygon primitive as box body*
4,1,4,$2,$3,$4,$5,$6,$7,$8,$9,$2,$3,0*
0 Add four circle primitives for the rounded corners*
1,1,$1+$1,$2,$3*
1,1,$1+$1,$4,$5*
1,1,$1+$1,$6,$7*
1,1,$1+$1,$8,$9*
0 Add four rect primitives between the rounded corners*
20,1,$1+$1,$2,$3,$4,$5,0*
20,1,$1+$1,$4,$5,$6,$7,0*
20,1,$1+$1,$6,$7,$8,$9,0*
20,1,$1+$1,$8,$9,$2,$3,0*%
G04 Aperture macros list end*
%ADD10C,2.500000*%
%ADD11C,1.800000*%
%ADD12RoundRect,0.250000X0.350000X0.625000X-0.350000X0.625000X-0.350000X-0.625000X0.350000X-0.625000X0*%
%ADD13O,1.200000X1.750000*%
%ADD14R,2.000000X1.905000*%
%ADD15O,2.000000X1.905000*%
%ADD16RoundRect,0.250000X-0.550000X-0.550000X0.550000X-0.550000X0.550000X0.550000X-0.550000X0.550000X0*%
%ADD17C,1.600000*%
%ADD18RoundRect,0.250000X-0.600000X-0.725000X0.600000X-0.725000X0.600000X0.725000X-0.600000X0.725000X0*%
%ADD19O,1.700000X1.950000*%
%ADD20C,1.700000*%
%ADD21C,1.400000*%
%ADD22R,1.800000X1.800000*%
%ADD23R,1.905000X2.000000*%
%ADD24O,1.905000X2.000000*%
%ADD25RoundRect,0.250000X1.050000X-1.050000X1.050000X1.050000X-1.050000X1.050000X-1.050000X-1.050000X0*%
%ADD26C,2.600000*%
%ADD27RoundRect,0.250000X0.550000X-0.550000X0.550000X0.550000X-0.550000X0.550000X-0.550000X-0.550000X0*%
G04 APERTURE END LIST*
D10*
%TO.C,REF\u002A\u002A*%
X104600000Y-145400000D03*
%TD*%
D11*
%TO.C,U2*%
X126890000Y-104250000D03*
X124350000Y-104250000D03*
X121810000Y-104250000D03*
X119270000Y-104250000D03*
X116730000Y-104250000D03*
X114190000Y-104250000D03*
X111650000Y-104250000D03*
X109110000Y-104250000D03*
X109110000Y-119750000D03*
X111650000Y-119750000D03*
X114190000Y-119750000D03*
X116730000Y-119750000D03*
X119270000Y-119750000D03*
X121810000Y-119750000D03*
X124350000Y-119750000D03*
X126890000Y-119750000D03*
%TD*%
D12*
%TO.C,J8*%
X160000000Y-105450000D03*
D13*
X158000000Y-105450000D03*
%TD*%
D14*
%TO.C,Q2*%
X139500000Y-120500000D03*
D15*
X139500000Y-117960000D03*
X139500000Y-115420000D03*
%TD*%
D11*
%TO.C,D2*%
X183153026Y-114346975D03*
X181356975Y-116143026D03*
%TD*%
D16*
%TO.C,C1*%
X155500000Y-115000000D03*
D17*
X160500000Y-115000000D03*
%TD*%
D18*
%TO.C,J10*%
X167500000Y-103500000D03*
D19*
X170000000Y-103500000D03*
X172500000Y-103500000D03*
X175000000Y-103500000D03*
X177500000Y-103500000D03*
X180000000Y-103500000D03*
%TD*%
D20*
%TO.C,J7*%
X162500000Y-144580000D03*
X162500000Y-142040000D03*
X162500000Y-139500000D03*
X162500000Y-136960000D03*
X162500000Y-134420000D03*
X162500000Y-131880000D03*
X162500000Y-129340000D03*
X162500000Y-126800000D03*
%TD*%
D21*
%TO.C,R1*%
X127220000Y-146500000D03*
X124680000Y-146500000D03*
%TD*%
%TO.C,R4*%
X134720000Y-116000000D03*
X132180000Y-116000000D03*
%TD*%
D22*
%TO.C,D1*%
X120770000Y-144500000D03*
D11*
X118230000Y-144500000D03*
%TD*%
D23*
%TO.C,U4*%
X165960000Y-116000000D03*
D24*
X168500000Y-116000000D03*
X171040000Y-116000000D03*
%TD*%
D11*
%TO.C,U1*%
X186000000Y-103698500D03*
X186000000Y-106238500D03*
X186000000Y-108778500D03*
X186000000Y-111318500D03*
X186000000Y-113858500D03*
X186000000Y-116398500D03*
X186000000Y-118938500D03*
X201240000Y-118938500D03*
X201240000Y-116398500D03*
X201240000Y-113858500D03*
X201240000Y-111318500D03*
X201240000Y-108778500D03*
X201240000Y-106238500D03*
X201240000Y-103698500D03*
%TD*%
%TO.C,J5*%
X200000000Y-131960000D03*
X200000000Y-134500000D03*
X200000000Y-137040000D03*
X200000000Y-139580000D03*
%TD*%
D25*
%TO.C,J3*%
X140500000Y-132580000D03*
D26*
X140500000Y-127500000D03*
%TD*%
D10*
%TO.C,REF\u002A\u002A*%
X205400000Y-145400000D03*
%TD*%
D21*
%TO.C,R5*%
X133000000Y-137540000D03*
X133000000Y-135000000D03*
%TD*%
%TO.C,R3*%
X132280000Y-120500000D03*
X134820000Y-120500000D03*
%TD*%
%TO.C,R2*%
X112280000Y-144500000D03*
X114820000Y-144500000D03*
%TD*%
D10*
%TO.C,REF\u002A\u002A*%
X205400000Y-104600000D03*
%TD*%
D25*
%TO.C,J2*%
X149000000Y-120500000D03*
D26*
X149000000Y-115420000D03*
%TD*%
D17*
%TO.C,C2*%
X176000000Y-114500000D03*
X178000000Y-114500000D03*
%TD*%
D20*
%TO.C,J9*%
X131460000Y-143500000D03*
X134000000Y-143500000D03*
X136540000Y-143500000D03*
X139080000Y-143500000D03*
X141620000Y-143500000D03*
X144160000Y-143500000D03*
%TD*%
D10*
%TO.C,REF\u002A\u002A*%
X104600000Y-104600000D03*
%TD*%
D16*
%TO.C,C3*%
X130817621Y-108000000D03*
D17*
X133317621Y-108000000D03*
%TD*%
D27*
%TO.C,U3*%
X107760000Y-137620000D03*
D17*
X110300000Y-137620000D03*
X112840000Y-137620000D03*
X115380000Y-137620000D03*
X117920000Y-137620000D03*
X120460000Y-137620000D03*
X123000000Y-137620000D03*
X125540000Y-137620000D03*
X128080000Y-137620000D03*
X128080000Y-130000000D03*
X125540000Y-130000000D03*
X123000000Y-130000000D03*
X120460000Y-130000000D03*
X117920000Y-130000000D03*
X115380000Y-130000000D03*
X112840000Y-130000000D03*
X110300000Y-130000000D03*
X107760000Y-130000000D03*
%TD*%
D18*
%TO.C,J6*%
X139000000Y-103500000D03*
D19*
X141500000Y-103500000D03*
X144000000Y-103500000D03*
X146500000Y-103500000D03*
X149000000Y-103500000D03*
X151500000Y-103500000D03*
%TD*%
D23*
%TO.C,Q3*%
X143040000Y-137550000D03*
D24*
X140500000Y-137550000D03*
X137960000Y-137550000D03*
%TD*%
D21*
%TO.C,R7*%
X133000000Y-129780000D03*
X133000000Y-132320000D03*
%TD*%
M02*
