M48
; DRILL file KiCad 10.0.3 date 2026-10-01T16:58:07
; FORMAT={-:-/ absolute / metric / decimal}
; #@! TF.CreationDate,2026-10-01T16:58:07+09:00
; #@! TF.GenerationSoftware,Kicad,Pcbnew,10.0.3
; #@! TF.FileFunction,Plated,1,2,PTH
FMAT,2
METRIC
; #@! TA.AperFunction,Plated,PTH,ViaDrill
T1C0.300
; #@! TA.AperFunction,Plated,PTH,ComponentDrill
T2C0.700
; #@! TA.AperFunction,Plated,PTH,ComponentDrill
T3C0.750
; #@! TA.AperFunction,Plated,PTH,ComponentDrill
T4C0.800
; #@! TA.AperFunction,Plated,PTH,ComponentDrill
T5C0.900
; #@! TA.AperFunction,Plated,PTH,ComponentDrill
T6C0.950
; #@! TA.AperFunction,Plated,PTH,ComponentDrill
T7C1.000
; #@! TA.AperFunction,Plated,PTH,ComponentDrill
T8C1.100
; #@! TA.AperFunction,Plated,PTH,ComponentDrill
T9C1.300
%
G90
G05
T1
X105.0Y-131.0
X109.0Y-140.0
X114.0Y-147.0
X115.0Y-106.0
X121.0Y-125.0
X123.0Y-106.0
X125.0Y-114.0
X128.0Y-142.0
X130.0Y-114.0
X130.0Y-124.0
X134.0Y-139.0
X136.0Y-148.0
X137.0Y-118.0
X139.0Y-106.0
X144.0Y-109.0
X145.0Y-106.0
X146.0Y-119.0
X146.5Y-109.0
X151.0Y-116.0
X151.0Y-133.0
X152.0Y-120.0
X153.0Y-130.0
X157.0Y-109.0
X159.0Y-145.0
X161.0Y-108.0
X162.0Y-114.0
X162.0Y-116.0
X163.0Y-109.0
X163.0Y-110.0
X170.0Y-106.0
X170.0Y-145.0
X173.0Y-102.0
X175.0Y-108.0
X175.0Y-126.0
X176.5Y-123.5
X177.0Y-110.0
X178.0Y-106.0
X178.0Y-120.0
X178.5Y-108.5
X178.5Y-110.0
X179.0Y-123.5
X180.0Y-107.0
X190.0Y-123.0
X193.0Y-125.0
X198.0Y-109.0
X198.0Y-145.0
X205.0Y-141.0
X206.0Y-120.0
T2
X112.28Y-144.5
X114.82Y-144.5
X124.68Y-146.5
X127.22Y-146.5
X132.18Y-116.0
X132.28Y-120.5
X133.0Y-129.78
X133.0Y-132.32
X133.0Y-135.0
X133.0Y-137.54
X134.72Y-116.0
X134.82Y-120.5
T3
X158.0Y-105.45
X160.0Y-105.45
T4
X107.76Y-130.0
X107.76Y-137.62
X110.3Y-130.0
X110.3Y-137.62
X112.84Y-130.0
X112.84Y-137.62
X115.38Y-130.0
X115.38Y-137.62
X117.92Y-130.0
X117.92Y-137.62
X120.46Y-130.0
X120.46Y-137.62
X123.0Y-130.0
X123.0Y-137.62
X125.54Y-130.0
X125.54Y-137.62
X128.08Y-130.0
X128.08Y-137.62
X130.818Y-108.0
X133.318Y-108.0
X155.5Y-115.0
X160.5Y-115.0
X176.0Y-114.5
X178.0Y-114.5
T5
X118.23Y-144.5
X120.77Y-144.5
T6
X139.0Y-103.5
X141.5Y-103.5
X144.0Y-103.5
X146.5Y-103.5
X149.0Y-103.5
X151.5Y-103.5
X167.5Y-103.5
X170.0Y-103.5
X172.5Y-103.5
X175.0Y-103.5
X177.5Y-103.5
X180.0Y-103.5
T7
X109.11Y-104.25
X109.11Y-119.75
X111.65Y-104.25
X111.65Y-119.75
X114.19Y-104.25
X114.19Y-119.75
X116.73Y-104.25
X116.73Y-119.75
X119.27Y-104.25
X119.27Y-119.75
X121.81Y-104.25
X121.81Y-119.75
X124.35Y-104.25
X124.35Y-119.75
X126.89Y-104.25
X126.89Y-119.75
X131.46Y-143.5
X134.0Y-143.5
X136.54Y-143.5
X139.08Y-143.5
X141.62Y-143.5
X144.16Y-143.5
X162.5Y-126.8
X162.5Y-129.34
X162.5Y-131.88
X162.5Y-134.42
X162.5Y-136.96
X162.5Y-139.5
X162.5Y-142.04
X162.5Y-144.58
X181.357Y-116.143
X183.153Y-114.347
X186.0Y-103.698
X186.0Y-106.239
X186.0Y-108.778
X186.0Y-111.319
X186.0Y-113.858
X186.0Y-116.398
X186.0Y-118.938
X200.0Y-131.96
X200.0Y-134.5
X200.0Y-137.04
X200.0Y-139.58
X201.24Y-103.698
X201.24Y-106.239
X201.24Y-108.778
X201.24Y-111.319
X201.24Y-113.858
X201.24Y-116.398
X201.24Y-118.938
T8
X137.96Y-137.55
X139.5Y-115.42
X139.5Y-117.96
X139.5Y-120.5
X140.5Y-137.55
X143.04Y-137.55
X165.96Y-116.0
X168.5Y-116.0
X171.04Y-116.0
T9
X140.5Y-127.5
X140.5Y-132.58
X149.0Y-115.42
X149.0Y-120.5
M30
