%TF.GenerationSoftware,KiCad,Pcbnew,10.0.3*%
%TF.CreationDate,2026-07-15T10:16:39+09:00*%
%TF.ProjectId,PET_project,5045545f-7072-46f6-9a65-63742e6b6963,rev?*%
%TF.SameCoordinates,Original*%
%TF.FileFunction,Legend,Top*%
%TF.FilePolarity,Positive*%
%FSLAX46Y46*%
G04 Gerber Fmt 4.6, Leading zero omitted, Abs format (unit mm)*
G04 Created by KiCad (PCBNEW 10.0.3) date 2026-07-15 10:16:39*
%MOMM*%
%LPD*%
G01*
G04 APERTURE LIST*
%ADD10C,0.101600*%
%ADD11C,0.100000*%
%ADD12C,0.150000*%
%ADD13C,0.504000*%
%ADD14C,0.127000*%
%ADD15C,0.120000*%
G04 APERTURE END LIST*
D10*
X143064811Y-112483809D02*
X143712430Y-112483809D01*
X143712430Y-112483809D02*
X143788620Y-112453571D01*
X143788620Y-112453571D02*
X143826716Y-112423333D01*
X143826716Y-112423333D02*
X143864811Y-112362857D01*
X143864811Y-112362857D02*
X143864811Y-112241904D01*
X143864811Y-112241904D02*
X143826716Y-112181428D01*
X143826716Y-112181428D02*
X143788620Y-112151190D01*
X143788620Y-112151190D02*
X143712430Y-112120952D01*
X143712430Y-112120952D02*
X143064811Y-112120952D01*
X143064811Y-111879047D02*
X143064811Y-111455714D01*
X143064811Y-111455714D02*
X143864811Y-111727857D01*
D11*
X136738095Y-99457419D02*
X136738095Y-100266942D01*
X136738095Y-100266942D02*
X136785714Y-100362180D01*
X136785714Y-100362180D02*
X136833333Y-100409800D01*
X136833333Y-100409800D02*
X136928571Y-100457419D01*
X136928571Y-100457419D02*
X137119047Y-100457419D01*
X137119047Y-100457419D02*
X137214285Y-100409800D01*
X137214285Y-100409800D02*
X137261904Y-100362180D01*
X137261904Y-100362180D02*
X137309523Y-100266942D01*
X137309523Y-100266942D02*
X137309523Y-99457419D01*
X137738095Y-99552657D02*
X137785714Y-99505038D01*
X137785714Y-99505038D02*
X137880952Y-99457419D01*
X137880952Y-99457419D02*
X138119047Y-99457419D01*
X138119047Y-99457419D02*
X138214285Y-99505038D01*
X138214285Y-99505038D02*
X138261904Y-99552657D01*
X138261904Y-99552657D02*
X138309523Y-99647895D01*
X138309523Y-99647895D02*
X138309523Y-99743133D01*
X138309523Y-99743133D02*
X138261904Y-99885990D01*
X138261904Y-99885990D02*
X137690476Y-100457419D01*
X137690476Y-100457419D02*
X138309523Y-100457419D01*
D12*
X190666666Y-112504819D02*
X190666666Y-113219104D01*
X190666666Y-113219104D02*
X190619047Y-113361961D01*
X190619047Y-113361961D02*
X190523809Y-113457200D01*
X190523809Y-113457200D02*
X190380952Y-113504819D01*
X190380952Y-113504819D02*
X190285714Y-113504819D01*
X191285714Y-112933390D02*
X191190476Y-112885771D01*
X191190476Y-112885771D02*
X191142857Y-112838152D01*
X191142857Y-112838152D02*
X191095238Y-112742914D01*
X191095238Y-112742914D02*
X191095238Y-112695295D01*
X191095238Y-112695295D02*
X191142857Y-112600057D01*
X191142857Y-112600057D02*
X191190476Y-112552438D01*
X191190476Y-112552438D02*
X191285714Y-112504819D01*
X191285714Y-112504819D02*
X191476190Y-112504819D01*
X191476190Y-112504819D02*
X191571428Y-112552438D01*
X191571428Y-112552438D02*
X191619047Y-112600057D01*
X191619047Y-112600057D02*
X191666666Y-112695295D01*
X191666666Y-112695295D02*
X191666666Y-112742914D01*
X191666666Y-112742914D02*
X191619047Y-112838152D01*
X191619047Y-112838152D02*
X191571428Y-112885771D01*
X191571428Y-112885771D02*
X191476190Y-112933390D01*
X191476190Y-112933390D02*
X191285714Y-112933390D01*
X191285714Y-112933390D02*
X191190476Y-112981009D01*
X191190476Y-112981009D02*
X191142857Y-113028628D01*
X191142857Y-113028628D02*
X191095238Y-113123866D01*
X191095238Y-113123866D02*
X191095238Y-113314342D01*
X191095238Y-113314342D02*
X191142857Y-113409580D01*
X191142857Y-113409580D02*
X191190476Y-113457200D01*
X191190476Y-113457200D02*
X191285714Y-113504819D01*
X191285714Y-113504819D02*
X191476190Y-113504819D01*
X191476190Y-113504819D02*
X191571428Y-113457200D01*
X191571428Y-113457200D02*
X191619047Y-113409580D01*
X191619047Y-113409580D02*
X191666666Y-113314342D01*
X191666666Y-113314342D02*
X191666666Y-113123866D01*
X191666666Y-113123866D02*
X191619047Y-113028628D01*
X191619047Y-113028628D02*
X191571428Y-112981009D01*
X191571428Y-112981009D02*
X191476190Y-112933390D01*
X198261905Y-112504819D02*
X198357143Y-112504819D01*
X198357143Y-112504819D02*
X198452381Y-112552438D01*
X198452381Y-112552438D02*
X198500000Y-112600057D01*
X198500000Y-112600057D02*
X198547619Y-112695295D01*
X198547619Y-112695295D02*
X198595238Y-112885771D01*
X198595238Y-112885771D02*
X198595238Y-113123866D01*
X198595238Y-113123866D02*
X198547619Y-113314342D01*
X198547619Y-113314342D02*
X198500000Y-113409580D01*
X198500000Y-113409580D02*
X198452381Y-113457200D01*
X198452381Y-113457200D02*
X198357143Y-113504819D01*
X198357143Y-113504819D02*
X198261905Y-113504819D01*
X198261905Y-113504819D02*
X198166667Y-113457200D01*
X198166667Y-113457200D02*
X198119048Y-113409580D01*
X198119048Y-113409580D02*
X198071429Y-113314342D01*
X198071429Y-113314342D02*
X198023810Y-113123866D01*
X198023810Y-113123866D02*
X198023810Y-112885771D01*
X198023810Y-112885771D02*
X198071429Y-112695295D01*
X198071429Y-112695295D02*
X198119048Y-112600057D01*
X198119048Y-112600057D02*
X198166667Y-112552438D01*
X198166667Y-112552438D02*
X198261905Y-112504819D01*
X199023810Y-113409580D02*
X199071429Y-113457200D01*
X199071429Y-113457200D02*
X199023810Y-113504819D01*
X199023810Y-113504819D02*
X198976191Y-113457200D01*
X198976191Y-113457200D02*
X199023810Y-113409580D01*
X199023810Y-113409580D02*
X199023810Y-113504819D01*
X199404762Y-112504819D02*
X200023809Y-112504819D01*
X200023809Y-112504819D02*
X199690476Y-112885771D01*
X199690476Y-112885771D02*
X199833333Y-112885771D01*
X199833333Y-112885771D02*
X199928571Y-112933390D01*
X199928571Y-112933390D02*
X199976190Y-112981009D01*
X199976190Y-112981009D02*
X200023809Y-113076247D01*
X200023809Y-113076247D02*
X200023809Y-113314342D01*
X200023809Y-113314342D02*
X199976190Y-113409580D01*
X199976190Y-113409580D02*
X199928571Y-113457200D01*
X199928571Y-113457200D02*
X199833333Y-113504819D01*
X199833333Y-113504819D02*
X199547619Y-113504819D01*
X199547619Y-113504819D02*
X199452381Y-113457200D01*
X199452381Y-113457200D02*
X199404762Y-113409580D01*
X200357143Y-112504819D02*
X200976190Y-112504819D01*
X200976190Y-112504819D02*
X200642857Y-112885771D01*
X200642857Y-112885771D02*
X200785714Y-112885771D01*
X200785714Y-112885771D02*
X200880952Y-112933390D01*
X200880952Y-112933390D02*
X200928571Y-112981009D01*
X200928571Y-112981009D02*
X200976190Y-113076247D01*
X200976190Y-113076247D02*
X200976190Y-113314342D01*
X200976190Y-113314342D02*
X200928571Y-113409580D01*
X200928571Y-113409580D02*
X200880952Y-113457200D01*
X200880952Y-113457200D02*
X200785714Y-113504819D01*
X200785714Y-113504819D02*
X200500000Y-113504819D01*
X200500000Y-113504819D02*
X200404762Y-113457200D01*
X200404762Y-113457200D02*
X200357143Y-113409580D01*
X113166666Y-113409819D02*
X113166666Y-114124104D01*
X113166666Y-114124104D02*
X113119047Y-114266961D01*
X113119047Y-114266961D02*
X113023809Y-114362200D01*
X113023809Y-114362200D02*
X112880952Y-114409819D01*
X112880952Y-114409819D02*
X112785714Y-114409819D01*
X114071428Y-113743152D02*
X114071428Y-114409819D01*
X113833333Y-113362200D02*
X113595238Y-114076485D01*
X113595238Y-114076485D02*
X114214285Y-114076485D01*
X131666666Y-125064819D02*
X131666666Y-125779104D01*
X131666666Y-125779104D02*
X131619047Y-125921961D01*
X131619047Y-125921961D02*
X131523809Y-126017200D01*
X131523809Y-126017200D02*
X131380952Y-126064819D01*
X131380952Y-126064819D02*
X131285714Y-126064819D01*
X132047619Y-125064819D02*
X132714285Y-125064819D01*
X132714285Y-125064819D02*
X132285714Y-126064819D01*
X188004819Y-130839166D02*
X187528628Y-131172499D01*
X188004819Y-131410594D02*
X187004819Y-131410594D01*
X187004819Y-131410594D02*
X187004819Y-131029642D01*
X187004819Y-131029642D02*
X187052438Y-130934404D01*
X187052438Y-130934404D02*
X187100057Y-130886785D01*
X187100057Y-130886785D02*
X187195295Y-130839166D01*
X187195295Y-130839166D02*
X187338152Y-130839166D01*
X187338152Y-130839166D02*
X187433390Y-130886785D01*
X187433390Y-130886785D02*
X187481009Y-130934404D01*
X187481009Y-130934404D02*
X187528628Y-131029642D01*
X187528628Y-131029642D02*
X187528628Y-131410594D01*
X187338152Y-129982023D02*
X188004819Y-129982023D01*
X186957200Y-130220118D02*
X187671485Y-130458213D01*
X187671485Y-130458213D02*
X187671485Y-129839166D01*
X191278095Y-111404819D02*
X191278095Y-112214342D01*
X191278095Y-112214342D02*
X191325714Y-112309580D01*
X191325714Y-112309580D02*
X191373333Y-112357200D01*
X191373333Y-112357200D02*
X191468571Y-112404819D01*
X191468571Y-112404819D02*
X191659047Y-112404819D01*
X191659047Y-112404819D02*
X191754285Y-112357200D01*
X191754285Y-112357200D02*
X191801904Y-112309580D01*
X191801904Y-112309580D02*
X191849523Y-112214342D01*
X191849523Y-112214342D02*
X191849523Y-111404819D01*
X192468571Y-111833390D02*
X192373333Y-111785771D01*
X192373333Y-111785771D02*
X192325714Y-111738152D01*
X192325714Y-111738152D02*
X192278095Y-111642914D01*
X192278095Y-111642914D02*
X192278095Y-111595295D01*
X192278095Y-111595295D02*
X192325714Y-111500057D01*
X192325714Y-111500057D02*
X192373333Y-111452438D01*
X192373333Y-111452438D02*
X192468571Y-111404819D01*
X192468571Y-111404819D02*
X192659047Y-111404819D01*
X192659047Y-111404819D02*
X192754285Y-111452438D01*
X192754285Y-111452438D02*
X192801904Y-111500057D01*
X192801904Y-111500057D02*
X192849523Y-111595295D01*
X192849523Y-111595295D02*
X192849523Y-111642914D01*
X192849523Y-111642914D02*
X192801904Y-111738152D01*
X192801904Y-111738152D02*
X192754285Y-111785771D01*
X192754285Y-111785771D02*
X192659047Y-111833390D01*
X192659047Y-111833390D02*
X192468571Y-111833390D01*
X192468571Y-111833390D02*
X192373333Y-111881009D01*
X192373333Y-111881009D02*
X192325714Y-111928628D01*
X192325714Y-111928628D02*
X192278095Y-112023866D01*
X192278095Y-112023866D02*
X192278095Y-112214342D01*
X192278095Y-112214342D02*
X192325714Y-112309580D01*
X192325714Y-112309580D02*
X192373333Y-112357200D01*
X192373333Y-112357200D02*
X192468571Y-112404819D01*
X192468571Y-112404819D02*
X192659047Y-112404819D01*
X192659047Y-112404819D02*
X192754285Y-112357200D01*
X192754285Y-112357200D02*
X192801904Y-112309580D01*
X192801904Y-112309580D02*
X192849523Y-112214342D01*
X192849523Y-112214342D02*
X192849523Y-112023866D01*
X192849523Y-112023866D02*
X192801904Y-111928628D01*
X192801904Y-111928628D02*
X192754285Y-111881009D01*
X192754285Y-111881009D02*
X192659047Y-111833390D01*
D10*
X162064811Y-111838809D02*
X162712430Y-111838809D01*
X162712430Y-111838809D02*
X162788620Y-111808571D01*
X162788620Y-111808571D02*
X162826716Y-111778333D01*
X162826716Y-111778333D02*
X162864811Y-111717857D01*
X162864811Y-111717857D02*
X162864811Y-111596904D01*
X162864811Y-111596904D02*
X162826716Y-111536428D01*
X162826716Y-111536428D02*
X162788620Y-111506190D01*
X162788620Y-111506190D02*
X162712430Y-111475952D01*
X162712430Y-111475952D02*
X162064811Y-111475952D01*
X162864811Y-110840952D02*
X162864811Y-111203809D01*
X162864811Y-111022381D02*
X162064811Y-111022381D01*
X162064811Y-111022381D02*
X162179096Y-111082857D01*
X162179096Y-111082857D02*
X162255287Y-111143333D01*
X162255287Y-111143333D02*
X162293382Y-111203809D01*
D12*
X122166666Y-113409819D02*
X122166666Y-114124104D01*
X122166666Y-114124104D02*
X122119047Y-114266961D01*
X122119047Y-114266961D02*
X122023809Y-114362200D01*
X122023809Y-114362200D02*
X121880952Y-114409819D01*
X121880952Y-114409819D02*
X121785714Y-114409819D01*
X123166666Y-114409819D02*
X122595238Y-114409819D01*
X122880952Y-114409819D02*
X122880952Y-113409819D01*
X122880952Y-113409819D02*
X122785714Y-113552676D01*
X122785714Y-113552676D02*
X122690476Y-113647914D01*
X122690476Y-113647914D02*
X122595238Y-113695533D01*
X186364819Y-134243333D02*
X187079104Y-134243333D01*
X187079104Y-134243333D02*
X187221961Y-134290952D01*
X187221961Y-134290952D02*
X187317200Y-134386190D01*
X187317200Y-134386190D02*
X187364819Y-134529047D01*
X187364819Y-134529047D02*
X187364819Y-134624285D01*
X186364819Y-133862380D02*
X186364819Y-133243333D01*
X186364819Y-133243333D02*
X186745771Y-133576666D01*
X186745771Y-133576666D02*
X186745771Y-133433809D01*
X186745771Y-133433809D02*
X186793390Y-133338571D01*
X186793390Y-133338571D02*
X186841009Y-133290952D01*
X186841009Y-133290952D02*
X186936247Y-133243333D01*
X186936247Y-133243333D02*
X187174342Y-133243333D01*
X187174342Y-133243333D02*
X187269580Y-133290952D01*
X187269580Y-133290952D02*
X187317200Y-133338571D01*
X187317200Y-133338571D02*
X187364819Y-133433809D01*
X187364819Y-133433809D02*
X187364819Y-133719523D01*
X187364819Y-133719523D02*
X187317200Y-133814761D01*
X187317200Y-133814761D02*
X187269580Y-133862380D01*
X175793333Y-128369819D02*
X175460000Y-127893628D01*
X175221905Y-128369819D02*
X175221905Y-127369819D01*
X175221905Y-127369819D02*
X175602857Y-127369819D01*
X175602857Y-127369819D02*
X175698095Y-127417438D01*
X175698095Y-127417438D02*
X175745714Y-127465057D01*
X175745714Y-127465057D02*
X175793333Y-127560295D01*
X175793333Y-127560295D02*
X175793333Y-127703152D01*
X175793333Y-127703152D02*
X175745714Y-127798390D01*
X175745714Y-127798390D02*
X175698095Y-127846009D01*
X175698095Y-127846009D02*
X175602857Y-127893628D01*
X175602857Y-127893628D02*
X175221905Y-127893628D01*
X176698095Y-127369819D02*
X176221905Y-127369819D01*
X176221905Y-127369819D02*
X176174286Y-127846009D01*
X176174286Y-127846009D02*
X176221905Y-127798390D01*
X176221905Y-127798390D02*
X176317143Y-127750771D01*
X176317143Y-127750771D02*
X176555238Y-127750771D01*
X176555238Y-127750771D02*
X176650476Y-127798390D01*
X176650476Y-127798390D02*
X176698095Y-127846009D01*
X176698095Y-127846009D02*
X176745714Y-127941247D01*
X176745714Y-127941247D02*
X176745714Y-128179342D01*
X176745714Y-128179342D02*
X176698095Y-128274580D01*
X176698095Y-128274580D02*
X176650476Y-128322200D01*
X176650476Y-128322200D02*
X176555238Y-128369819D01*
X176555238Y-128369819D02*
X176317143Y-128369819D01*
X176317143Y-128369819D02*
X176221905Y-128322200D01*
X176221905Y-128322200D02*
X176174286Y-128274580D01*
X189883333Y-126707319D02*
X189550000Y-126231128D01*
X189311905Y-126707319D02*
X189311905Y-125707319D01*
X189311905Y-125707319D02*
X189692857Y-125707319D01*
X189692857Y-125707319D02*
X189788095Y-125754938D01*
X189788095Y-125754938D02*
X189835714Y-125802557D01*
X189835714Y-125802557D02*
X189883333Y-125897795D01*
X189883333Y-125897795D02*
X189883333Y-126040652D01*
X189883333Y-126040652D02*
X189835714Y-126135890D01*
X189835714Y-126135890D02*
X189788095Y-126183509D01*
X189788095Y-126183509D02*
X189692857Y-126231128D01*
X189692857Y-126231128D02*
X189311905Y-126231128D01*
X190216667Y-125707319D02*
X190835714Y-125707319D01*
X190835714Y-125707319D02*
X190502381Y-126088271D01*
X190502381Y-126088271D02*
X190645238Y-126088271D01*
X190645238Y-126088271D02*
X190740476Y-126135890D01*
X190740476Y-126135890D02*
X190788095Y-126183509D01*
X190788095Y-126183509D02*
X190835714Y-126278747D01*
X190835714Y-126278747D02*
X190835714Y-126516842D01*
X190835714Y-126516842D02*
X190788095Y-126612080D01*
X190788095Y-126612080D02*
X190740476Y-126659700D01*
X190740476Y-126659700D02*
X190645238Y-126707319D01*
X190645238Y-126707319D02*
X190359524Y-126707319D01*
X190359524Y-126707319D02*
X190264286Y-126659700D01*
X190264286Y-126659700D02*
X190216667Y-126612080D01*
X118666666Y-122484819D02*
X118666666Y-123199104D01*
X118666666Y-123199104D02*
X118619047Y-123341961D01*
X118619047Y-123341961D02*
X118523809Y-123437200D01*
X118523809Y-123437200D02*
X118380952Y-123484819D01*
X118380952Y-123484819D02*
X118285714Y-123484819D01*
X119571428Y-122484819D02*
X119380952Y-122484819D01*
X119380952Y-122484819D02*
X119285714Y-122532438D01*
X119285714Y-122532438D02*
X119238095Y-122580057D01*
X119238095Y-122580057D02*
X119142857Y-122722914D01*
X119142857Y-122722914D02*
X119095238Y-122913390D01*
X119095238Y-122913390D02*
X119095238Y-123294342D01*
X119095238Y-123294342D02*
X119142857Y-123389580D01*
X119142857Y-123389580D02*
X119190476Y-123437200D01*
X119190476Y-123437200D02*
X119285714Y-123484819D01*
X119285714Y-123484819D02*
X119476190Y-123484819D01*
X119476190Y-123484819D02*
X119571428Y-123437200D01*
X119571428Y-123437200D02*
X119619047Y-123389580D01*
X119619047Y-123389580D02*
X119666666Y-123294342D01*
X119666666Y-123294342D02*
X119666666Y-123056247D01*
X119666666Y-123056247D02*
X119619047Y-122961009D01*
X119619047Y-122961009D02*
X119571428Y-122913390D01*
X119571428Y-122913390D02*
X119476190Y-122865771D01*
X119476190Y-122865771D02*
X119285714Y-122865771D01*
X119285714Y-122865771D02*
X119190476Y-122913390D01*
X119190476Y-122913390D02*
X119142857Y-122961009D01*
X119142857Y-122961009D02*
X119095238Y-123056247D01*
X108666666Y-124024819D02*
X108666666Y-124739104D01*
X108666666Y-124739104D02*
X108619047Y-124881961D01*
X108619047Y-124881961D02*
X108523809Y-124977200D01*
X108523809Y-124977200D02*
X108380952Y-125024819D01*
X108380952Y-125024819D02*
X108285714Y-125024819D01*
X109190476Y-125024819D02*
X109380952Y-125024819D01*
X109380952Y-125024819D02*
X109476190Y-124977200D01*
X109476190Y-124977200D02*
X109523809Y-124929580D01*
X109523809Y-124929580D02*
X109619047Y-124786723D01*
X109619047Y-124786723D02*
X109666666Y-124596247D01*
X109666666Y-124596247D02*
X109666666Y-124215295D01*
X109666666Y-124215295D02*
X109619047Y-124120057D01*
X109619047Y-124120057D02*
X109571428Y-124072438D01*
X109571428Y-124072438D02*
X109476190Y-124024819D01*
X109476190Y-124024819D02*
X109285714Y-124024819D01*
X109285714Y-124024819D02*
X109190476Y-124072438D01*
X109190476Y-124072438D02*
X109142857Y-124120057D01*
X109142857Y-124120057D02*
X109095238Y-124215295D01*
X109095238Y-124215295D02*
X109095238Y-124453390D01*
X109095238Y-124453390D02*
X109142857Y-124548628D01*
X109142857Y-124548628D02*
X109190476Y-124596247D01*
X109190476Y-124596247D02*
X109285714Y-124643866D01*
X109285714Y-124643866D02*
X109476190Y-124643866D01*
X109476190Y-124643866D02*
X109571428Y-124596247D01*
X109571428Y-124596247D02*
X109619047Y-124548628D01*
X109619047Y-124548628D02*
X109666666Y-124453390D01*
X106583333Y-114459580D02*
X106535714Y-114507200D01*
X106535714Y-114507200D02*
X106392857Y-114554819D01*
X106392857Y-114554819D02*
X106297619Y-114554819D01*
X106297619Y-114554819D02*
X106154762Y-114507200D01*
X106154762Y-114507200D02*
X106059524Y-114411961D01*
X106059524Y-114411961D02*
X106011905Y-114316723D01*
X106011905Y-114316723D02*
X105964286Y-114126247D01*
X105964286Y-114126247D02*
X105964286Y-113983390D01*
X105964286Y-113983390D02*
X106011905Y-113792914D01*
X106011905Y-113792914D02*
X106059524Y-113697676D01*
X106059524Y-113697676D02*
X106154762Y-113602438D01*
X106154762Y-113602438D02*
X106297619Y-113554819D01*
X106297619Y-113554819D02*
X106392857Y-113554819D01*
X106392857Y-113554819D02*
X106535714Y-113602438D01*
X106535714Y-113602438D02*
X106583333Y-113650057D01*
X106916667Y-113554819D02*
X107535714Y-113554819D01*
X107535714Y-113554819D02*
X107202381Y-113935771D01*
X107202381Y-113935771D02*
X107345238Y-113935771D01*
X107345238Y-113935771D02*
X107440476Y-113983390D01*
X107440476Y-113983390D02*
X107488095Y-114031009D01*
X107488095Y-114031009D02*
X107535714Y-114126247D01*
X107535714Y-114126247D02*
X107535714Y-114364342D01*
X107535714Y-114364342D02*
X107488095Y-114459580D01*
X107488095Y-114459580D02*
X107440476Y-114507200D01*
X107440476Y-114507200D02*
X107345238Y-114554819D01*
X107345238Y-114554819D02*
X107059524Y-114554819D01*
X107059524Y-114554819D02*
X106964286Y-114507200D01*
X106964286Y-114507200D02*
X106916667Y-114459580D01*
X185874819Y-126216666D02*
X185398628Y-126549999D01*
X185874819Y-126788094D02*
X184874819Y-126788094D01*
X184874819Y-126788094D02*
X184874819Y-126407142D01*
X184874819Y-126407142D02*
X184922438Y-126311904D01*
X184922438Y-126311904D02*
X184970057Y-126264285D01*
X184970057Y-126264285D02*
X185065295Y-126216666D01*
X185065295Y-126216666D02*
X185208152Y-126216666D01*
X185208152Y-126216666D02*
X185303390Y-126264285D01*
X185303390Y-126264285D02*
X185351009Y-126311904D01*
X185351009Y-126311904D02*
X185398628Y-126407142D01*
X185398628Y-126407142D02*
X185398628Y-126788094D01*
X184874819Y-125883332D02*
X184874819Y-125216666D01*
X184874819Y-125216666D02*
X185874819Y-125645237D01*
%TO.C,U7*%
D13*
X149871000Y-102980000D02*
G75*
G02*
X149367000Y-102980000I-252000J0D01*
G01*
X149367000Y-102980000D02*
G75*
G02*
X149871000Y-102980000I252000J0D01*
G01*
X148728000Y-102100000D02*
G75*
G02*
X148224000Y-102100000I-252000J0D01*
G01*
X148224000Y-102100000D02*
G75*
G02*
X148728000Y-102100000I252000J0D01*
G01*
D14*
X166270000Y-121009000D02*
G75*
G02*
X164365000Y-122914000I-1905001J1D01*
G01*
X164365000Y-101959000D02*
G75*
G02*
X166270000Y-103864000I0J-1905000D01*
G01*
X161384000Y-100449000D02*
G75*
G02*
X161884000Y-100949000I0J-500000D01*
G01*
X152888728Y-100948728D02*
G75*
G02*
X153388728Y-100449028I499972J-272D01*
G01*
X150395000Y-122914000D02*
G75*
G02*
X148490000Y-121009000I1J1905001D01*
G01*
X148490000Y-103864000D02*
G75*
G02*
X150395000Y-101959000I1905000J0D01*
G01*
X166270000Y-121009000D02*
X166270000Y-103864000D01*
X164365000Y-101959000D02*
X150395000Y-101959000D01*
D11*
X164365000Y-101959000D02*
X150395000Y-101959000D01*
D14*
X161884000Y-100949000D02*
X161884000Y-101959000D01*
X153388728Y-100449000D02*
X161384000Y-100449000D01*
X152885000Y-101959000D02*
X152888728Y-100948728D01*
X150395000Y-122914000D02*
X164365000Y-122914000D01*
X148490000Y-121009000D02*
X148490000Y-103864000D01*
%TO.C,J5*%
D11*
X138500000Y-124500000D02*
X174500000Y-124500000D01*
X174500000Y-150500000D01*
X138500000Y-150500000D01*
X138500000Y-124500000D01*
%TO.C,U2*%
X127250000Y-103300000D02*
X147750000Y-103300000D01*
X147750000Y-123700000D01*
X127250000Y-123700000D01*
X127250000Y-103300000D01*
%TO.C,J8*%
D15*
X187940000Y-104140000D02*
X187940000Y-111960000D01*
X187940000Y-110360000D02*
X188860000Y-110360000D01*
X187940000Y-111960000D02*
X188860000Y-111960000D01*
X188860000Y-110360000D02*
X189140000Y-110360000D01*
X188860000Y-111960000D02*
X188860000Y-110360000D01*
X190500000Y-108500000D02*
X190500000Y-104140000D01*
X191500000Y-104140000D02*
X191500000Y-108500000D01*
X191500000Y-108500000D02*
X190500000Y-108500000D01*
X192300000Y-106400000D02*
X192300000Y-104140000D01*
X192800000Y-106400000D02*
X192800000Y-104140000D01*
X192860000Y-110360000D02*
X192860000Y-111575000D01*
X192860000Y-110360000D02*
X193140000Y-110360000D01*
X193140000Y-110360000D02*
X193140000Y-111960000D01*
X193140000Y-111960000D02*
X194060000Y-111960000D01*
X194060000Y-104140000D02*
X187940000Y-104140000D01*
X194060000Y-110360000D02*
X193140000Y-110360000D01*
X194060000Y-111960000D02*
X194060000Y-104140000D01*
X188700000Y-106400000D02*
X189700000Y-106400000D01*
X189700000Y-108000000D01*
X188700000Y-108000000D01*
X188700000Y-106400000D01*
X192300000Y-106400000D02*
X193300000Y-106400000D01*
X193300000Y-108000000D01*
X192300000Y-108000000D01*
X192300000Y-106400000D01*
%TO.C,Q2*%
X193190000Y-126602500D02*
X197810000Y-126602500D01*
X193190000Y-136822500D02*
X193190000Y-126602500D01*
X196430000Y-126602500D02*
X196430000Y-136822500D01*
X197810000Y-126602500D02*
X197810000Y-136822500D01*
X197810000Y-129862500D02*
X196430000Y-129862500D01*
X197810000Y-133562500D02*
X196430000Y-133562500D01*
X197810000Y-136822500D02*
X193190000Y-136822500D01*
%TO.C,C1*%
X196962712Y-108215000D02*
X197412712Y-108215000D01*
X197187712Y-107990000D02*
X197187712Y-108440000D01*
X197380259Y-108490000D02*
G75*
G02*
X201619741Y-108490000I2119741J-1060001D01*
G01*
X201619741Y-110610000D02*
G75*
G02*
X197380259Y-110610000I-2119741J1060001D01*
G01*
%TO.C,J4*%
X109690000Y-101135000D02*
X109690000Y-112855000D01*
X109690000Y-112855000D02*
X111110000Y-112855000D01*
X111110000Y-108355000D02*
X113500000Y-108355000D01*
X111110000Y-112855000D02*
X111110000Y-108355000D01*
X113500000Y-101135000D02*
X109690000Y-101135000D01*
X113500000Y-101135000D02*
X117310000Y-101135000D01*
X114450000Y-112545000D02*
X114750000Y-111945000D01*
X114750000Y-111945000D02*
X115050000Y-112545000D01*
X115050000Y-112545000D02*
X114450000Y-112545000D01*
X115890000Y-108355000D02*
X113500000Y-108355000D01*
X115890000Y-112855000D02*
X115890000Y-108355000D01*
X117310000Y-101135000D02*
X117310000Y-112855000D01*
X117310000Y-112855000D02*
X115890000Y-112855000D01*
X112000000Y-101745000D02*
X112500000Y-101745000D01*
X112500000Y-107245000D01*
X112000000Y-107245000D01*
X112000000Y-101745000D01*
X114500000Y-101745000D02*
X115000000Y-101745000D01*
X115000000Y-107245000D01*
X114500000Y-107245000D01*
X114500000Y-101745000D01*
%TO.C,C2*%
X196620000Y-121050000D02*
G75*
G02*
X191380000Y-121050000I-2620000J0D01*
G01*
X191380000Y-121050000D02*
G75*
G02*
X196620000Y-121050000I2620000J0D01*
G01*
%TO.C,J7*%
X130670000Y-129650000D02*
X130670000Y-147490000D01*
X130670000Y-129650000D02*
X133330000Y-129650000D01*
X130670000Y-147490000D02*
X133330000Y-147490000D01*
X132000000Y-127050000D02*
X133330000Y-127050000D01*
X133330000Y-127050000D02*
X133330000Y-128380000D01*
X133330000Y-129650000D02*
X133330000Y-147490000D01*
%TO.C,R4*%
X191050000Y-131872500D02*
X191050000Y-132492500D01*
X191970000Y-130952500D02*
G75*
G02*
X190130000Y-130952500I-920000J0D01*
G01*
X190130000Y-130952500D02*
G75*
G02*
X191970000Y-130952500I920000J0D01*
G01*
%TO.C,U8*%
X186930000Y-112790000D02*
X197150000Y-112790000D01*
X186930000Y-114170000D02*
X197150000Y-114170000D01*
X186930000Y-117410000D02*
X186930000Y-112790000D01*
X190190000Y-112790000D02*
X190190000Y-114170000D01*
X193890000Y-112790000D02*
X193890000Y-114170000D01*
X197150000Y-112790000D02*
X197150000Y-117410000D01*
X197150000Y-117410000D02*
X186930000Y-117410000D01*
%TO.C,U1*%
D14*
X167337250Y-119889000D02*
X167337250Y-102744000D01*
X169242250Y-121794000D02*
X183212250Y-121794000D01*
X171732250Y-100839000D02*
X171735978Y-99828728D01*
X172235978Y-99329000D02*
X180231250Y-99329000D01*
X180731250Y-99829000D02*
X180731250Y-100839000D01*
D11*
X183212250Y-100839000D02*
X169242250Y-100839000D01*
D14*
X183212250Y-100839000D02*
X169242250Y-100839000D01*
X185117250Y-119889000D02*
X185117250Y-102744000D01*
X167337250Y-102744000D02*
G75*
G02*
X169242250Y-100839000I1905000J0D01*
G01*
X169242250Y-121794000D02*
G75*
G02*
X167337250Y-119889000I1J1905001D01*
G01*
X171735978Y-99828728D02*
G75*
G02*
X172235978Y-99329028I499972J-272D01*
G01*
X180231250Y-99329000D02*
G75*
G02*
X180731250Y-99829000I0J-500000D01*
G01*
X183212250Y-100839000D02*
G75*
G02*
X185117250Y-102744000I0J-1905000D01*
G01*
X185117250Y-119889000D02*
G75*
G02*
X183212250Y-121794000I-1905001J1D01*
G01*
D13*
X167575250Y-100980000D02*
G75*
G02*
X167071250Y-100980000I-252000J0D01*
G01*
X167071250Y-100980000D02*
G75*
G02*
X167575250Y-100980000I252000J0D01*
G01*
X168718250Y-101860000D02*
G75*
G02*
X168214250Y-101860000I-252000J0D01*
G01*
X168214250Y-101860000D02*
G75*
G02*
X168718250Y-101860000I252000J0D01*
G01*
%TO.C,J1*%
D15*
X118690000Y-101135000D02*
X118690000Y-112855000D01*
X118690000Y-112855000D02*
X120110000Y-112855000D01*
X120110000Y-108355000D02*
X122500000Y-108355000D01*
X120110000Y-112855000D02*
X120110000Y-108355000D01*
X122500000Y-101135000D02*
X118690000Y-101135000D01*
X122500000Y-101135000D02*
X126310000Y-101135000D01*
X123450000Y-112545000D02*
X123750000Y-111945000D01*
X123750000Y-111945000D02*
X124050000Y-112545000D01*
X124050000Y-112545000D02*
X123450000Y-112545000D01*
X124890000Y-108355000D02*
X122500000Y-108355000D01*
X124890000Y-112855000D02*
X124890000Y-108355000D01*
X126310000Y-101135000D02*
X126310000Y-112855000D01*
X126310000Y-112855000D02*
X124890000Y-112855000D01*
X121000000Y-101745000D02*
X121500000Y-101745000D01*
X121500000Y-107245000D01*
X121000000Y-107245000D01*
X121000000Y-101745000D01*
X123500000Y-101745000D02*
X124000000Y-101745000D01*
X124000000Y-107245000D01*
X123500000Y-107245000D01*
X123500000Y-101745000D01*
%TO.C,J3*%
X178740000Y-135210000D02*
X188780000Y-135210000D01*
X178740000Y-137570000D02*
X178740000Y-135210000D01*
X178740000Y-145610000D02*
X178740000Y-138170000D01*
X179360000Y-135210000D02*
X179360000Y-145610000D01*
X180860000Y-135210000D02*
X180860000Y-145610000D01*
X185760000Y-135210000D02*
X185760000Y-145610000D01*
X188780000Y-135210000D02*
X188780000Y-145610000D01*
X188780000Y-145610000D02*
X178740000Y-145610000D01*
X178740000Y-137870000D02*
X178130000Y-138310000D01*
X178130000Y-137430000D01*
X178740000Y-137870000D01*
G36*
X178740000Y-137870000D02*
G01*
X178130000Y-138310000D01*
X178130000Y-137430000D01*
X178740000Y-137870000D01*
G37*
%TO.C,R5*%
X179800000Y-127500000D02*
X179180000Y-127500000D01*
X181640000Y-127500000D02*
G75*
G02*
X179800000Y-127500000I-920000J0D01*
G01*
X179800000Y-127500000D02*
G75*
G02*
X181640000Y-127500000I920000J0D01*
G01*
%TO.C,R3*%
X189700000Y-128172500D02*
X190320000Y-128172500D01*
X189700000Y-128172500D02*
G75*
G02*
X187860000Y-128172500I-920000J0D01*
G01*
X187860000Y-128172500D02*
G75*
G02*
X189700000Y-128172500I920000J0D01*
G01*
%TO.C,J2*%
X198760000Y-121780000D02*
X206200000Y-121780000D01*
X198760000Y-131820000D02*
X198760000Y-121780000D01*
X206800000Y-121780000D02*
X209160000Y-121780000D01*
X209160000Y-121780000D02*
X209160000Y-131820000D01*
X209160000Y-122400000D02*
X198760000Y-122400000D01*
X209160000Y-123900000D02*
X198760000Y-123900000D01*
X209160000Y-128800000D02*
X198760000Y-128800000D01*
X209160000Y-131820000D02*
X198760000Y-131820000D01*
X206500000Y-121780000D02*
X206060000Y-121170000D01*
X206940000Y-121170000D01*
X206500000Y-121780000D01*
G36*
X206500000Y-121780000D02*
G01*
X206060000Y-121170000D01*
X206940000Y-121170000D01*
X206500000Y-121780000D01*
G37*
%TO.C,J6*%
X117670000Y-127070000D02*
X117670000Y-147450000D01*
X117670000Y-127070000D02*
X120330000Y-127070000D01*
X117670000Y-147450000D02*
X120330000Y-147450000D01*
X119000000Y-124470000D02*
X120330000Y-124470000D01*
X120330000Y-124470000D02*
X120330000Y-125800000D01*
X120330000Y-127070000D02*
X120330000Y-147450000D01*
%TO.C,J9*%
X107670000Y-128610000D02*
X107670000Y-141370000D01*
X107670000Y-128610000D02*
X110330000Y-128610000D01*
X107670000Y-141370000D02*
X110330000Y-141370000D01*
X109000000Y-126010000D02*
X110330000Y-126010000D01*
X110330000Y-126010000D02*
X110330000Y-127340000D01*
X110330000Y-128610000D02*
X110330000Y-141370000D01*
%TO.C,C3*%
X103249759Y-116661000D02*
X103879759Y-116661000D01*
X103564759Y-116346000D02*
X103564759Y-116976000D01*
X106750000Y-115270000D02*
X106750000Y-121730000D01*
X106790000Y-115270000D02*
X106790000Y-121730000D01*
X106830000Y-115271000D02*
X106830000Y-121729000D01*
X106870000Y-115272000D02*
X106870000Y-121728000D01*
X106910000Y-115274000D02*
X106910000Y-121726000D01*
X106950000Y-115276000D02*
X106950000Y-121724000D01*
X106990000Y-115279000D02*
X106990000Y-117460000D01*
X106990000Y-119540000D02*
X106990000Y-121721000D01*
X107030000Y-115282000D02*
X107030000Y-117460000D01*
X107030000Y-119540000D02*
X107030000Y-121718000D01*
X107070000Y-115286000D02*
X107070000Y-117460000D01*
X107070000Y-119540000D02*
X107070000Y-121714000D01*
X107110000Y-115290000D02*
X107110000Y-117460000D01*
X107110000Y-119540000D02*
X107110000Y-121710000D01*
X107150000Y-115295000D02*
X107150000Y-117460000D01*
X107150000Y-119540000D02*
X107150000Y-121705000D01*
X107190000Y-115300000D02*
X107190000Y-117460000D01*
X107190000Y-119540000D02*
X107190000Y-121700000D01*
X107230000Y-115305000D02*
X107230000Y-117460000D01*
X107230000Y-119540000D02*
X107230000Y-121695000D01*
X107270000Y-115312000D02*
X107270000Y-117460000D01*
X107270000Y-119540000D02*
X107270000Y-121688000D01*
X107310000Y-115318000D02*
X107310000Y-117460000D01*
X107310000Y-119540000D02*
X107310000Y-121682000D01*
X107350000Y-115326000D02*
X107350000Y-117460000D01*
X107350000Y-119540000D02*
X107350000Y-121674000D01*
X107390000Y-115333000D02*
X107390000Y-117460000D01*
X107390000Y-119540000D02*
X107390000Y-121667000D01*
X107430000Y-115341000D02*
X107430000Y-117460000D01*
X107430000Y-119540000D02*
X107430000Y-121659000D01*
X107470000Y-115350000D02*
X107470000Y-117460000D01*
X107470000Y-119540000D02*
X107470000Y-121650000D01*
X107510000Y-115360000D02*
X107510000Y-117460000D01*
X107510000Y-119540000D02*
X107510000Y-121640000D01*
X107550000Y-115369000D02*
X107550000Y-117460000D01*
X107550000Y-119540000D02*
X107550000Y-121631000D01*
X107590000Y-115380000D02*
X107590000Y-117460000D01*
X107590000Y-119540000D02*
X107590000Y-121620000D01*
X107630000Y-115391000D02*
X107630000Y-117460000D01*
X107630000Y-119540000D02*
X107630000Y-121609000D01*
X107670000Y-115402000D02*
X107670000Y-117460000D01*
X107670000Y-119540000D02*
X107670000Y-121598000D01*
X107710000Y-115414000D02*
X107710000Y-117460000D01*
X107710000Y-119540000D02*
X107710000Y-121586000D01*
X107750000Y-115427000D02*
X107750000Y-117460000D01*
X107750000Y-119540000D02*
X107750000Y-121573000D01*
X107790000Y-115440000D02*
X107790000Y-117460000D01*
X107790000Y-119540000D02*
X107790000Y-121560000D01*
X107830000Y-115453000D02*
X107830000Y-117460000D01*
X107830000Y-119540000D02*
X107830000Y-121547000D01*
X107870000Y-115468000D02*
X107870000Y-117460000D01*
X107870000Y-119540000D02*
X107870000Y-121532000D01*
X107910000Y-115483000D02*
X107910000Y-117460000D01*
X107910000Y-119540000D02*
X107910000Y-121517000D01*
X107950000Y-115498000D02*
X107950000Y-117460000D01*
X107950000Y-119540000D02*
X107950000Y-121502000D01*
X107990000Y-115514000D02*
X107990000Y-117460000D01*
X107990000Y-119540000D02*
X107990000Y-121486000D01*
X108030000Y-115531000D02*
X108030000Y-117460000D01*
X108030000Y-119540000D02*
X108030000Y-121469000D01*
X108070000Y-115548000D02*
X108070000Y-117460000D01*
X108070000Y-119540000D02*
X108070000Y-121452000D01*
X108110000Y-115566000D02*
X108110000Y-117460000D01*
X108110000Y-119540000D02*
X108110000Y-121434000D01*
X108150000Y-115585000D02*
X108150000Y-117460000D01*
X108150000Y-119540000D02*
X108150000Y-121415000D01*
X108190000Y-115604000D02*
X108190000Y-117460000D01*
X108190000Y-119540000D02*
X108190000Y-121396000D01*
X108230000Y-115624000D02*
X108230000Y-117460000D01*
X108230000Y-119540000D02*
X108230000Y-121376000D01*
X108270000Y-115645000D02*
X108270000Y-117460000D01*
X108270000Y-119540000D02*
X108270000Y-121355000D01*
X108310000Y-115666000D02*
X108310000Y-117460000D01*
X108310000Y-119540000D02*
X108310000Y-121334000D01*
X108350000Y-115688000D02*
X108350000Y-117460000D01*
X108350000Y-119540000D02*
X108350000Y-121312000D01*
X108390000Y-115711000D02*
X108390000Y-117460000D01*
X108390000Y-119540000D02*
X108390000Y-121289000D01*
X108430000Y-115735000D02*
X108430000Y-117460000D01*
X108430000Y-119540000D02*
X108430000Y-121265000D01*
X108470000Y-115759000D02*
X108470000Y-117460000D01*
X108470000Y-119540000D02*
X108470000Y-121241000D01*
X108510000Y-115784000D02*
X108510000Y-117460000D01*
X108510000Y-119540000D02*
X108510000Y-121216000D01*
X108550000Y-115810000D02*
X108550000Y-117460000D01*
X108550000Y-119540000D02*
X108550000Y-121190000D01*
X108590000Y-115837000D02*
X108590000Y-117460000D01*
X108590000Y-119540000D02*
X108590000Y-121163000D01*
X108630000Y-115864000D02*
X108630000Y-117460000D01*
X108630000Y-119540000D02*
X108630000Y-121136000D01*
X108670000Y-115893000D02*
X108670000Y-117460000D01*
X108670000Y-119540000D02*
X108670000Y-121107000D01*
X108710000Y-115923000D02*
X108710000Y-117460000D01*
X108710000Y-119540000D02*
X108710000Y-121077000D01*
X108750000Y-115953000D02*
X108750000Y-117460000D01*
X108750000Y-119540000D02*
X108750000Y-121047000D01*
X108790000Y-115984000D02*
X108790000Y-117460000D01*
X108790000Y-119540000D02*
X108790000Y-121016000D01*
X108830000Y-116017000D02*
X108830000Y-117460000D01*
X108830000Y-119540000D02*
X108830000Y-120983000D01*
X108870000Y-116050000D02*
X108870000Y-117460000D01*
X108870000Y-119540000D02*
X108870000Y-120950000D01*
X108910000Y-116085000D02*
X108910000Y-117460000D01*
X108910000Y-119540000D02*
X108910000Y-120915000D01*
X108950000Y-116121000D02*
X108950000Y-117460000D01*
X108950000Y-119540000D02*
X108950000Y-120879000D01*
X108990000Y-116158000D02*
X108990000Y-117460000D01*
X108990000Y-119540000D02*
X108990000Y-120842000D01*
X109030000Y-116196000D02*
X109030000Y-117460000D01*
X109030000Y-119540000D02*
X109030000Y-120804000D01*
X109070000Y-116236000D02*
X109070000Y-120764000D01*
X109110000Y-116277000D02*
X109110000Y-120723000D01*
X109150000Y-116319000D02*
X109150000Y-120681000D01*
X109190000Y-116363000D02*
X109190000Y-120637000D01*
X109230000Y-116409000D02*
X109230000Y-120591000D01*
X109270000Y-116456000D02*
X109270000Y-120544000D01*
X109310000Y-116505000D02*
X109310000Y-120495000D01*
X109350000Y-116557000D02*
X109350000Y-120443000D01*
X109390000Y-116610000D02*
X109390000Y-120390000D01*
X109430000Y-116666000D02*
X109430000Y-120334000D01*
X109470000Y-116725000D02*
X109470000Y-120275000D01*
X109510000Y-116786000D02*
X109510000Y-120214000D01*
X109550000Y-116851000D02*
X109550000Y-120149000D01*
X109590000Y-116919000D02*
X109590000Y-120081000D01*
X109630000Y-116991000D02*
X109630000Y-120009000D01*
X109670000Y-117068000D02*
X109670000Y-119932000D01*
X109710000Y-117150000D02*
X109710000Y-119850000D01*
X109750000Y-117239000D02*
X109750000Y-119761000D01*
X109790000Y-117335000D02*
X109790000Y-119665000D01*
X109830000Y-117442000D02*
X109830000Y-119558000D01*
X109870000Y-117561000D02*
X109870000Y-119439000D01*
X109910000Y-117699000D02*
X109910000Y-119301000D01*
X109950000Y-117867000D02*
X109950000Y-119133000D01*
X109990000Y-118098000D02*
X109990000Y-118902000D01*
X110020000Y-118500000D02*
G75*
G02*
X103480000Y-118500000I-3270000J0D01*
G01*
X103480000Y-118500000D02*
G75*
G02*
X110020000Y-118500000I3270000J0D01*
G01*
%TO.C,Q3*%
X175850000Y-129140000D02*
X186070000Y-129140000D01*
X175850000Y-133760000D02*
X175850000Y-129140000D01*
X179110000Y-133760000D02*
X179110000Y-132380000D01*
X182810000Y-133760000D02*
X182810000Y-132380000D01*
X186070000Y-129140000D02*
X186070000Y-133760000D01*
X186070000Y-132380000D02*
X175850000Y-132380000D01*
X186070000Y-133760000D02*
X175850000Y-133760000D01*
%TO.C,R7*%
X183500000Y-125700000D02*
X183500000Y-126320000D01*
X184420000Y-124780000D02*
G75*
G02*
X182580000Y-124780000I-920000J0D01*
G01*
X182580000Y-124780000D02*
G75*
G02*
X184420000Y-124780000I920000J0D01*
G01*
%TD*%
M02*
