%TF.GenerationSoftware,KiCad,Pcbnew,10.0.3*%
%TF.CreationDate,2026-07-15T10:16:39+09:00*%
%TF.ProjectId,PET_project,5045545f-7072-46f6-9a65-63742e6b6963,rev?*%
%TF.SameCoordinates,Original*%
%TF.FileFunction,Copper,L2,Bot*%
%TF.FilePolarity,Positive*%
%FSLAX46Y46*%
G04 Gerber Fmt 4.6, Leading zero omitted, Abs format (unit mm)*
G04 Created by KiCad (PCBNEW 10.0.3) date 2026-07-15 10:16:39*
%MOMM*%
%LPD*%
G01*
G04 APERTURE LIST*
G04 Aperture macros list*
%AMRoundRect*
0 Rectangle with rounded corners*
0 $1 Rounding radius*
0 $2 $3 $4 $5 $6 $7 $8 $9 X,Y pos of 4 corners*
0 Add a 4 corners polygon primitive as box body*
4,1,4,$2,$3,$4,$5,$6,$7,$8,$9,$2,$3,0*
0 Add four circle primitives for the rounded corners*
1,1,$1+$1,$2,$3*
1,1,$1+$1,$4,$5*
1,1,$1+$1,$6,$7*
1,1,$1+$1,$8,$9*
0 Add four rect primitives between the rounded corners*
20,1,$1+$1,$2,$3,$4,$5,0*
20,1,$1+$1,$4,$5,$6,$7,0*
20,1,$1+$1,$6,$7,$8,$9,0*
20,1,$1+$1,$8,$9,$2,$3,0*%
G04 Aperture macros list end*
%TA.AperFunction,ComponentPad*%
%ADD10C,1.800000*%
%TD*%
%TA.AperFunction,ComponentPad*%
%ADD11RoundRect,0.250000X0.350000X0.625000X-0.350000X0.625000X-0.350000X-0.625000X0.350000X-0.625000X0*%
%TD*%
%TA.AperFunction,ComponentPad*%
%ADD12O,1.200000X1.750000*%
%TD*%
%TA.AperFunction,ComponentPad*%
%ADD13R,2.000000X1.905000*%
%TD*%
%TA.AperFunction,ComponentPad*%
%ADD14O,2.000000X1.905000*%
%TD*%
%TA.AperFunction,ComponentPad*%
%ADD15RoundRect,0.250000X-0.550000X-0.550000X0.550000X-0.550000X0.550000X0.550000X-0.550000X0.550000X0*%
%TD*%
%TA.AperFunction,ComponentPad*%
%ADD16C,1.600000*%
%TD*%
%TA.AperFunction,ComponentPad*%
%ADD17RoundRect,0.250000X0.600000X0.750000X-0.600000X0.750000X-0.600000X-0.750000X0.600000X-0.750000X0*%
%TD*%
%TA.AperFunction,ComponentPad*%
%ADD18O,1.700000X2.000000*%
%TD*%
%TA.AperFunction,ComponentPad*%
%ADD19C,1.700000*%
%TD*%
%TA.AperFunction,ComponentPad*%
%ADD20C,1.400000*%
%TD*%
%TA.AperFunction,ComponentPad*%
%ADD21R,1.905000X2.000000*%
%TD*%
%TA.AperFunction,ComponentPad*%
%ADD22O,1.905000X2.000000*%
%TD*%
%TA.AperFunction,ComponentPad*%
%ADD23RoundRect,0.250000X-1.050000X1.050000X-1.050000X-1.050000X1.050000X-1.050000X1.050000X1.050000X0*%
%TD*%
%TA.AperFunction,ComponentPad*%
%ADD24C,2.600000*%
%TD*%
%TA.AperFunction,ComponentPad*%
%ADD25RoundRect,0.250000X1.050000X1.050000X-1.050000X1.050000X-1.050000X-1.050000X1.050000X-1.050000X0*%
%TD*%
%TA.AperFunction,ViaPad*%
%ADD26C,0.600000*%
%TD*%
%TA.AperFunction,Conductor*%
%ADD27C,0.200000*%
%TD*%
%TA.AperFunction,Conductor*%
%ADD28C,0.500000*%
%TD*%
%TA.AperFunction,Conductor*%
%ADD29C,1.000000*%
%TD*%
G04 APERTURE END LIST*
D10*
%TO.P,U7,14,VBUS_14*%
%TO.N,+5V*%
X165000000Y-104880000D03*
%TO.P,U7,13,GND_13*%
%TO.N,GND*%
X165000000Y-107420000D03*
%TO.P,U7,12,3.3VOUT_12*%
%TO.N,+3V8*%
X165000000Y-109960000D03*
%TO.P,U7,11*%
%TO.N,/SPI_MOSI*%
X165000000Y-112500000D03*
%TO.P,U7,10*%
%TO.N,/SPI_MISO*%
X165000000Y-115040000D03*
%TO.P,U7,9*%
%TO.N,/SPI_SCK*%
X165000000Y-117580000D03*
%TO.P,U7,8*%
%TO.N,/SPI_CS*%
X165000000Y-120120000D03*
%TO.P,U7,7*%
%TO.N,Net-(U2-PWMB)*%
X149760000Y-120120000D03*
%TO.P,U7,6*%
%TO.N,Net-(U2-BIN2)*%
X149760000Y-117580000D03*
%TO.P,U7,5*%
%TO.N,Net-(U2-BIN1)*%
X149760000Y-115040000D03*
%TO.P,U7,4*%
%TO.N,Net-(U2-STBY)*%
X149760000Y-112500000D03*
%TO.P,U7,3*%
%TO.N,Net-(U2-AIN1)*%
X149760000Y-109960000D03*
%TO.P,U7,2*%
%TO.N,Net-(U2-AIN2)*%
X149760000Y-107420000D03*
%TO.P,U7,1*%
%TO.N,Net-(U2-PWMA)*%
X149760000Y-104880000D03*
%TD*%
%TO.P,J5,1,Pin_1_1*%
%TO.N,+3V3*%
X172500000Y-133690000D03*
%TO.P,J5,2,Pin_2_2*%
%TO.N,/UART_RX*%
X172500000Y-136230000D03*
%TO.P,J5,3,Pin_3_3*%
%TO.N,/UART_TX*%
X172500000Y-138770000D03*
%TO.P,J5,4,Pin_4_4*%
%TO.N,GND*%
X172500000Y-141310000D03*
%TD*%
%TO.P,U2,1,VM_1*%
%TO.N,+6V*%
X129250000Y-104610000D03*
%TO.P,U2,2,VCC_2*%
%TO.N,+3V8*%
X129250000Y-107150000D03*
%TO.P,U2,3,GND_3*%
%TO.N,GND*%
X129250000Y-109690000D03*
%TO.P,U2,4,AO1_4*%
%TO.N,Net-(J1-Pin_1)*%
X129250000Y-112230000D03*
%TO.P,U2,5,AO2_5*%
%TO.N,Net-(J1-Pin_2)*%
X129250000Y-114770000D03*
%TO.P,U2,6,BO2_6*%
%TO.N,Net-(J4-Pin_1)*%
X129250000Y-117310000D03*
%TO.P,U2,7,BO1_7*%
%TO.N,Net-(J4-Pin_2)*%
X129250000Y-119850000D03*
%TO.P,U2,8,GND_8*%
%TO.N,GND*%
X129250000Y-122390000D03*
%TO.P,U2,9,GND_9*%
X145750000Y-122390000D03*
%TO.P,U2,10,PWMB_10*%
%TO.N,Net-(U2-PWMB)*%
X145750000Y-119850000D03*
%TO.P,U2,11,BIN2_11*%
%TO.N,Net-(U2-BIN2)*%
X145750000Y-117310000D03*
%TO.P,U2,12,BIN1_12*%
%TO.N,Net-(U2-BIN1)*%
X145750000Y-114770000D03*
%TO.P,U2,13,STBY_13*%
%TO.N,Net-(U2-STBY)*%
X145750000Y-112230000D03*
%TO.P,U2,14,AIN1_14*%
%TO.N,Net-(U2-AIN1)*%
X145750000Y-109690000D03*
%TO.P,U2,15,AIN2_15*%
%TO.N,Net-(U2-AIN2)*%
X145750000Y-107150000D03*
%TO.P,U2,16,PWMA_16*%
%TO.N,Net-(U2-PWMA)*%
X145750000Y-104610000D03*
%TD*%
D11*
%TO.P,J8,1,Pin_1_1*%
%TO.N,+6V*%
X192000000Y-110500000D03*
D12*
%TO.P,J8,2,Pin_2_2*%
%TO.N,GND*%
X190000000Y-110500000D03*
%TD*%
D13*
%TO.P,Q2,1,D_1*%
%TO.N,Net-(J2-Pin_1)*%
X194550000Y-129172500D03*
D14*
%TO.P,Q2,2,G_2*%
%TO.N,Net-(Q2-G)*%
X194550000Y-131712500D03*
%TO.P,Q2,3,S_3*%
%TO.N,GND*%
X194550000Y-134252500D03*
%TD*%
D15*
%TO.P,C1,1*%
%TO.N,+6V*%
X197000000Y-109550000D03*
D16*
%TO.P,C1,2*%
%TO.N,GND*%
X202000000Y-109550000D03*
%TD*%
D17*
%TO.P,J4,1,Pin_1_1*%
%TO.N,Net-(J4-Pin_1)*%
X114750000Y-110445000D03*
D18*
%TO.P,J4,2,Pin_2_2*%
%TO.N,Net-(J4-Pin_2)*%
X112250000Y-110445000D03*
%TD*%
D16*
%TO.P,C2,1*%
%TO.N,+5V*%
X194000000Y-120050000D03*
%TO.P,C2,2*%
%TO.N,GND*%
X194000000Y-122050000D03*
%TD*%
D19*
%TO.P,J7,1,Pin_1_1*%
%TO.N,+3V3*%
X132000000Y-128380000D03*
%TO.P,J7,2,Pin_2_2*%
%TO.N,GND*%
X132000000Y-130920000D03*
%TO.P,J7,3,Pin_3_3*%
%TO.N,/I2C1_SCL*%
X132000000Y-133460000D03*
%TO.P,J7,4,Pin_4_4*%
%TO.N,/I2C1_SDA*%
X132000000Y-136000000D03*
%TO.P,J7,5,Pin_5_5*%
%TO.N,unconnected-(J7-Pin_5-Pad5)*%
X132000000Y-138540000D03*
%TO.P,J7,6,Pin_6_6*%
%TO.N,unconnected-(J7-Pin_6-Pad6)*%
X132000000Y-141080000D03*
%TO.P,J7,7,Pin_7_7*%
%TO.N,unconnected-(J7-Pin_7-Pad7)*%
X132000000Y-143620000D03*
%TO.P,J7,8,Pin_8_8*%
%TO.N,unconnected-(J7-Pin_8-Pad8)*%
X132000000Y-146160000D03*
%TD*%
D20*
%TO.P,R4,1*%
%TO.N,Net-(Q2-G)*%
X191050000Y-130952500D03*
%TO.P,R4,2*%
%TO.N,GND*%
X191050000Y-133492500D03*
%TD*%
D21*
%TO.P,U8,1,ADJ_1*%
%TO.N,GND*%
X189500000Y-116050000D03*
D22*
%TO.P,U8,2,VO_2*%
%TO.N,+5V*%
X192040000Y-116050000D03*
%TO.P,U8,3,VI_3*%
%TO.N,+6V*%
X194580000Y-116050000D03*
%TD*%
D10*
%TO.P,U1,1*%
%TO.N,/SPI_CS*%
X168607250Y-103760000D03*
%TO.P,U1,2*%
%TO.N,/nichrome1*%
X168607250Y-106300000D03*
%TO.P,U1,3*%
%TO.N,unconnected-(U1-Pad3)*%
X168607250Y-108840000D03*
%TO.P,U1,4*%
%TO.N,/nichrome2*%
X168607250Y-111380000D03*
%TO.P,U1,5*%
%TO.N,/I2C1_SDA*%
X168607250Y-113920000D03*
%TO.P,U1,6*%
%TO.N,/I2C1_SCL*%
X168607250Y-116460000D03*
%TO.P,U1,7*%
%TO.N,/UART_RX*%
X168607250Y-119000000D03*
%TO.P,U1,8*%
%TO.N,/UART_TX*%
X183847250Y-119000000D03*
%TO.P,U1,9*%
%TO.N,/SPI_SCK*%
X183847250Y-116460000D03*
%TO.P,U1,10*%
%TO.N,/SPI_MISO*%
X183847250Y-113920000D03*
%TO.P,U1,11*%
%TO.N,/SPI_MOSI*%
X183847250Y-111380000D03*
%TO.P,U1,12,3.3VOUT_12*%
%TO.N,+3V3*%
X183847250Y-108840000D03*
%TO.P,U1,13,GND_13*%
%TO.N,GND*%
X183847250Y-106300000D03*
%TO.P,U1,14,VBUS_14*%
%TO.N,+5V*%
X183847250Y-103760000D03*
%TD*%
D17*
%TO.P,J1,1,Pin_1_1*%
%TO.N,Net-(J1-Pin_1)*%
X123750000Y-110445000D03*
D18*
%TO.P,J1,2,Pin_2_2*%
%TO.N,Net-(J1-Pin_2)*%
X121250000Y-110445000D03*
%TD*%
D23*
%TO.P,J3,1,Pin_1_1*%
%TO.N,Net-(J3-Pin_1)*%
X183460000Y-137870000D03*
D24*
%TO.P,J3,2,Pin_2_2*%
%TO.N,GND*%
X183460000Y-142950000D03*
%TD*%
D20*
%TO.P,R5,1*%
%TO.N,Net-(Q3-G)*%
X180720000Y-127500000D03*
%TO.P,R5,2*%
%TO.N,GND*%
X178180000Y-127500000D03*
%TD*%
%TO.P,R3,1*%
%TO.N,/nichrome1*%
X188780000Y-128172500D03*
%TO.P,R3,2*%
%TO.N,Net-(Q2-G)*%
X191320000Y-128172500D03*
%TD*%
D25*
%TO.P,J2,1,Pin_1_1*%
%TO.N,Net-(J2-Pin_1)*%
X206500000Y-126500000D03*
D24*
%TO.P,J2,2,Pin_2_2*%
%TO.N,GND*%
X201420000Y-126500000D03*
%TD*%
D19*
%TO.P,J6,1,Pin_1_1*%
%TO.N,unconnected-(J6-Pin_1-Pad1)*%
X119000000Y-125800000D03*
%TO.P,J6,2,Pin_2_2*%
%TO.N,unconnected-(J6-Pin_2-Pad2)*%
X119000000Y-128340000D03*
%TO.P,J6,3,Pin_3_3*%
%TO.N,unconnected-(J6-Pin_3-Pad3)*%
X119000000Y-130880000D03*
%TO.P,J6,4,Pin_4_4*%
%TO.N,unconnected-(J6-Pin_4-Pad4)*%
X119000000Y-133420000D03*
%TO.P,J6,5,Pin_5_5*%
%TO.N,unconnected-(J6-Pin_5-Pad5)*%
X119000000Y-135960000D03*
%TO.P,J6,6,Pin_6_6*%
%TO.N,/I2C1_SDA*%
X119000000Y-138500000D03*
%TO.P,J6,7,Pin_7_7*%
%TO.N,/I2C1_SCL*%
X119000000Y-141040000D03*
%TO.P,J6,8,Pin_8_8*%
%TO.N,GND*%
X119000000Y-143580000D03*
%TO.P,J6,9,Pin_9_9*%
%TO.N,+3V3*%
X119000000Y-146120000D03*
%TD*%
%TO.P,J9,1,Pin_1_1*%
%TO.N,+3V3*%
X109000000Y-127340000D03*
%TO.P,J9,2,Pin_2_2*%
%TO.N,GND*%
X109000000Y-129880000D03*
%TO.P,J9,3,Pin_3_3*%
%TO.N,/I2C1_SCL*%
X109000000Y-132420000D03*
%TO.P,J9,4,Pin_4_4*%
%TO.N,/I2C1_SDA*%
X109000000Y-134960000D03*
%TO.P,J9,5,Pin_5_5*%
%TO.N,unconnected-(J9-Pin_5-Pad5)*%
X109000000Y-137500000D03*
%TO.P,J9,6,Pin_6_6*%
%TO.N,unconnected-(J9-Pin_6-Pad6)*%
X109000000Y-140040000D03*
%TD*%
D15*
%TO.P,C3,1*%
%TO.N,GND*%
X105500000Y-118500000D03*
D16*
%TO.P,C3,2*%
%TO.N,+6V*%
X108000000Y-118500000D03*
%TD*%
D21*
%TO.P,Q3,1,D_1*%
%TO.N,Net-(J3-Pin_1)*%
X183500000Y-130500000D03*
D22*
%TO.P,Q3,2,G_2*%
%TO.N,Net-(Q3-G)*%
X180960000Y-130500000D03*
%TO.P,Q3,3,S_3*%
%TO.N,GND*%
X178420000Y-130500000D03*
%TD*%
D20*
%TO.P,R7,1*%
%TO.N,/nichrome2*%
X183500000Y-124780000D03*
%TO.P,R7,2*%
%TO.N,Net-(Q3-G)*%
X183500000Y-127320000D03*
%TD*%
D26*
%TO.N,GND*%
X174000000Y-130500000D03*
X174000000Y-125000000D03*
X175000000Y-127000000D03*
X170000000Y-130000000D03*
X170500000Y-126000000D03*
X141500000Y-130000000D03*
X141500000Y-130500000D03*
X140000000Y-132500000D03*
X140000000Y-134000000D03*
X142000000Y-136000000D03*
X140500000Y-140000000D03*
X142000000Y-142500000D03*
X141000000Y-148000000D03*
X169000000Y-147000000D03*
X168500000Y-139000000D03*
X169000000Y-137000000D03*
X170500000Y-147500000D03*
X170000000Y-147000000D03*
X170000000Y-144000000D03*
X173000000Y-146000000D03*
X175000000Y-121000000D03*
X179000000Y-120000000D03*
X180000000Y-118500000D03*
X177500000Y-119000000D03*
X171000000Y-119000000D03*
X172500000Y-116500000D03*
X180000000Y-116500000D03*
X181000000Y-114500000D03*
X175500000Y-113500000D03*
X172000000Y-114000000D03*
X172500000Y-111500000D03*
X172000000Y-109000000D03*
X177500000Y-108500000D03*
X178000000Y-105500000D03*
X175500000Y-105000000D03*
X172500000Y-105000000D03*
X124500000Y-106000000D03*
X102000000Y-113500000D03*
X199500000Y-103000000D03*
X199500000Y-131000000D03*
X194500000Y-147000000D03*
X206000000Y-134000000D03*
X105000000Y-136000000D03*
X127500000Y-134500000D03*
X115500000Y-135000000D03*
X124500000Y-127000000D03*
X109500000Y-123000000D03*
X202000000Y-115550000D03*
X181500000Y-138500000D03*
X125500000Y-144000000D03*
X199000000Y-143000000D03*
X119000000Y-105500000D03*
X123000000Y-121500000D03*
X201500000Y-139500000D03*
X105000000Y-127500000D03*
X187000000Y-137500000D03*
X116000000Y-142500000D03*
X103500000Y-127500000D03*
X188000000Y-148000000D03*
X116000000Y-118000000D03*
X181000000Y-147500000D03*
X190500000Y-122500000D03*
X134500000Y-116500000D03*
X203500000Y-126000000D03*
X188500000Y-124000000D03*
X205500000Y-113500000D03*
X143000000Y-105500000D03*
X206000000Y-135500000D03*
X204500000Y-124500000D03*
X125500000Y-118000000D03*
X136000000Y-109000000D03*
X102000000Y-115000000D03*
X113500000Y-116500000D03*
X186500000Y-142500000D03*
X136500000Y-138000000D03*
X195500000Y-102000000D03*
X205000000Y-118500000D03*
X110500000Y-106500000D03*
X117500000Y-107500000D03*
X185500000Y-145500000D03*
X193500000Y-138500000D03*
X136000000Y-146500000D03*
X197000000Y-106000000D03*
X105000000Y-110000000D03*
X112000000Y-146000000D03*
X112000000Y-103000000D03*
X128000000Y-142000000D03*
X190000000Y-144500000D03*
X191000000Y-147500000D03*
X114000000Y-119500000D03*
X133000000Y-119500000D03*
X176500000Y-146500000D03*
X117500000Y-110500000D03*
X180000000Y-142000000D03*
X200500000Y-102000000D03*
X112000000Y-137000000D03*
X116000000Y-147500000D03*
X189500000Y-104500000D03*
X194000000Y-124500000D03*
X125500000Y-146000000D03*
X198000000Y-139500000D03*
X191500000Y-106000000D03*
X206500000Y-111000000D03*
X196500000Y-104500000D03*
X120500000Y-103500000D03*
X207000000Y-116500000D03*
X112000000Y-141000000D03*
X112000000Y-121500000D03*
X133500000Y-113000000D03*
X180000000Y-133500000D03*
X194000000Y-109000000D03*
X201000000Y-124000000D03*
X195500000Y-108500000D03*
X191500000Y-143000000D03*
X134000000Y-144000000D03*
X199500000Y-105000000D03*
X197500000Y-131000000D03*
X102500000Y-137500000D03*
X114500000Y-138000000D03*
X105500000Y-139500000D03*
X202500000Y-134000000D03*
X137000000Y-121500000D03*
X199000000Y-110500000D03*
X176000000Y-124500000D03*
X112000000Y-118500000D03*
X185500000Y-137500000D03*
X197500000Y-112000000D03*
X116500000Y-106000000D03*
X187000000Y-139500000D03*
X189000000Y-121500000D03*
X193500000Y-141000000D03*
X128500000Y-132000000D03*
X175500000Y-142000000D03*
X120000000Y-106500000D03*
X136500000Y-116000000D03*
X190500000Y-124500000D03*
X193000000Y-107000000D03*
X176500000Y-139000000D03*
X103500000Y-132500000D03*
X204000000Y-142000000D03*
X199500000Y-117050000D03*
X120500000Y-117500000D03*
X110000000Y-145000000D03*
X104000000Y-125000000D03*
X136500000Y-142000000D03*
X200000000Y-108000000D03*
X181000000Y-136500000D03*
X197000000Y-127500000D03*
X203500000Y-113000000D03*
X112500000Y-116000000D03*
X195500000Y-112000000D03*
X104500000Y-113000000D03*
X123000000Y-115500000D03*
X141500000Y-117500000D03*
X191000000Y-101500000D03*
X104000000Y-111500000D03*
X102000000Y-110500000D03*
X111000000Y-104000000D03*
X126500000Y-127000000D03*
X205500000Y-123500000D03*
X105000000Y-131000000D03*
X123000000Y-118500000D03*
X197000000Y-145500000D03*
X138500000Y-106000000D03*
X206500000Y-129500000D03*
X116500000Y-144500000D03*
X132500000Y-107500000D03*
X114500000Y-101500000D03*
X181000000Y-144500000D03*
X206500000Y-123500000D03*
X124000000Y-131000000D03*
X138000000Y-118500000D03*
X123000000Y-104500000D03*
X184500000Y-147500000D03*
X102000000Y-122500000D03*
X201000000Y-130500000D03*
X143500000Y-116500000D03*
X191500000Y-136500000D03*
X202500000Y-131500000D03*
X140000000Y-120000000D03*
X113500000Y-103500000D03*
X138000000Y-113500000D03*
X185000000Y-140500000D03*
X125000000Y-103500000D03*
X142500000Y-120500000D03*
X203000000Y-123000000D03*
X123000000Y-146500000D03*
X191500000Y-139500000D03*
X108500000Y-102500000D03*
X206500000Y-130500000D03*
X177000000Y-123000000D03*
X125000000Y-128500000D03*
X102000000Y-118500000D03*
X117500000Y-120500000D03*
X114000000Y-134500000D03*
X141000000Y-109000000D03*
%TO.N,/I2C1_SCL*%
X136500000Y-125500000D03*
%TO.N,/I2C1_SDA*%
X136500000Y-124500000D03*
%TD*%
%TO.N,/I2C1_SDA*%
D27*
X148506346Y-123000000D02*
X147006346Y-124500000D01*
X164500000Y-123000000D02*
X148506346Y-123000000D01*
X166500000Y-121000000D02*
X164500000Y-123000000D01*
X166500000Y-116027250D02*
X166500000Y-121000000D01*
X168607250Y-113920000D02*
X166500000Y-116027250D01*
X147006346Y-124500000D02*
X136500000Y-124500000D01*
%TO.N,/I2C1_SCL*%
X167457250Y-123042750D02*
X165000000Y-125500000D01*
X167457250Y-117610000D02*
X167457250Y-123042750D01*
X168607250Y-116460000D02*
X167457250Y-117610000D01*
X165000000Y-125500000D02*
X136500000Y-125500000D01*
%TO.N,+3V3*%
D28*
X172500000Y-133690000D02*
X172500000Y-120187250D01*
%TO.N,GND*%
D29*
X190000000Y-110500000D02*
X188500000Y-109000000D01*
%TO.N,+5V*%
X185397250Y-107940017D02*
X185397250Y-105310000D01*
X192040000Y-114582767D02*
X185397250Y-107940017D01*
X185397250Y-108694750D02*
X185397250Y-105657968D01*
X167670000Y-102210000D02*
X165000000Y-104880000D01*
X192040000Y-115337500D02*
X185397250Y-108694750D01*
X185397250Y-105657968D02*
X181949282Y-102210000D01*
X192040000Y-116050000D02*
X192040000Y-114582767D01*
X192040000Y-116050000D02*
X192040000Y-115337500D01*
X181949282Y-102210000D02*
X167670000Y-102210000D01*
X185397250Y-105310000D02*
X183847250Y-103760000D01*
%TO.N,+3V3*%
D28*
X172500000Y-120187250D02*
X183847250Y-108840000D01*
X136500000Y-127000000D02*
X133380000Y-127000000D01*
X127870000Y-137250000D02*
X119000000Y-146120000D01*
X136500000Y-127000000D02*
X136500000Y-133267767D01*
X111790000Y-124550000D02*
X109000000Y-127340000D01*
X136500000Y-127000000D02*
X134050000Y-124550000D01*
X134050000Y-124550000D02*
X111790000Y-124550000D01*
X132517767Y-137250000D02*
X127870000Y-137250000D01*
X172500000Y-120187250D02*
X165687250Y-127000000D01*
X136500000Y-133267767D02*
X132517767Y-137250000D01*
X165687250Y-127000000D02*
X136500000Y-127000000D01*
X133380000Y-127000000D02*
X132000000Y-128380000D01*
%TO.N,/UART_TX*%
D27*
X172500000Y-138770000D02*
X177217500Y-134052500D01*
X177217500Y-134052500D02*
X177217500Y-125629750D01*
X177217500Y-125629750D02*
X183847250Y-119000000D01*
%TD*%
%TA.AperFunction,Conductor*%
%TO.N,GND*%
G36*
X133754809Y-125320185D02*
G01*
X133775451Y-125336819D01*
X134476451Y-126037819D01*
X134509936Y-126099142D01*
X134504952Y-126168834D01*
X134463080Y-126224767D01*
X134397616Y-126249184D01*
X134388770Y-126249500D01*
X133306076Y-126249500D01*
X133277242Y-126255234D01*
X133277243Y-126255235D01*
X133161092Y-126278339D01*
X133161086Y-126278341D01*
X133087238Y-126308930D01*
X133087211Y-126308942D01*
X133084909Y-126309896D01*
X133024505Y-126334916D01*
X133017645Y-126339500D01*
X133009619Y-126344862D01*
X133009616Y-126344864D01*
X132901582Y-126417049D01*
X132308807Y-127009824D01*
X132247484Y-127043309D01*
X132201728Y-127044616D01*
X132106292Y-127029500D01*
X132106287Y-127029500D01*
X131893713Y-127029500D01*
X131845042Y-127037208D01*
X131683760Y-127062753D01*
X131481585Y-127128444D01*
X131292179Y-127224951D01*
X131120213Y-127349890D01*
X130969890Y-127500213D01*
X130844951Y-127672179D01*
X130748444Y-127861585D01*
X130682753Y-128063760D01*
X130658041Y-128219786D01*
X130649500Y-128273713D01*
X130649500Y-128486287D01*
X130654919Y-128520500D01*
X130676418Y-128656243D01*
X130682754Y-128696243D01*
X130717379Y-128802808D01*
X130748444Y-128898414D01*
X130844951Y-129087820D01*
X130969890Y-129259786D01*
X131120213Y-129410109D01*
X131292179Y-129535048D01*
X131292181Y-129535049D01*
X131292184Y-129535051D01*
X131301493Y-129539794D01*
X131352290Y-129587766D01*
X131369087Y-129655587D01*
X131346552Y-129721722D01*
X131301505Y-129760760D01*
X131292446Y-129765376D01*
X131292440Y-129765380D01*
X131238282Y-129804727D01*
X131238282Y-129804728D01*
X131870591Y-130437037D01*
X131807007Y-130454075D01*
X131692993Y-130519901D01*
X131599901Y-130612993D01*
X131534075Y-130727007D01*
X131517037Y-130790591D01*
X130884728Y-130158282D01*
X130884727Y-130158282D01*
X130845380Y-130212439D01*
X130748904Y-130401782D01*
X130683242Y-130603869D01*
X130683242Y-130603872D01*
X130650000Y-130813753D01*
X130650000Y-131026246D01*
X130683242Y-131236127D01*
X130683242Y-131236130D01*
X130748904Y-131438217D01*
X130845375Y-131627550D01*
X130884728Y-131681716D01*
X131517037Y-131049408D01*
X131534075Y-131112993D01*
X131599901Y-131227007D01*
X131692993Y-131320099D01*
X131807007Y-131385925D01*
X131870590Y-131402962D01*
X131238282Y-132035269D01*
X131238282Y-132035270D01*
X131292452Y-132074626D01*
X131292451Y-132074626D01*
X131301495Y-132079234D01*
X131352292Y-132127208D01*
X131369087Y-132195029D01*
X131346550Y-132261164D01*
X131301499Y-132300202D01*
X131292182Y-132304949D01*
X131120213Y-132429890D01*
X130969890Y-132580213D01*
X130844951Y-132752179D01*
X130748444Y-132941585D01*
X130682753Y-133143760D01*
X130649500Y-133353713D01*
X130649500Y-133566286D01*
X130680410Y-133761447D01*
X130682754Y-133776243D01*
X130732677Y-133929890D01*
X130748444Y-133978414D01*
X130844951Y-134167820D01*
X130969890Y-134339786D01*
X131120213Y-134490109D01*
X131292182Y-134615050D01*
X131300946Y-134619516D01*
X131351742Y-134667491D01*
X131368536Y-134735312D01*
X131345998Y-134801447D01*
X131300946Y-134840484D01*
X131292182Y-134844949D01*
X131120213Y-134969890D01*
X130969890Y-135120213D01*
X130844951Y-135292179D01*
X130748444Y-135481585D01*
X130682753Y-135683760D01*
X130649500Y-135893713D01*
X130649500Y-136106286D01*
X130680410Y-136301447D01*
X130682754Y-136316243D01*
X130689558Y-136337183D01*
X130691553Y-136407022D01*
X130655473Y-136466855D01*
X130592772Y-136497684D01*
X130571627Y-136499500D01*
X127796080Y-136499500D01*
X127651092Y-136528340D01*
X127651082Y-136528343D01*
X127514511Y-136584912D01*
X127514498Y-136584919D01*
X127391584Y-136667048D01*
X127391580Y-136667051D01*
X120554197Y-143504432D01*
X120492874Y-143537917D01*
X120423182Y-143532933D01*
X120367249Y-143491061D01*
X120344043Y-143436148D01*
X120316758Y-143263874D01*
X120316757Y-143263869D01*
X120251095Y-143061782D01*
X120154624Y-142872449D01*
X120115270Y-142818282D01*
X120115269Y-142818282D01*
X119482962Y-143450590D01*
X119465925Y-143387007D01*
X119400099Y-143272993D01*
X119307007Y-143179901D01*
X119192993Y-143114075D01*
X119129409Y-143097037D01*
X119761716Y-142464728D01*
X119707547Y-142425373D01*
X119707547Y-142425372D01*
X119698500Y-142420763D01*
X119647706Y-142372788D01*
X119630912Y-142304966D01*
X119653451Y-142238832D01*
X119698508Y-142199793D01*
X119707816Y-142195051D01*
X119787007Y-142137515D01*
X119879786Y-142070109D01*
X119879788Y-142070106D01*
X119879792Y-142070104D01*
X120030104Y-141919792D01*
X120030106Y-141919788D01*
X120030109Y-141919786D01*
X120155048Y-141747820D01*
X120155047Y-141747820D01*
X120155051Y-141747816D01*
X120251557Y-141558412D01*
X120317246Y-141356243D01*
X120350500Y-141146287D01*
X120350500Y-140933713D01*
X120317246Y-140723757D01*
X120251557Y-140521588D01*
X120155051Y-140332184D01*
X120155049Y-140332181D01*
X120155048Y-140332179D01*
X120030109Y-140160213D01*
X119879786Y-140009890D01*
X119707820Y-139884951D01*
X119707115Y-139884591D01*
X119699054Y-139880485D01*
X119648259Y-139832512D01*
X119631463Y-139764692D01*
X119653999Y-139698556D01*
X119699054Y-139659515D01*
X119707816Y-139655051D01*
X119776965Y-139604812D01*
X119879786Y-139530109D01*
X119879788Y-139530106D01*
X119879792Y-139530104D01*
X120030104Y-139379792D01*
X120030106Y-139379788D01*
X120030109Y-139379786D01*
X120155048Y-139207820D01*
X120155047Y-139207820D01*
X120155051Y-139207816D01*
X120251557Y-139018412D01*
X120317246Y-138816243D01*
X120350500Y-138606287D01*
X120350500Y-138393713D01*
X120317246Y-138183757D01*
X120251557Y-137981588D01*
X120155051Y-137792184D01*
X120155049Y-137792181D01*
X120155048Y-137792179D01*
X120030109Y-137620213D01*
X119879786Y-137469890D01*
X119707820Y-137344951D01*
X119707115Y-137344591D01*
X119699054Y-137340485D01*
X119648259Y-137292512D01*
X119631463Y-137224692D01*
X119653999Y-137158556D01*
X119699054Y-137119515D01*
X119707816Y-137115051D01*
X119729789Y-137099086D01*
X119879786Y-136990109D01*
X119879788Y-136990106D01*
X119879792Y-136990104D01*
X120030104Y-136839792D01*
X120030106Y-136839788D01*
X120030109Y-136839786D01*
X120155048Y-136667820D01*
X120155047Y-136667820D01*
X120155051Y-136667816D01*
X120251557Y-136478412D01*
X120317246Y-136276243D01*
X120350500Y-136066287D01*
X120350500Y-135853713D01*
X120317246Y-135643757D01*
X120251557Y-135441588D01*
X120155051Y-135252184D01*
X120155049Y-135252181D01*
X120155048Y-135252179D01*
X120030109Y-135080213D01*
X119879786Y-134929890D01*
X119707820Y-134804951D01*
X119707115Y-134804591D01*
X119699054Y-134800485D01*
X119648259Y-134752512D01*
X119631463Y-134684692D01*
X119653999Y-134618556D01*
X119699054Y-134579515D01*
X119707816Y-134575051D01*
X119785197Y-134518831D01*
X119879786Y-134450109D01*
X119879788Y-134450106D01*
X119879792Y-134450104D01*
X120030104Y-134299792D01*
X120030106Y-134299788D01*
X120030109Y-134299786D01*
X120155048Y-134127820D01*
X120155047Y-134127820D01*
X120155051Y-134127816D01*
X120251557Y-133938412D01*
X120317246Y-133736243D01*
X120350500Y-133526287D01*
X120350500Y-133313713D01*
X120317246Y-133103757D01*
X120251557Y-132901588D01*
X120155051Y-132712184D01*
X120155049Y-132712181D01*
X120155048Y-132712179D01*
X120030109Y-132540213D01*
X119879786Y-132389890D01*
X119707820Y-132264951D01*
X119707115Y-132264591D01*
X119699054Y-132260485D01*
X119648259Y-132212512D01*
X119631463Y-132144692D01*
X119653999Y-132078556D01*
X119699054Y-132039515D01*
X119707816Y-132035051D01*
X119755373Y-132000499D01*
X119879786Y-131910109D01*
X119879788Y-131910106D01*
X119879792Y-131910104D01*
X120030104Y-131759792D01*
X120030106Y-131759788D01*
X120030109Y-131759786D01*
X120155048Y-131587820D01*
X120155047Y-131587820D01*
X120155051Y-131587816D01*
X120251557Y-131398412D01*
X120317246Y-131196243D01*
X120350500Y-130986287D01*
X120350500Y-130773713D01*
X120317246Y-130563757D01*
X120251557Y-130361588D01*
X120155051Y-130172184D01*
X120155049Y-130172181D01*
X120155048Y-130172179D01*
X120030109Y-130000213D01*
X119879786Y-129849890D01*
X119707820Y-129724951D01*
X119707115Y-129724591D01*
X119699054Y-129720485D01*
X119648259Y-129672512D01*
X119631463Y-129604692D01*
X119653999Y-129538556D01*
X119699054Y-129499515D01*
X119707816Y-129495051D01*
X119729789Y-129479086D01*
X119879786Y-129370109D01*
X119879788Y-129370106D01*
X119879792Y-129370104D01*
X120030104Y-129219792D01*
X120030106Y-129219788D01*
X120030109Y-129219786D01*
X120155048Y-129047820D01*
X120155047Y-129047820D01*
X120155051Y-129047816D01*
X120251557Y-128858412D01*
X120317246Y-128656243D01*
X120350500Y-128446287D01*
X120350500Y-128233713D01*
X120317246Y-128023757D01*
X120251557Y-127821588D01*
X120155051Y-127632184D01*
X120155049Y-127632181D01*
X120155048Y-127632179D01*
X120030109Y-127460213D01*
X119879786Y-127309890D01*
X119707820Y-127184951D01*
X119707115Y-127184591D01*
X119699054Y-127180485D01*
X119648259Y-127132512D01*
X119631463Y-127064692D01*
X119653999Y-126998556D01*
X119699054Y-126959515D01*
X119707816Y-126955051D01*
X119823422Y-126871059D01*
X119879786Y-126830109D01*
X119879788Y-126830106D01*
X119879792Y-126830104D01*
X120030104Y-126679792D01*
X120030106Y-126679788D01*
X120030109Y-126679786D01*
X120155048Y-126507820D01*
X120155047Y-126507820D01*
X120155051Y-126507816D01*
X120251557Y-126318412D01*
X120317246Y-126116243D01*
X120350500Y-125906287D01*
X120350500Y-125693713D01*
X120317246Y-125483757D01*
X120310441Y-125462816D01*
X120308447Y-125392978D01*
X120344527Y-125333145D01*
X120407228Y-125302316D01*
X120428373Y-125300500D01*
X133687770Y-125300500D01*
X133754809Y-125320185D01*
G37*
%TD.AperFunction*%
%TA.AperFunction,Conductor*%
G36*
X182379928Y-111471203D02*
G01*
X182435861Y-111513075D01*
X182459066Y-111567986D01*
X182463133Y-111593657D01*
X182481235Y-111707952D01*
X182549353Y-111917603D01*
X182549354Y-111917606D01*
X182649437Y-112114025D01*
X182779002Y-112292358D01*
X182779006Y-112292363D01*
X182934886Y-112448243D01*
X182934891Y-112448247D01*
X183074504Y-112549682D01*
X183117170Y-112605012D01*
X183123149Y-112674625D01*
X183090543Y-112736420D01*
X183074504Y-112750318D01*
X182934891Y-112851752D01*
X182934886Y-112851756D01*
X182779006Y-113007636D01*
X182779002Y-113007641D01*
X182649437Y-113185974D01*
X182549354Y-113382393D01*
X182549353Y-113382396D01*
X182481235Y-113592047D01*
X182446750Y-113809778D01*
X182446750Y-114030221D01*
X182481235Y-114247952D01*
X182549353Y-114457603D01*
X182549354Y-114457606D01*
X182649437Y-114654025D01*
X182779002Y-114832358D01*
X182779006Y-114832363D01*
X182934886Y-114988243D01*
X182934891Y-114988247D01*
X183074504Y-115089682D01*
X183117170Y-115145012D01*
X183123149Y-115214625D01*
X183090543Y-115276420D01*
X183074504Y-115290318D01*
X182934891Y-115391752D01*
X182934886Y-115391756D01*
X182779006Y-115547636D01*
X182779002Y-115547641D01*
X182649437Y-115725974D01*
X182549354Y-115922393D01*
X182549353Y-115922396D01*
X182481235Y-116132047D01*
X182479925Y-116140318D01*
X182446750Y-116349778D01*
X182446750Y-116570222D01*
X182460218Y-116655255D01*
X182481235Y-116787952D01*
X182549353Y-116997603D01*
X182549354Y-116997606D01*
X182649437Y-117194025D01*
X182779002Y-117372358D01*
X182779006Y-117372363D01*
X182934886Y-117528243D01*
X182934891Y-117528247D01*
X183074504Y-117629682D01*
X183117170Y-117685012D01*
X183123149Y-117754625D01*
X183090543Y-117816420D01*
X183074504Y-117830318D01*
X182934891Y-117931752D01*
X182934886Y-117931756D01*
X182779006Y-118087636D01*
X182779002Y-118087641D01*
X182649437Y-118265974D01*
X182549354Y-118462393D01*
X182549353Y-118462396D01*
X182481235Y-118672047D01*
X182446750Y-118889778D01*
X182446750Y-119110221D01*
X182475360Y-119290861D01*
X182481235Y-119327951D01*
X182500087Y-119385974D01*
X182504061Y-119398203D01*
X182506056Y-119468044D01*
X182473811Y-119524202D01*
X176851786Y-125146227D01*
X176851779Y-125146234D01*
X176848786Y-125149228D01*
X176848784Y-125149230D01*
X176736980Y-125261034D01*
X176714195Y-125300500D01*
X176657923Y-125397965D01*
X176616999Y-125550693D01*
X176616999Y-125550695D01*
X176616999Y-125718796D01*
X176617000Y-125718809D01*
X176617000Y-133752402D01*
X176597315Y-133819441D01*
X176580681Y-133840083D01*
X174112181Y-136308583D01*
X174050858Y-136342068D01*
X173981166Y-136337084D01*
X173925233Y-136295212D01*
X173900816Y-136229748D01*
X173900500Y-136220902D01*
X173900500Y-136119778D01*
X173879962Y-135990109D01*
X173866015Y-135902049D01*
X173797895Y-135692394D01*
X173797895Y-135692393D01*
X173750095Y-135598582D01*
X173697815Y-135495978D01*
X173658299Y-135441588D01*
X173568247Y-135317641D01*
X173568243Y-135317636D01*
X173412363Y-135161756D01*
X173412358Y-135161752D01*
X173272745Y-135060318D01*
X173230079Y-135004989D01*
X173224100Y-134935375D01*
X173256705Y-134873580D01*
X173272745Y-134859682D01*
X173412358Y-134758247D01*
X173412356Y-134758247D01*
X173412365Y-134758242D01*
X173568242Y-134602365D01*
X173697815Y-134424022D01*
X173797895Y-134227606D01*
X173866015Y-134017951D01*
X173900500Y-133800222D01*
X173900500Y-133579778D01*
X173866015Y-133362049D01*
X173817402Y-133212430D01*
X173797896Y-133152396D01*
X173797895Y-133152393D01*
X173734408Y-133027796D01*
X173697815Y-132955978D01*
X173658299Y-132901588D01*
X173568247Y-132777641D01*
X173568243Y-132777636D01*
X173412367Y-132621760D01*
X173412365Y-132621758D01*
X173301613Y-132541291D01*
X173258949Y-132485963D01*
X173250500Y-132440975D01*
X173250500Y-120549480D01*
X173270185Y-120482441D01*
X173286819Y-120461799D01*
X177753606Y-115995012D01*
X182248915Y-111499702D01*
X182310236Y-111466219D01*
X182379928Y-111471203D01*
G37*
%TD.AperFunction*%
%TA.AperFunction,Conductor*%
G36*
X135692539Y-127770185D02*
G01*
X135738294Y-127822989D01*
X135749500Y-127874500D01*
X135749500Y-132905536D01*
X135729815Y-132972575D01*
X135713181Y-132993217D01*
X133363211Y-135343186D01*
X133301888Y-135376671D01*
X133232196Y-135371687D01*
X133176263Y-135329815D01*
X133165044Y-135311797D01*
X133155050Y-135292181D01*
X133030109Y-135120213D01*
X132879786Y-134969890D01*
X132707820Y-134844951D01*
X132707115Y-134844591D01*
X132699054Y-134840485D01*
X132648259Y-134792512D01*
X132631463Y-134724692D01*
X132653999Y-134658556D01*
X132699054Y-134619515D01*
X132707816Y-134615051D01*
X132762876Y-134575048D01*
X132879786Y-134490109D01*
X132879788Y-134490106D01*
X132879792Y-134490104D01*
X133030104Y-134339792D01*
X133030106Y-134339788D01*
X133030109Y-134339786D01*
X133155048Y-134167820D01*
X133155047Y-134167820D01*
X133155051Y-134167816D01*
X133251557Y-133978412D01*
X133317246Y-133776243D01*
X133350500Y-133566287D01*
X133350500Y-133353713D01*
X133317246Y-133143757D01*
X133251557Y-132941588D01*
X133155051Y-132752184D01*
X133155049Y-132752181D01*
X133155048Y-132752179D01*
X133030109Y-132580213D01*
X132879786Y-132429890D01*
X132707817Y-132304949D01*
X132698504Y-132300204D01*
X132647707Y-132252230D01*
X132630912Y-132184409D01*
X132653449Y-132118274D01*
X132698507Y-132079232D01*
X132707555Y-132074622D01*
X132761716Y-132035270D01*
X132761717Y-132035270D01*
X132129408Y-131402962D01*
X132192993Y-131385925D01*
X132307007Y-131320099D01*
X132400099Y-131227007D01*
X132465925Y-131112993D01*
X132482962Y-131049408D01*
X133115270Y-131681717D01*
X133115270Y-131681716D01*
X133154622Y-131627554D01*
X133251095Y-131438217D01*
X133316757Y-131236130D01*
X133316757Y-131236127D01*
X133350000Y-131026246D01*
X133350000Y-130813753D01*
X133316757Y-130603872D01*
X133316757Y-130603869D01*
X133251095Y-130401782D01*
X133154624Y-130212449D01*
X133115270Y-130158282D01*
X133115269Y-130158282D01*
X132482962Y-130790590D01*
X132465925Y-130727007D01*
X132400099Y-130612993D01*
X132307007Y-130519901D01*
X132192993Y-130454075D01*
X132129409Y-130437037D01*
X132761716Y-129804728D01*
X132707547Y-129765373D01*
X132707547Y-129765372D01*
X132698500Y-129760763D01*
X132647706Y-129712788D01*
X132630912Y-129644966D01*
X132653451Y-129578832D01*
X132698508Y-129539793D01*
X132707816Y-129535051D01*
X132821952Y-129452127D01*
X132879786Y-129410109D01*
X132879788Y-129410106D01*
X132879792Y-129410104D01*
X133030104Y-129259792D01*
X133030106Y-129259788D01*
X133030109Y-129259786D01*
X133155048Y-129087820D01*
X133155047Y-129087820D01*
X133155051Y-129087816D01*
X133251557Y-128898412D01*
X133317246Y-128696243D01*
X133350500Y-128486287D01*
X133350500Y-128273713D01*
X133335382Y-128178268D01*
X133344336Y-128108979D01*
X133370169Y-128071197D01*
X133654550Y-127786816D01*
X133715872Y-127753334D01*
X133742230Y-127750500D01*
X135625500Y-127750500D01*
X135692539Y-127770185D01*
G37*
%TD.AperFunction*%
%TA.AperFunction,Conductor*%
G36*
X181550539Y-103230185D02*
G01*
X181571181Y-103246819D01*
X182493355Y-104168993D01*
X182523604Y-104218354D01*
X182549355Y-104297606D01*
X182649435Y-104494022D01*
X182649437Y-104494025D01*
X182779002Y-104672358D01*
X182779006Y-104672363D01*
X182934890Y-104828247D01*
X183074929Y-104929990D01*
X183117595Y-104985319D01*
X183123574Y-105054933D01*
X183090969Y-105116728D01*
X183074929Y-105130626D01*
X183049735Y-105148930D01*
X183049735Y-105148932D01*
X183717840Y-105817037D01*
X183654257Y-105834075D01*
X183540243Y-105899901D01*
X183447151Y-105992993D01*
X183381325Y-106107007D01*
X183364287Y-106170590D01*
X182696182Y-105502485D01*
X182696181Y-105502485D01*
X182649866Y-105566233D01*
X182549817Y-105762589D01*
X182481723Y-105972164D01*
X182447250Y-106189818D01*
X182447250Y-106410181D01*
X182481723Y-106627835D01*
X182549817Y-106837410D01*
X182649861Y-107033756D01*
X182696182Y-107097513D01*
X183364287Y-106429408D01*
X183381325Y-106492993D01*
X183447151Y-106607007D01*
X183540243Y-106700099D01*
X183654257Y-106765925D01*
X183717839Y-106782962D01*
X183049735Y-107451065D01*
X183049735Y-107451066D01*
X183074930Y-107469371D01*
X183117596Y-107524701D01*
X183123575Y-107594314D01*
X183090970Y-107656110D01*
X183074931Y-107670008D01*
X182934886Y-107771756D01*
X182779006Y-107927636D01*
X182779002Y-107927641D01*
X182649437Y-108105974D01*
X182549354Y-108302393D01*
X182549353Y-108302396D01*
X182481235Y-108512047D01*
X182446750Y-108729778D01*
X182446750Y-108950227D01*
X182468164Y-109085429D01*
X182459209Y-109154722D01*
X182433372Y-109192508D01*
X171917048Y-119708834D01*
X171917046Y-119708836D01*
X168221088Y-123404793D01*
X168159765Y-123438278D01*
X168090073Y-123433294D01*
X168034140Y-123391422D01*
X168009723Y-123325958D01*
X168016703Y-123282917D01*
X168014723Y-123282387D01*
X168022127Y-123254755D01*
X168057750Y-123121808D01*
X168057750Y-122963693D01*
X168057750Y-120464701D01*
X168077435Y-120397662D01*
X168130239Y-120351907D01*
X168199397Y-120341963D01*
X168220068Y-120346770D01*
X168279299Y-120366015D01*
X168497028Y-120400500D01*
X168497029Y-120400500D01*
X168717471Y-120400500D01*
X168717472Y-120400500D01*
X168935201Y-120366015D01*
X169144856Y-120297895D01*
X169341272Y-120197815D01*
X169519615Y-120068242D01*
X169675492Y-119912365D01*
X169805065Y-119734022D01*
X169905145Y-119537606D01*
X169973265Y-119327951D01*
X170007750Y-119110222D01*
X170007750Y-118889778D01*
X169973265Y-118672049D01*
X169914883Y-118492365D01*
X169905146Y-118462396D01*
X169905145Y-118462393D01*
X169870487Y-118394375D01*
X169805065Y-118265978D01*
X169784338Y-118237449D01*
X169675497Y-118087641D01*
X169675493Y-118087636D01*
X169519613Y-117931756D01*
X169519608Y-117931752D01*
X169379995Y-117830318D01*
X169337329Y-117774989D01*
X169331350Y-117705375D01*
X169363955Y-117643580D01*
X169379995Y-117629682D01*
X169519608Y-117528247D01*
X169519606Y-117528247D01*
X169519615Y-117528242D01*
X169675492Y-117372365D01*
X169805065Y-117194022D01*
X169905145Y-116997606D01*
X169973265Y-116787951D01*
X170007750Y-116570222D01*
X170007750Y-116349778D01*
X169973265Y-116132049D01*
X169914883Y-115952365D01*
X169905146Y-115922396D01*
X169905145Y-115922393D01*
X169870487Y-115854375D01*
X169805065Y-115725978D01*
X169775347Y-115685075D01*
X169675497Y-115547641D01*
X169675493Y-115547636D01*
X169519613Y-115391756D01*
X169519608Y-115391752D01*
X169379995Y-115290318D01*
X169337329Y-115234989D01*
X169331350Y-115165375D01*
X169363955Y-115103580D01*
X169379995Y-115089682D01*
X169519608Y-114988247D01*
X169519606Y-114988247D01*
X169519615Y-114988242D01*
X169675492Y-114832365D01*
X169805065Y-114654022D01*
X169905145Y-114457606D01*
X169973265Y-114247951D01*
X170007750Y-114030222D01*
X170007750Y-113809778D01*
X169973265Y-113592049D01*
X169914883Y-113412365D01*
X169905146Y-113382396D01*
X169905145Y-113382393D01*
X169870487Y-113314375D01*
X169805065Y-113185978D01*
X169784338Y-113157449D01*
X169675497Y-113007641D01*
X169675493Y-113007636D01*
X169519613Y-112851756D01*
X169519608Y-112851752D01*
X169379995Y-112750318D01*
X169337329Y-112694989D01*
X169331350Y-112625375D01*
X169363955Y-112563580D01*
X169379995Y-112549682D01*
X169519608Y-112448247D01*
X169519606Y-112448247D01*
X169519615Y-112448242D01*
X169675492Y-112292365D01*
X169805065Y-112114022D01*
X169905145Y-111917606D01*
X169973265Y-111707951D01*
X170007750Y-111490222D01*
X170007750Y-111269778D01*
X169973265Y-111052049D01*
X169914883Y-110872365D01*
X169905146Y-110842396D01*
X169905145Y-110842393D01*
X169870487Y-110774375D01*
X169805065Y-110645978D01*
X169775347Y-110605075D01*
X169675497Y-110467641D01*
X169675493Y-110467636D01*
X169519613Y-110311756D01*
X169519608Y-110311752D01*
X169379995Y-110210318D01*
X169337329Y-110154989D01*
X169331350Y-110085375D01*
X169363955Y-110023580D01*
X169379995Y-110009682D01*
X169519608Y-109908247D01*
X169519606Y-109908247D01*
X169519615Y-109908242D01*
X169675492Y-109752365D01*
X169805065Y-109574022D01*
X169905145Y-109377606D01*
X169973265Y-109167951D01*
X170007750Y-108950222D01*
X170007750Y-108729778D01*
X169973265Y-108512049D01*
X169935356Y-108395375D01*
X169905146Y-108302396D01*
X169905145Y-108302393D01*
X169870487Y-108234375D01*
X169805065Y-108105978D01*
X169788510Y-108083192D01*
X169675497Y-107927641D01*
X169675493Y-107927636D01*
X169519613Y-107771756D01*
X169519608Y-107771752D01*
X169379995Y-107670318D01*
X169337329Y-107614989D01*
X169331350Y-107545375D01*
X169363955Y-107483580D01*
X169379995Y-107469682D01*
X169519608Y-107368247D01*
X169519606Y-107368247D01*
X169519615Y-107368242D01*
X169675492Y-107212365D01*
X169805065Y-107034022D01*
X169905145Y-106837606D01*
X169973265Y-106627951D01*
X170007750Y-106410222D01*
X170007750Y-106189778D01*
X169973265Y-105972049D01*
X169914883Y-105792365D01*
X169905146Y-105762396D01*
X169905145Y-105762393D01*
X169870487Y-105694375D01*
X169805065Y-105565978D01*
X169788510Y-105543192D01*
X169675497Y-105387641D01*
X169675493Y-105387636D01*
X169519613Y-105231756D01*
X169519608Y-105231752D01*
X169379995Y-105130318D01*
X169337329Y-105074989D01*
X169331350Y-105005375D01*
X169363955Y-104943580D01*
X169379995Y-104929682D01*
X169519608Y-104828247D01*
X169519606Y-104828247D01*
X169519615Y-104828242D01*
X169675492Y-104672365D01*
X169805065Y-104494022D01*
X169905145Y-104297606D01*
X169973265Y-104087951D01*
X170007750Y-103870222D01*
X170007750Y-103649778D01*
X169973265Y-103432049D01*
X169954020Y-103372818D01*
X169952025Y-103302977D01*
X169988105Y-103243144D01*
X170050806Y-103212316D01*
X170071951Y-103210500D01*
X181483500Y-103210500D01*
X181550539Y-103230185D01*
G37*
%TD.AperFunction*%
%TA.AperFunction,Conductor*%
G36*
X167220763Y-104176670D02*
G01*
X167276696Y-104218542D01*
X167295360Y-104254535D01*
X167309352Y-104297600D01*
X167309354Y-104297606D01*
X167409437Y-104494025D01*
X167539002Y-104672358D01*
X167539006Y-104672363D01*
X167694886Y-104828243D01*
X167694891Y-104828247D01*
X167834504Y-104929682D01*
X167877170Y-104985012D01*
X167883149Y-105054625D01*
X167850543Y-105116420D01*
X167834504Y-105130318D01*
X167694891Y-105231752D01*
X167694886Y-105231756D01*
X167539006Y-105387636D01*
X167539002Y-105387641D01*
X167409437Y-105565974D01*
X167309354Y-105762393D01*
X167309353Y-105762396D01*
X167241235Y-105972047D01*
X167228939Y-106049682D01*
X167206750Y-106189778D01*
X167206750Y-106410222D01*
X167219860Y-106492993D01*
X167241235Y-106627952D01*
X167309353Y-106837603D01*
X167309354Y-106837606D01*
X167377372Y-106971096D01*
X167409299Y-107033756D01*
X167409437Y-107034025D01*
X167539002Y-107212358D01*
X167539006Y-107212363D01*
X167694886Y-107368243D01*
X167694891Y-107368247D01*
X167834504Y-107469682D01*
X167877170Y-107525012D01*
X167883149Y-107594625D01*
X167850543Y-107656420D01*
X167834504Y-107670318D01*
X167694891Y-107771752D01*
X167694886Y-107771756D01*
X167539006Y-107927636D01*
X167539002Y-107927641D01*
X167409437Y-108105974D01*
X167309354Y-108302393D01*
X167309353Y-108302396D01*
X167241235Y-108512047D01*
X167216950Y-108665375D01*
X167206750Y-108729778D01*
X167206750Y-108950222D01*
X167211111Y-108977754D01*
X167241235Y-109167952D01*
X167309353Y-109377603D01*
X167309354Y-109377606D01*
X167409437Y-109574025D01*
X167539002Y-109752358D01*
X167539006Y-109752363D01*
X167694886Y-109908243D01*
X167694891Y-109908247D01*
X167834504Y-110009682D01*
X167877170Y-110065012D01*
X167883149Y-110134625D01*
X167850543Y-110196420D01*
X167834504Y-110210318D01*
X167694891Y-110311752D01*
X167694886Y-110311756D01*
X167539006Y-110467636D01*
X167539002Y-110467641D01*
X167409437Y-110645974D01*
X167309354Y-110842393D01*
X167309353Y-110842396D01*
X167241235Y-111052047D01*
X167228939Y-111129682D01*
X167206750Y-111269778D01*
X167206750Y-111490222D01*
X167208252Y-111499704D01*
X167241235Y-111707952D01*
X167309353Y-111917603D01*
X167309354Y-111917606D01*
X167409437Y-112114025D01*
X167539002Y-112292358D01*
X167539006Y-112292363D01*
X167694886Y-112448243D01*
X167694891Y-112448247D01*
X167834504Y-112549682D01*
X167877170Y-112605012D01*
X167883149Y-112674625D01*
X167850543Y-112736420D01*
X167834504Y-112750318D01*
X167694891Y-112851752D01*
X167694886Y-112851756D01*
X167539006Y-113007636D01*
X167539002Y-113007641D01*
X167409437Y-113185974D01*
X167309354Y-113382393D01*
X167309353Y-113382396D01*
X167241235Y-113592047D01*
X167241235Y-113592049D01*
X167206750Y-113809778D01*
X167206750Y-114030222D01*
X167241235Y-114247951D01*
X167260087Y-114305974D01*
X167264061Y-114318203D01*
X167266056Y-114388044D01*
X167233811Y-114444202D01*
X166612181Y-115065833D01*
X166550858Y-115099318D01*
X166481167Y-115094334D01*
X166425233Y-115052463D01*
X166400816Y-114986998D01*
X166400500Y-114978152D01*
X166400500Y-114929778D01*
X166397501Y-114910841D01*
X166366015Y-114712049D01*
X166313363Y-114550000D01*
X166297896Y-114502396D01*
X166297895Y-114502393D01*
X166239630Y-114388044D01*
X166197815Y-114305978D01*
X166144355Y-114232396D01*
X166068247Y-114127641D01*
X166068243Y-114127636D01*
X165912363Y-113971756D01*
X165912358Y-113971752D01*
X165772745Y-113870318D01*
X165730079Y-113814989D01*
X165724100Y-113745375D01*
X165756705Y-113683580D01*
X165772745Y-113669682D01*
X165912358Y-113568247D01*
X165912356Y-113568247D01*
X165912365Y-113568242D01*
X166068242Y-113412365D01*
X166197815Y-113234022D01*
X166297895Y-113037606D01*
X166366015Y-112827951D01*
X166400500Y-112610222D01*
X166400500Y-112389778D01*
X166366015Y-112172049D01*
X166331955Y-112067221D01*
X166297896Y-111962396D01*
X166297895Y-111962393D01*
X166238871Y-111846555D01*
X166197815Y-111765978D01*
X166162748Y-111717712D01*
X166068247Y-111587641D01*
X166068243Y-111587636D01*
X165912363Y-111431756D01*
X165912358Y-111431752D01*
X165772745Y-111330318D01*
X165730079Y-111274989D01*
X165724100Y-111205375D01*
X165756705Y-111143580D01*
X165772745Y-111129682D01*
X165912358Y-111028247D01*
X165912356Y-111028247D01*
X165912365Y-111028242D01*
X166068242Y-110872365D01*
X166197815Y-110694022D01*
X166297895Y-110497606D01*
X166366015Y-110287951D01*
X166400500Y-110070222D01*
X166400500Y-109849778D01*
X166366015Y-109632049D01*
X166313682Y-109470981D01*
X166297896Y-109422396D01*
X166297895Y-109422393D01*
X166237770Y-109304394D01*
X166197815Y-109225978D01*
X166173498Y-109192508D01*
X166068247Y-109047641D01*
X166068243Y-109047636D01*
X165912363Y-108891756D01*
X165912358Y-108891752D01*
X165772319Y-108790008D01*
X165729653Y-108734678D01*
X165723674Y-108665065D01*
X165756279Y-108603270D01*
X165772319Y-108589372D01*
X165797513Y-108571066D01*
X165797514Y-108571066D01*
X165129409Y-107902962D01*
X165192993Y-107885925D01*
X165307007Y-107820099D01*
X165400099Y-107727007D01*
X165465925Y-107612993D01*
X165482962Y-107549410D01*
X166151066Y-108217514D01*
X166151066Y-108217513D01*
X166197386Y-108153760D01*
X166297432Y-107957410D01*
X166365526Y-107747835D01*
X166400000Y-107530181D01*
X166400000Y-107309818D01*
X166365526Y-107092164D01*
X166297432Y-106882589D01*
X166197388Y-106686243D01*
X166151066Y-106622485D01*
X166151065Y-106622485D01*
X165482962Y-107290589D01*
X165465925Y-107227007D01*
X165400099Y-107112993D01*
X165307007Y-107019901D01*
X165192993Y-106954075D01*
X165129407Y-106937037D01*
X165797513Y-106268932D01*
X165772319Y-106250628D01*
X165729653Y-106195298D01*
X165723674Y-106125685D01*
X165756279Y-106063889D01*
X165772313Y-106049994D01*
X165912365Y-105948242D01*
X166068242Y-105792365D01*
X166197815Y-105614022D01*
X166297895Y-105417606D01*
X166366015Y-105207951D01*
X166400500Y-104990222D01*
X166400500Y-104945781D01*
X166420185Y-104878742D01*
X166436815Y-104858104D01*
X167089748Y-104205170D01*
X167151071Y-104171686D01*
X167220763Y-104176670D01*
G37*
%TD.AperFunction*%
%TA.AperFunction,Conductor*%
G36*
X205402855Y-100500632D02*
G01*
X205772537Y-100517723D01*
X205783927Y-100518779D01*
X206015689Y-100551108D01*
X206079365Y-100579866D01*
X206086238Y-100586238D01*
X209413760Y-103913760D01*
X209424492Y-103933415D01*
X209439089Y-103950404D01*
X209445073Y-103971105D01*
X209447245Y-103975083D01*
X209448890Y-103984309D01*
X209481219Y-104216066D01*
X209482276Y-104227471D01*
X209499368Y-104597144D01*
X209499500Y-104602871D01*
X209499500Y-145397128D01*
X209499368Y-145402855D01*
X209482276Y-145772528D01*
X209481219Y-145783932D01*
X209463042Y-145914239D01*
X209434284Y-145977916D01*
X209428870Y-145983820D01*
X206072425Y-149414851D01*
X206011474Y-149449008D01*
X206000918Y-149450950D01*
X205783933Y-149481219D01*
X205772528Y-149482276D01*
X205402855Y-149499368D01*
X205397128Y-149499500D01*
X104602872Y-149499500D01*
X104597145Y-149499368D01*
X104227469Y-149482276D01*
X104216064Y-149481219D01*
X104100520Y-149465101D01*
X104036843Y-149436343D01*
X104029971Y-149429971D01*
X100570027Y-145970027D01*
X100536542Y-145908704D01*
X100534901Y-145899499D01*
X100518779Y-145783927D01*
X100517723Y-145772530D01*
X100517226Y-145761789D01*
X100500632Y-145402855D01*
X100500500Y-145397128D01*
X100500500Y-145278711D01*
X102749500Y-145278711D01*
X102749500Y-145521288D01*
X102781161Y-145761785D01*
X102843947Y-145996104D01*
X102867810Y-146053713D01*
X102936776Y-146220212D01*
X103058064Y-146430289D01*
X103058066Y-146430292D01*
X103058067Y-146430293D01*
X103205733Y-146622736D01*
X103205739Y-146622743D01*
X103377256Y-146794260D01*
X103377263Y-146794266D01*
X103420992Y-146827820D01*
X103569711Y-146941936D01*
X103779788Y-147063224D01*
X104003900Y-147156054D01*
X104238211Y-147218838D01*
X104418586Y-147242584D01*
X104478711Y-147250500D01*
X104478712Y-147250500D01*
X104721289Y-147250500D01*
X104769388Y-147244167D01*
X104961789Y-147218838D01*
X105196100Y-147156054D01*
X105420212Y-147063224D01*
X105630289Y-146941936D01*
X105822738Y-146794265D01*
X105994265Y-146622738D01*
X106141936Y-146430289D01*
X106263224Y-146220212D01*
X106356054Y-145996100D01*
X106418838Y-145761789D01*
X106450500Y-145521288D01*
X106450500Y-145278712D01*
X106418838Y-145038211D01*
X106356054Y-144803900D01*
X106263224Y-144579788D01*
X106141936Y-144369711D01*
X105994265Y-144177262D01*
X105994260Y-144177256D01*
X105822743Y-144005739D01*
X105822736Y-144005733D01*
X105630293Y-143858067D01*
X105630292Y-143858066D01*
X105630289Y-143858064D01*
X105420212Y-143736776D01*
X105420205Y-143736773D01*
X105196104Y-143643947D01*
X105177724Y-143639022D01*
X104961789Y-143581162D01*
X104961786Y-143581161D01*
X104961784Y-143581161D01*
X104721289Y-143549500D01*
X104721288Y-143549500D01*
X104478712Y-143549500D01*
X104478711Y-143549500D01*
X104238214Y-143581161D01*
X104003895Y-143643947D01*
X103779794Y-143736773D01*
X103779785Y-143736777D01*
X103569706Y-143858067D01*
X103377263Y-144005733D01*
X103377256Y-144005739D01*
X103205739Y-144177256D01*
X103205733Y-144177263D01*
X103058067Y-144369706D01*
X102936777Y-144579785D01*
X102936773Y-144579794D01*
X102843947Y-144803895D01*
X102781161Y-145038214D01*
X102749500Y-145278711D01*
X100500500Y-145278711D01*
X100500500Y-127233713D01*
X107649500Y-127233713D01*
X107649500Y-127446286D01*
X107679142Y-127633443D01*
X107682754Y-127656243D01*
X107741936Y-127838387D01*
X107748444Y-127858414D01*
X107844951Y-128047820D01*
X107969890Y-128219786D01*
X108120213Y-128370109D01*
X108292179Y-128495048D01*
X108292181Y-128495049D01*
X108292184Y-128495051D01*
X108301493Y-128499794D01*
X108352290Y-128547766D01*
X108369087Y-128615587D01*
X108346552Y-128681722D01*
X108301505Y-128720760D01*
X108292446Y-128725376D01*
X108292440Y-128725380D01*
X108238282Y-128764727D01*
X108238282Y-128764728D01*
X108870591Y-129397037D01*
X108807007Y-129414075D01*
X108692993Y-129479901D01*
X108599901Y-129572993D01*
X108534075Y-129687007D01*
X108517037Y-129750591D01*
X107884728Y-129118282D01*
X107884727Y-129118282D01*
X107845380Y-129172439D01*
X107748904Y-129361782D01*
X107683242Y-129563869D01*
X107683242Y-129563872D01*
X107650000Y-129773753D01*
X107650000Y-129986246D01*
X107683242Y-130196127D01*
X107683242Y-130196130D01*
X107748904Y-130398217D01*
X107845375Y-130587550D01*
X107884728Y-130641716D01*
X108517037Y-130009408D01*
X108534075Y-130072993D01*
X108599901Y-130187007D01*
X108692993Y-130280099D01*
X108807007Y-130345925D01*
X108870590Y-130362962D01*
X108238282Y-130995269D01*
X108238282Y-130995270D01*
X108292452Y-131034626D01*
X108292451Y-131034626D01*
X108301495Y-131039234D01*
X108352292Y-131087208D01*
X108369087Y-131155029D01*
X108346550Y-131221164D01*
X108301499Y-131260202D01*
X108292182Y-131264949D01*
X108120213Y-131389890D01*
X107969890Y-131540213D01*
X107844951Y-131712179D01*
X107748444Y-131901585D01*
X107682753Y-132103760D01*
X107649500Y-132313713D01*
X107649500Y-132526286D01*
X107678942Y-132712179D01*
X107682754Y-132736243D01*
X107734788Y-132896387D01*
X107748444Y-132938414D01*
X107844951Y-133127820D01*
X107969890Y-133299786D01*
X108120213Y-133450109D01*
X108292182Y-133575050D01*
X108300946Y-133579516D01*
X108351742Y-133627491D01*
X108368536Y-133695312D01*
X108345998Y-133761447D01*
X108300946Y-133800484D01*
X108292182Y-133804949D01*
X108120213Y-133929890D01*
X107969890Y-134080213D01*
X107844951Y-134252179D01*
X107748444Y-134441585D01*
X107748443Y-134441587D01*
X107748443Y-134441588D01*
X107729340Y-134500382D01*
X107682753Y-134643760D01*
X107649500Y-134853713D01*
X107649500Y-135066286D01*
X107678942Y-135252179D01*
X107682754Y-135276243D01*
X107715385Y-135376671D01*
X107748444Y-135478414D01*
X107844951Y-135667820D01*
X107969890Y-135839786D01*
X108120213Y-135990109D01*
X108292182Y-136115050D01*
X108300946Y-136119516D01*
X108351742Y-136167491D01*
X108368536Y-136235312D01*
X108345998Y-136301447D01*
X108300946Y-136340484D01*
X108292182Y-136344949D01*
X108120213Y-136469890D01*
X107969890Y-136620213D01*
X107844951Y-136792179D01*
X107748444Y-136981585D01*
X107682753Y-137183760D01*
X107649500Y-137393713D01*
X107649500Y-137606286D01*
X107678942Y-137792179D01*
X107682754Y-137816243D01*
X107696203Y-137857636D01*
X107748444Y-138018414D01*
X107844951Y-138207820D01*
X107969890Y-138379786D01*
X108120213Y-138530109D01*
X108292182Y-138655050D01*
X108300946Y-138659516D01*
X108351742Y-138707491D01*
X108368536Y-138775312D01*
X108345998Y-138841447D01*
X108300946Y-138880484D01*
X108292182Y-138884949D01*
X108120213Y-139009890D01*
X107969890Y-139160213D01*
X107844951Y-139332179D01*
X107748444Y-139521585D01*
X107748443Y-139521587D01*
X107748443Y-139521588D01*
X107721402Y-139604812D01*
X107682753Y-139723760D01*
X107657223Y-139884951D01*
X107649500Y-139933713D01*
X107649500Y-140146287D01*
X107651503Y-140158932D01*
X107678942Y-140332179D01*
X107682754Y-140356243D01*
X107733520Y-140512485D01*
X107748444Y-140558414D01*
X107844951Y-140747820D01*
X107969890Y-140919786D01*
X108120213Y-141070109D01*
X108292179Y-141195048D01*
X108292181Y-141195049D01*
X108292184Y-141195051D01*
X108481588Y-141291557D01*
X108683757Y-141357246D01*
X108893713Y-141390500D01*
X108893714Y-141390500D01*
X109106286Y-141390500D01*
X109106287Y-141390500D01*
X109316243Y-141357246D01*
X109518412Y-141291557D01*
X109707816Y-141195051D01*
X109769824Y-141150000D01*
X109879786Y-141070109D01*
X109879788Y-141070106D01*
X109879792Y-141070104D01*
X110030104Y-140919792D01*
X110030106Y-140919788D01*
X110030109Y-140919786D01*
X110155048Y-140747820D01*
X110155047Y-140747820D01*
X110155051Y-140747816D01*
X110251557Y-140558412D01*
X110317246Y-140356243D01*
X110350500Y-140146287D01*
X110350500Y-139933713D01*
X110317246Y-139723757D01*
X110251557Y-139521588D01*
X110155051Y-139332184D01*
X110155049Y-139332181D01*
X110155048Y-139332179D01*
X110030109Y-139160213D01*
X109879786Y-139009890D01*
X109707820Y-138884951D01*
X109707115Y-138884591D01*
X109699054Y-138880485D01*
X109648259Y-138832512D01*
X109631463Y-138764692D01*
X109653999Y-138698556D01*
X109699054Y-138659515D01*
X109707816Y-138655051D01*
X109729789Y-138639086D01*
X109879786Y-138530109D01*
X109879788Y-138530106D01*
X109879792Y-138530104D01*
X110030104Y-138379792D01*
X110030106Y-138379788D01*
X110030109Y-138379786D01*
X110155048Y-138207820D01*
X110155047Y-138207820D01*
X110155051Y-138207816D01*
X110251557Y-138018412D01*
X110317246Y-137816243D01*
X110350500Y-137606287D01*
X110350500Y-137393713D01*
X110317246Y-137183757D01*
X110251557Y-136981588D01*
X110155051Y-136792184D01*
X110155049Y-136792181D01*
X110155048Y-136792179D01*
X110030109Y-136620213D01*
X109879786Y-136469890D01*
X109707820Y-136344951D01*
X109707115Y-136344591D01*
X109699054Y-136340485D01*
X109648259Y-136292512D01*
X109631463Y-136224692D01*
X109653999Y-136158556D01*
X109699054Y-136119515D01*
X109707816Y-136115051D01*
X109770512Y-136069500D01*
X109879786Y-135990109D01*
X109879788Y-135990106D01*
X109879792Y-135990104D01*
X110030104Y-135839792D01*
X110030106Y-135839788D01*
X110030109Y-135839786D01*
X110155048Y-135667820D01*
X110155047Y-135667820D01*
X110155051Y-135667816D01*
X110251557Y-135478412D01*
X110317246Y-135276243D01*
X110350500Y-135066287D01*
X110350500Y-134853713D01*
X110317246Y-134643757D01*
X110251557Y-134441588D01*
X110155051Y-134252184D01*
X110155049Y-134252181D01*
X110155048Y-134252179D01*
X110030109Y-134080213D01*
X109879786Y-133929890D01*
X109707820Y-133804951D01*
X109705492Y-133803765D01*
X109699054Y-133800485D01*
X109648259Y-133752512D01*
X109631463Y-133684692D01*
X109653999Y-133618556D01*
X109699054Y-133579515D01*
X109707816Y-133575051D01*
X109758017Y-133538578D01*
X109879786Y-133450109D01*
X109879788Y-133450106D01*
X109879792Y-133450104D01*
X110030104Y-133299792D01*
X110030106Y-133299788D01*
X110030109Y-133299786D01*
X110143469Y-133143757D01*
X110155051Y-133127816D01*
X110251557Y-132938412D01*
X110317246Y-132736243D01*
X110350500Y-132526287D01*
X110350500Y-132313713D01*
X110317246Y-132103757D01*
X110251557Y-131901588D01*
X110155051Y-131712184D01*
X110155049Y-131712181D01*
X110155048Y-131712179D01*
X110030109Y-131540213D01*
X109879786Y-131389890D01*
X109707817Y-131264949D01*
X109698504Y-131260204D01*
X109647707Y-131212230D01*
X109630912Y-131144409D01*
X109653449Y-131078274D01*
X109698507Y-131039232D01*
X109707555Y-131034622D01*
X109761716Y-130995270D01*
X109761717Y-130995270D01*
X109129408Y-130362962D01*
X109192993Y-130345925D01*
X109307007Y-130280099D01*
X109400099Y-130187007D01*
X109465925Y-130072993D01*
X109482962Y-130009409D01*
X110115270Y-130641717D01*
X110115270Y-130641716D01*
X110154622Y-130587554D01*
X110251095Y-130398217D01*
X110316757Y-130196130D01*
X110316757Y-130196127D01*
X110350000Y-129986246D01*
X110350000Y-129773753D01*
X110316757Y-129563872D01*
X110316757Y-129563869D01*
X110251095Y-129361782D01*
X110154624Y-129172449D01*
X110115270Y-129118282D01*
X110115269Y-129118282D01*
X109482962Y-129750590D01*
X109465925Y-129687007D01*
X109400099Y-129572993D01*
X109307007Y-129479901D01*
X109192993Y-129414075D01*
X109129409Y-129397037D01*
X109761716Y-128764728D01*
X109707547Y-128725373D01*
X109707547Y-128725372D01*
X109698500Y-128720763D01*
X109647706Y-128672788D01*
X109630912Y-128604966D01*
X109653451Y-128538832D01*
X109698508Y-128499793D01*
X109707816Y-128495051D01*
X109793849Y-128432545D01*
X109879786Y-128370109D01*
X109879788Y-128370106D01*
X109879792Y-128370104D01*
X110030104Y-128219792D01*
X110030106Y-128219788D01*
X110030109Y-128219786D01*
X110155048Y-128047820D01*
X110155047Y-128047820D01*
X110155051Y-128047816D01*
X110251557Y-127858412D01*
X110317246Y-127656243D01*
X110350500Y-127446287D01*
X110350500Y-127233713D01*
X110335382Y-127138268D01*
X110344336Y-127068979D01*
X110370171Y-127031195D01*
X112064549Y-125336819D01*
X112125872Y-125303334D01*
X112152230Y-125300500D01*
X117571627Y-125300500D01*
X117638666Y-125320185D01*
X117684421Y-125372989D01*
X117694365Y-125442147D01*
X117689560Y-125462810D01*
X117682754Y-125483757D01*
X117682753Y-125483760D01*
X117682753Y-125483762D01*
X117649500Y-125693713D01*
X117649500Y-125906287D01*
X117655443Y-125943812D01*
X117680927Y-126104712D01*
X117682754Y-126116243D01*
X117745840Y-126310402D01*
X117748444Y-126318414D01*
X117844951Y-126507820D01*
X117969890Y-126679786D01*
X118120213Y-126830109D01*
X118292182Y-126955050D01*
X118300946Y-126959516D01*
X118351742Y-127007491D01*
X118368536Y-127075312D01*
X118345998Y-127141447D01*
X118300946Y-127180484D01*
X118292182Y-127184949D01*
X118120213Y-127309890D01*
X117969890Y-127460213D01*
X117844951Y-127632179D01*
X117748444Y-127821585D01*
X117682753Y-128023760D01*
X117649500Y-128233713D01*
X117649500Y-128446286D01*
X117676314Y-128615587D01*
X117682754Y-128656243D01*
X117705215Y-128725372D01*
X117748444Y-128858414D01*
X117844951Y-129047820D01*
X117969890Y-129219786D01*
X118120213Y-129370109D01*
X118292182Y-129495050D01*
X118300946Y-129499516D01*
X118351742Y-129547491D01*
X118368536Y-129615312D01*
X118345998Y-129681447D01*
X118300946Y-129720484D01*
X118292182Y-129724949D01*
X118120213Y-129849890D01*
X117969890Y-130000213D01*
X117844951Y-130172179D01*
X117748444Y-130361585D01*
X117682753Y-130563760D01*
X117652496Y-130754798D01*
X117649500Y-130773713D01*
X117649500Y-130986287D01*
X117682754Y-131196243D01*
X117739943Y-131372253D01*
X117748444Y-131398414D01*
X117844951Y-131587820D01*
X117969890Y-131759786D01*
X118120213Y-131910109D01*
X118292182Y-132035050D01*
X118300946Y-132039516D01*
X118351742Y-132087491D01*
X118368536Y-132155312D01*
X118345998Y-132221447D01*
X118300946Y-132260484D01*
X118292182Y-132264949D01*
X118120213Y-132389890D01*
X117969890Y-132540213D01*
X117844951Y-132712179D01*
X117748444Y-132901585D01*
X117682753Y-133103760D01*
X117649500Y-133313713D01*
X117649500Y-133526286D01*
X117677409Y-133702500D01*
X117682754Y-133736243D01*
X117740768Y-133914792D01*
X117748444Y-133938414D01*
X117844951Y-134127820D01*
X117969890Y-134299786D01*
X118120213Y-134450109D01*
X118292182Y-134575050D01*
X118300946Y-134579516D01*
X118351742Y-134627491D01*
X118368536Y-134695312D01*
X118345998Y-134761447D01*
X118300946Y-134800484D01*
X118292182Y-134804949D01*
X118120213Y-134929890D01*
X117969890Y-135080213D01*
X117844951Y-135252179D01*
X117748444Y-135441585D01*
X117682753Y-135643760D01*
X117649500Y-135853713D01*
X117649500Y-136066286D01*
X117672508Y-136211557D01*
X117682754Y-136276243D01*
X117707155Y-136351342D01*
X117748444Y-136478414D01*
X117844951Y-136667820D01*
X117969890Y-136839786D01*
X118120213Y-136990109D01*
X118292182Y-137115050D01*
X118300946Y-137119516D01*
X118351742Y-137167491D01*
X118368536Y-137235312D01*
X118345998Y-137301447D01*
X118300946Y-137340484D01*
X118292182Y-137344949D01*
X118120213Y-137469890D01*
X117969890Y-137620213D01*
X117844951Y-137792179D01*
X117748444Y-137981585D01*
X117682753Y-138183760D01*
X117649500Y-138393713D01*
X117649500Y-138606286D01*
X117672508Y-138751557D01*
X117682754Y-138816243D01*
X117732713Y-138970001D01*
X117748444Y-139018414D01*
X117844951Y-139207820D01*
X117969890Y-139379786D01*
X118120213Y-139530109D01*
X118292182Y-139655050D01*
X118300946Y-139659516D01*
X118351742Y-139707491D01*
X118368536Y-139775312D01*
X118345998Y-139841447D01*
X118300946Y-139880484D01*
X118292182Y-139884949D01*
X118120213Y-140009890D01*
X117969890Y-140160213D01*
X117844951Y-140332179D01*
X117748444Y-140521585D01*
X117682753Y-140723760D01*
X117649500Y-140933713D01*
X117649500Y-141146286D01*
X117678939Y-141332160D01*
X117682754Y-141356243D01*
X117742875Y-141541277D01*
X117748444Y-141558414D01*
X117844951Y-141747820D01*
X117969890Y-141919786D01*
X118120213Y-142070109D01*
X118292179Y-142195048D01*
X118292181Y-142195049D01*
X118292184Y-142195051D01*
X118301493Y-142199794D01*
X118352290Y-142247766D01*
X118369087Y-142315587D01*
X118346552Y-142381722D01*
X118301505Y-142420760D01*
X118292446Y-142425376D01*
X118292440Y-142425380D01*
X118238282Y-142464727D01*
X118238282Y-142464728D01*
X118870591Y-143097037D01*
X118807007Y-143114075D01*
X118692993Y-143179901D01*
X118599901Y-143272993D01*
X118534075Y-143387007D01*
X118517037Y-143450591D01*
X117884728Y-142818282D01*
X117884727Y-142818282D01*
X117845380Y-142872439D01*
X117748904Y-143061782D01*
X117683242Y-143263869D01*
X117683242Y-143263872D01*
X117650000Y-143473753D01*
X117650000Y-143686246D01*
X117683242Y-143896127D01*
X117683242Y-143896130D01*
X117748904Y-144098217D01*
X117845375Y-144287550D01*
X117884728Y-144341716D01*
X118517037Y-143709408D01*
X118534075Y-143772993D01*
X118599901Y-143887007D01*
X118692993Y-143980099D01*
X118807007Y-144045925D01*
X118870590Y-144062962D01*
X118238282Y-144695269D01*
X118238282Y-144695270D01*
X118292452Y-144734626D01*
X118292451Y-144734626D01*
X118301495Y-144739234D01*
X118352292Y-144787208D01*
X118369087Y-144855029D01*
X118346550Y-144921164D01*
X118301499Y-144960202D01*
X118292182Y-144964949D01*
X118120213Y-145089890D01*
X117969890Y-145240213D01*
X117844951Y-145412179D01*
X117748444Y-145601585D01*
X117748443Y-145601587D01*
X117748443Y-145601588D01*
X117735447Y-145641585D01*
X117682753Y-145803760D01*
X117649500Y-146013713D01*
X117649500Y-146226286D01*
X117681811Y-146430293D01*
X117682754Y-146436243D01*
X117743350Y-146622738D01*
X117748444Y-146638414D01*
X117844951Y-146827820D01*
X117969890Y-146999786D01*
X118120213Y-147150109D01*
X118292179Y-147275048D01*
X118292181Y-147275049D01*
X118292184Y-147275051D01*
X118481588Y-147371557D01*
X118683757Y-147437246D01*
X118893713Y-147470500D01*
X118893714Y-147470500D01*
X119106286Y-147470500D01*
X119106287Y-147470500D01*
X119316243Y-147437246D01*
X119518412Y-147371557D01*
X119707816Y-147275051D01*
X119785187Y-147218838D01*
X119879786Y-147150109D01*
X119879788Y-147150106D01*
X119879792Y-147150104D01*
X120030104Y-146999792D01*
X120030106Y-146999788D01*
X120030109Y-146999786D01*
X120155048Y-146827820D01*
X120155047Y-146827820D01*
X120155051Y-146827816D01*
X120251557Y-146638412D01*
X120317246Y-146436243D01*
X120350500Y-146226287D01*
X120350500Y-146013713D01*
X120335382Y-145918268D01*
X120344336Y-145848979D01*
X120370171Y-145811195D01*
X128144548Y-138036819D01*
X128205871Y-138003334D01*
X128232229Y-138000500D01*
X130584624Y-138000500D01*
X130651663Y-138020185D01*
X130697418Y-138072989D01*
X130707362Y-138142147D01*
X130702557Y-138162808D01*
X130682754Y-138223757D01*
X130682753Y-138223760D01*
X130682753Y-138223762D01*
X130649500Y-138433713D01*
X130649500Y-138646286D01*
X130680410Y-138841447D01*
X130682754Y-138856243D01*
X130732677Y-139009890D01*
X130748444Y-139058414D01*
X130844951Y-139247820D01*
X130969890Y-139419786D01*
X131120213Y-139570109D01*
X131292182Y-139695050D01*
X131300946Y-139699516D01*
X131351742Y-139747491D01*
X131368536Y-139815312D01*
X131345998Y-139881447D01*
X131300946Y-139920484D01*
X131292182Y-139924949D01*
X131120213Y-140049890D01*
X130969890Y-140200213D01*
X130844951Y-140372179D01*
X130748444Y-140561585D01*
X130682753Y-140763760D01*
X130649500Y-140973713D01*
X130649500Y-141186286D01*
X130676418Y-141356243D01*
X130682754Y-141396243D01*
X130729878Y-141541276D01*
X130748444Y-141598414D01*
X130844951Y-141787820D01*
X130969890Y-141959786D01*
X131120213Y-142110109D01*
X131292182Y-142235050D01*
X131300946Y-142239516D01*
X131351742Y-142287491D01*
X131368536Y-142355312D01*
X131345998Y-142421447D01*
X131300946Y-142460484D01*
X131292182Y-142464949D01*
X131120213Y-142589890D01*
X130969890Y-142740213D01*
X130844951Y-142912179D01*
X130748444Y-143101585D01*
X130682753Y-143303760D01*
X130669568Y-143387007D01*
X130649500Y-143513713D01*
X130649500Y-143726287D01*
X130652910Y-143747819D01*
X130676400Y-143896130D01*
X130682754Y-143936243D01*
X130714427Y-144033723D01*
X130748444Y-144138414D01*
X130844951Y-144327820D01*
X130969890Y-144499786D01*
X131120213Y-144650109D01*
X131292182Y-144775050D01*
X131300946Y-144779516D01*
X131351742Y-144827491D01*
X131368536Y-144895312D01*
X131345998Y-144961447D01*
X131300946Y-145000484D01*
X131292182Y-145004949D01*
X131120213Y-145129890D01*
X130969890Y-145280213D01*
X130844951Y-145452179D01*
X130748444Y-145641585D01*
X130682753Y-145843760D01*
X130649500Y-146053713D01*
X130649500Y-146266286D01*
X130678216Y-146447596D01*
X130682754Y-146476243D01*
X130730353Y-146622738D01*
X130748444Y-146678414D01*
X130844951Y-146867820D01*
X130969890Y-147039786D01*
X131120213Y-147190109D01*
X131292179Y-147315048D01*
X131292181Y-147315049D01*
X131292184Y-147315051D01*
X131481588Y-147411557D01*
X131683757Y-147477246D01*
X131893713Y-147510500D01*
X131893714Y-147510500D01*
X132106286Y-147510500D01*
X132106287Y-147510500D01*
X132172581Y-147500000D01*
X143500000Y-147500000D01*
X167000000Y-147500000D01*
X167000000Y-145278711D01*
X203549500Y-145278711D01*
X203549500Y-145521288D01*
X203581161Y-145761785D01*
X203643947Y-145996104D01*
X203667810Y-146053713D01*
X203736776Y-146220212D01*
X203858064Y-146430289D01*
X203858066Y-146430292D01*
X203858067Y-146430293D01*
X204005733Y-146622736D01*
X204005739Y-146622743D01*
X204177256Y-146794260D01*
X204177263Y-146794266D01*
X204220992Y-146827820D01*
X204369711Y-146941936D01*
X204579788Y-147063224D01*
X204803900Y-147156054D01*
X205038211Y-147218838D01*
X205218586Y-147242584D01*
X205278711Y-147250500D01*
X205278712Y-147250500D01*
X205521289Y-147250500D01*
X205569388Y-147244167D01*
X205761789Y-147218838D01*
X205996100Y-147156054D01*
X206220212Y-147063224D01*
X206430289Y-146941936D01*
X206622738Y-146794265D01*
X206794265Y-146622738D01*
X206941936Y-146430289D01*
X207063224Y-146220212D01*
X207156054Y-145996100D01*
X207218838Y-145761789D01*
X207250500Y-145521288D01*
X207250500Y-145278712D01*
X207218838Y-145038211D01*
X207156054Y-144803900D01*
X207063224Y-144579788D01*
X206941936Y-144369711D01*
X206794265Y-144177262D01*
X206794260Y-144177256D01*
X206622743Y-144005739D01*
X206622736Y-144005733D01*
X206430293Y-143858067D01*
X206430292Y-143858066D01*
X206430289Y-143858064D01*
X206220212Y-143736776D01*
X206220205Y-143736773D01*
X205996104Y-143643947D01*
X205761785Y-143581161D01*
X205521289Y-143549500D01*
X205521288Y-143549500D01*
X205278712Y-143549500D01*
X205278711Y-143549500D01*
X205038214Y-143581161D01*
X204803895Y-143643947D01*
X204579794Y-143736773D01*
X204579785Y-143736777D01*
X204369706Y-143858067D01*
X204177263Y-144005733D01*
X204177256Y-144005739D01*
X204005739Y-144177256D01*
X204005733Y-144177263D01*
X203858067Y-144369706D01*
X203736777Y-144579785D01*
X203736773Y-144579794D01*
X203643947Y-144803895D01*
X203581161Y-145038214D01*
X203549500Y-145278711D01*
X167000000Y-145278711D01*
X167000000Y-142832014D01*
X181660000Y-142832014D01*
X181660000Y-143067985D01*
X181690799Y-143301914D01*
X181751870Y-143529837D01*
X181842160Y-143747819D01*
X181842165Y-143747828D01*
X181960144Y-143952171D01*
X181960145Y-143952172D01*
X182022721Y-144033723D01*
X182858958Y-143197487D01*
X182883978Y-143257890D01*
X182955112Y-143364351D01*
X183045649Y-143454888D01*
X183152110Y-143526022D01*
X183212511Y-143551041D01*
X182376275Y-144387277D01*
X182457827Y-144449854D01*
X182457828Y-144449855D01*
X182662171Y-144567834D01*
X182662180Y-144567839D01*
X182880163Y-144658129D01*
X182880161Y-144658129D01*
X183108085Y-144719200D01*
X183342014Y-144749999D01*
X183342029Y-144750000D01*
X183577971Y-144750000D01*
X183577985Y-144749999D01*
X183811914Y-144719200D01*
X184039837Y-144658129D01*
X184257819Y-144567839D01*
X184257828Y-144567834D01*
X184462181Y-144449850D01*
X184543723Y-144387279D01*
X184543723Y-144387276D01*
X183707487Y-143551041D01*
X183767890Y-143526022D01*
X183874351Y-143454888D01*
X183964888Y-143364351D01*
X184036022Y-143257890D01*
X184061041Y-143197488D01*
X184897276Y-144033723D01*
X184897279Y-144033723D01*
X184959850Y-143952181D01*
X185077834Y-143747828D01*
X185077839Y-143747819D01*
X185168129Y-143529837D01*
X185229200Y-143301914D01*
X185259999Y-143067985D01*
X185260000Y-143067971D01*
X185260000Y-142832028D01*
X185259999Y-142832014D01*
X185229200Y-142598085D01*
X185168129Y-142370162D01*
X185077839Y-142152180D01*
X185077834Y-142152171D01*
X184959855Y-141947828D01*
X184959854Y-141947827D01*
X184897277Y-141866275D01*
X184061041Y-142702511D01*
X184036022Y-142642110D01*
X183964888Y-142535649D01*
X183874351Y-142445112D01*
X183767890Y-142373978D01*
X183707488Y-142348958D01*
X184543723Y-141512721D01*
X184462172Y-141450145D01*
X184462171Y-141450144D01*
X184257828Y-141332165D01*
X184257819Y-141332160D01*
X184039836Y-141241870D01*
X184039838Y-141241870D01*
X183811914Y-141180799D01*
X183577985Y-141150000D01*
X183342014Y-141150000D01*
X183108085Y-141180799D01*
X182880162Y-141241870D01*
X182662180Y-141332160D01*
X182662171Y-141332165D01*
X182457828Y-141450144D01*
X182457818Y-141450150D01*
X182376275Y-141512720D01*
X182376275Y-141512721D01*
X183212512Y-142348958D01*
X183152110Y-142373978D01*
X183045649Y-142445112D01*
X182955112Y-142535649D01*
X182883978Y-142642110D01*
X182858958Y-142702511D01*
X182022721Y-141866275D01*
X182022720Y-141866275D01*
X181960150Y-141947818D01*
X181960144Y-141947828D01*
X181842165Y-142152171D01*
X181842160Y-142152180D01*
X181751870Y-142370162D01*
X181690799Y-142598085D01*
X181660000Y-142832014D01*
X167000000Y-142832014D01*
X167000000Y-129500000D01*
X143500000Y-129500000D01*
X143500000Y-147500000D01*
X132172581Y-147500000D01*
X132316243Y-147477246D01*
X132518412Y-147411557D01*
X132707816Y-147315051D01*
X132789564Y-147255658D01*
X132879786Y-147190109D01*
X132879788Y-147190106D01*
X132879792Y-147190104D01*
X133030104Y-147039792D01*
X133030106Y-147039788D01*
X133030109Y-147039786D01*
X133155048Y-146867820D01*
X133155047Y-146867820D01*
X133155051Y-146867816D01*
X133251557Y-146678412D01*
X133317246Y-146476243D01*
X133350500Y-146266287D01*
X133350500Y-146053713D01*
X133317246Y-145843757D01*
X133251557Y-145641588D01*
X133155051Y-145452184D01*
X133155049Y-145452181D01*
X133155048Y-145452179D01*
X133030109Y-145280213D01*
X132879786Y-145129890D01*
X132707820Y-145004951D01*
X132707115Y-145004591D01*
X132699054Y-145000485D01*
X132648259Y-144952512D01*
X132631463Y-144884692D01*
X132653999Y-144818556D01*
X132699054Y-144779515D01*
X132707816Y-144775051D01*
X132817626Y-144695270D01*
X132879786Y-144650109D01*
X132879788Y-144650106D01*
X132879792Y-144650104D01*
X133030104Y-144499792D01*
X133030106Y-144499788D01*
X133030109Y-144499786D01*
X133155048Y-144327820D01*
X133155047Y-144327820D01*
X133155051Y-144327816D01*
X133251557Y-144138412D01*
X133317246Y-143936243D01*
X133350500Y-143726287D01*
X133350500Y-143513713D01*
X133317246Y-143303757D01*
X133251557Y-143101588D01*
X133155051Y-142912184D01*
X133155049Y-142912181D01*
X133155048Y-142912179D01*
X133030109Y-142740213D01*
X132879786Y-142589890D01*
X132707820Y-142464951D01*
X132707115Y-142464591D01*
X132699054Y-142460485D01*
X132648259Y-142412512D01*
X132631463Y-142344692D01*
X132653999Y-142278556D01*
X132699054Y-142239515D01*
X132707816Y-142235051D01*
X132762872Y-142195051D01*
X132879786Y-142110109D01*
X132879788Y-142110106D01*
X132879792Y-142110104D01*
X133030104Y-141959792D01*
X133030106Y-141959788D01*
X133030109Y-141959786D01*
X133155048Y-141787820D01*
X133155047Y-141787820D01*
X133155051Y-141787816D01*
X133251557Y-141598412D01*
X133317246Y-141396243D01*
X133350500Y-141186287D01*
X133350500Y-140973713D01*
X133317246Y-140763757D01*
X133251557Y-140561588D01*
X133155051Y-140372184D01*
X133155049Y-140372181D01*
X133155048Y-140372179D01*
X133030109Y-140200213D01*
X132879786Y-140049890D01*
X132707820Y-139924951D01*
X132707115Y-139924591D01*
X132699054Y-139920485D01*
X132648259Y-139872512D01*
X132631463Y-139804692D01*
X132653999Y-139738556D01*
X132699054Y-139699515D01*
X132707816Y-139695051D01*
X132762876Y-139655048D01*
X132879786Y-139570109D01*
X132879788Y-139570106D01*
X132879792Y-139570104D01*
X133030104Y-139419792D01*
X133030106Y-139419788D01*
X133030109Y-139419786D01*
X133155048Y-139247820D01*
X133155047Y-139247820D01*
X133155051Y-139247816D01*
X133251557Y-139058412D01*
X133317246Y-138856243D01*
X133350500Y-138646287D01*
X133350500Y-138433713D01*
X133317246Y-138223757D01*
X133251557Y-138021588D01*
X133155051Y-137832184D01*
X133150773Y-137826296D01*
X133127291Y-137760493D01*
X133143112Y-137692439D01*
X133163403Y-137665730D01*
X134390288Y-136438844D01*
X134000000Y-138000000D01*
X136500000Y-143000000D01*
X138500000Y-142000000D01*
X137000000Y-135000000D01*
X135048556Y-135780577D01*
X137082952Y-133746183D01*
X137132814Y-133671557D01*
X137165084Y-133623262D01*
X137221658Y-133486680D01*
X137239288Y-133398052D01*
X137250500Y-133341687D01*
X137250500Y-127874500D01*
X137270185Y-127807461D01*
X137322989Y-127761706D01*
X137374500Y-127750500D01*
X165761170Y-127750500D01*
X165884797Y-127725908D01*
X165906163Y-127721658D01*
X166042745Y-127665084D01*
X166135869Y-127602861D01*
X166165666Y-127582952D01*
X171537819Y-122210797D01*
X171599142Y-122177313D01*
X171668834Y-122182297D01*
X171724767Y-122224169D01*
X171749184Y-122289633D01*
X171749500Y-122298479D01*
X171749500Y-132440975D01*
X171729815Y-132508014D01*
X171698387Y-132541291D01*
X171644824Y-132580208D01*
X171587632Y-132621760D01*
X171431756Y-132777636D01*
X171431752Y-132777641D01*
X171302187Y-132955974D01*
X171202104Y-133152393D01*
X171202103Y-133152396D01*
X171133985Y-133362047D01*
X171107972Y-133526286D01*
X171099500Y-133579778D01*
X171099500Y-133800222D01*
X171102544Y-133819441D01*
X171133985Y-134017952D01*
X171202103Y-134227603D01*
X171202104Y-134227606D01*
X171238886Y-134299792D01*
X171300755Y-134421216D01*
X171302187Y-134424025D01*
X171431752Y-134602358D01*
X171431756Y-134602363D01*
X171587636Y-134758243D01*
X171587641Y-134758247D01*
X171727254Y-134859682D01*
X171769920Y-134915012D01*
X171775899Y-134984625D01*
X171743293Y-135046420D01*
X171727254Y-135060318D01*
X171587641Y-135161752D01*
X171587636Y-135161756D01*
X171431756Y-135317636D01*
X171431752Y-135317641D01*
X171302187Y-135495974D01*
X171202104Y-135692393D01*
X171202103Y-135692396D01*
X171133985Y-135902047D01*
X171107972Y-136066286D01*
X171099500Y-136119778D01*
X171099500Y-136340222D01*
X171100249Y-136344949D01*
X171133985Y-136557952D01*
X171202103Y-136767603D01*
X171202104Y-136767606D01*
X171302187Y-136964025D01*
X171431752Y-137142358D01*
X171431756Y-137142363D01*
X171587636Y-137298243D01*
X171587641Y-137298247D01*
X171727254Y-137399682D01*
X171769920Y-137455012D01*
X171775899Y-137524625D01*
X171743293Y-137586420D01*
X171727254Y-137600318D01*
X171587641Y-137701752D01*
X171587636Y-137701756D01*
X171431756Y-137857636D01*
X171431752Y-137857641D01*
X171302187Y-138035974D01*
X171202104Y-138232393D01*
X171202103Y-138232396D01*
X171133985Y-138442047D01*
X171107972Y-138606286D01*
X171099500Y-138659778D01*
X171099500Y-138880222D01*
X171099542Y-138880486D01*
X171133985Y-139097952D01*
X171202103Y-139307603D01*
X171202104Y-139307606D01*
X171302187Y-139504025D01*
X171431752Y-139682358D01*
X171431756Y-139682363D01*
X171587640Y-139838247D01*
X171727679Y-139939990D01*
X171770345Y-139995319D01*
X171776324Y-140064933D01*
X171743719Y-140126728D01*
X171727679Y-140140626D01*
X171702485Y-140158930D01*
X171702485Y-140158932D01*
X172370590Y-140827037D01*
X172307007Y-140844075D01*
X172192993Y-140909901D01*
X172099901Y-141002993D01*
X172034075Y-141117007D01*
X172017037Y-141180590D01*
X171348932Y-140512485D01*
X171348931Y-140512485D01*
X171302616Y-140576233D01*
X171202567Y-140772589D01*
X171134473Y-140982164D01*
X171100000Y-141199818D01*
X171100000Y-141420181D01*
X171134473Y-141637835D01*
X171202567Y-141847410D01*
X171302611Y-142043756D01*
X171348932Y-142107513D01*
X172017037Y-141439408D01*
X172034075Y-141502993D01*
X172099901Y-141617007D01*
X172192993Y-141710099D01*
X172307007Y-141775925D01*
X172370590Y-141792962D01*
X171702485Y-142461065D01*
X171702485Y-142461066D01*
X171766243Y-142507388D01*
X171962589Y-142607432D01*
X172172164Y-142675526D01*
X172389819Y-142710000D01*
X172610181Y-142710000D01*
X172638656Y-142705490D01*
X172827835Y-142675526D01*
X173037410Y-142607432D01*
X173233760Y-142507386D01*
X173297513Y-142461066D01*
X173297514Y-142461066D01*
X172629409Y-141792962D01*
X172692993Y-141775925D01*
X172807007Y-141710099D01*
X172900099Y-141617007D01*
X172965925Y-141502993D01*
X172982962Y-141439410D01*
X173651066Y-142107514D01*
X173651066Y-142107513D01*
X173697386Y-142043760D01*
X173797432Y-141847410D01*
X173865527Y-141637834D01*
X173880820Y-141541277D01*
X173880820Y-141541276D01*
X173900000Y-141420180D01*
X173900000Y-141199818D01*
X173865526Y-140982164D01*
X173797432Y-140772589D01*
X173697388Y-140576243D01*
X173651066Y-140512485D01*
X173651065Y-140512485D01*
X172982962Y-141180589D01*
X172965925Y-141117007D01*
X172900099Y-141002993D01*
X172807007Y-140909901D01*
X172692993Y-140844075D01*
X172629407Y-140827037D01*
X173297513Y-140158932D01*
X173272319Y-140140628D01*
X173229653Y-140085298D01*
X173223674Y-140015685D01*
X173256279Y-139953889D01*
X173272313Y-139939994D01*
X173412365Y-139838242D01*
X173568242Y-139682365D01*
X173697815Y-139504022D01*
X173797895Y-139307606D01*
X173866015Y-139097951D01*
X173900500Y-138880222D01*
X173900500Y-138659778D01*
X173866015Y-138442049D01*
X173843188Y-138371794D01*
X173841193Y-138301953D01*
X173873436Y-138245797D01*
X175349250Y-136769983D01*
X181659500Y-136769983D01*
X181659500Y-138970001D01*
X181659501Y-138970018D01*
X181670000Y-139072796D01*
X181670001Y-139072799D01*
X181698966Y-139160208D01*
X181725186Y-139239334D01*
X181817288Y-139388656D01*
X181941344Y-139512712D01*
X182090666Y-139604814D01*
X182257203Y-139659999D01*
X182359991Y-139670500D01*
X184560008Y-139670499D01*
X184662797Y-139659999D01*
X184829334Y-139604814D01*
X184978656Y-139512712D01*
X185102712Y-139388656D01*
X185194814Y-139239334D01*
X185249999Y-139072797D01*
X185260500Y-138970009D01*
X185260499Y-136769992D01*
X185249999Y-136667203D01*
X185194814Y-136500666D01*
X185102712Y-136351344D01*
X184978656Y-136227288D01*
X184829334Y-136135186D01*
X184662797Y-136080001D01*
X184662795Y-136080000D01*
X184560010Y-136069500D01*
X182359998Y-136069500D01*
X182359981Y-136069501D01*
X182257203Y-136080000D01*
X182257200Y-136080001D01*
X182090668Y-136135185D01*
X182090663Y-136135187D01*
X181941342Y-136227289D01*
X181817289Y-136351342D01*
X181725187Y-136500663D01*
X181725185Y-136500668D01*
X181706203Y-136557952D01*
X181670001Y-136667203D01*
X181670001Y-136667204D01*
X181670000Y-136667204D01*
X181659500Y-136769983D01*
X175349250Y-136769983D01*
X177586213Y-134533021D01*
X177586216Y-134533020D01*
X177618854Y-134500382D01*
X190395669Y-134500382D01*
X190395670Y-134500383D01*
X190421059Y-134518829D01*
X190589362Y-134604585D01*
X190768997Y-134662951D01*
X190955553Y-134692500D01*
X191144447Y-134692500D01*
X191331002Y-134662951D01*
X191510637Y-134604585D01*
X191678937Y-134518831D01*
X191704328Y-134500383D01*
X191704328Y-134500382D01*
X191050001Y-133846054D01*
X191050000Y-133846054D01*
X190395669Y-134500382D01*
X177618854Y-134500382D01*
X177698020Y-134421216D01*
X177777077Y-134284284D01*
X177818000Y-134131557D01*
X177818000Y-133398052D01*
X189850000Y-133398052D01*
X189850000Y-133586947D01*
X189879548Y-133773502D01*
X189937914Y-133953137D01*
X190023666Y-134121433D01*
X190042116Y-134146828D01*
X190696446Y-133492500D01*
X190696446Y-133492499D01*
X190650369Y-133446422D01*
X190700000Y-133446422D01*
X190700000Y-133538578D01*
X190723852Y-133627595D01*
X190769930Y-133707405D01*
X190835095Y-133772570D01*
X190914905Y-133818648D01*
X191003922Y-133842500D01*
X191096078Y-133842500D01*
X191185095Y-133818648D01*
X191264905Y-133772570D01*
X191330070Y-133707405D01*
X191376148Y-133627595D01*
X191400000Y-133538578D01*
X191400000Y-133492499D01*
X191403554Y-133492499D01*
X191403554Y-133492500D01*
X192057882Y-134146828D01*
X192057883Y-134146828D01*
X192076331Y-134121437D01*
X192162085Y-133953137D01*
X192220451Y-133773502D01*
X192250000Y-133586947D01*
X192250000Y-133398052D01*
X192220451Y-133211497D01*
X192162085Y-133031862D01*
X192076329Y-132863559D01*
X192057883Y-132838170D01*
X192057882Y-132838169D01*
X191403554Y-133492499D01*
X191400000Y-133492499D01*
X191400000Y-133446422D01*
X191376148Y-133357405D01*
X191330070Y-133277595D01*
X191264905Y-133212430D01*
X191185095Y-133166352D01*
X191096078Y-133142500D01*
X191003922Y-133142500D01*
X190914905Y-133166352D01*
X190835095Y-133212430D01*
X190769930Y-133277595D01*
X190723852Y-133357405D01*
X190700000Y-133446422D01*
X190650369Y-133446422D01*
X190042116Y-132838169D01*
X190042116Y-132838170D01*
X190023669Y-132863560D01*
X189937914Y-133031862D01*
X189879548Y-133211497D01*
X189850000Y-133398052D01*
X177818000Y-133398052D01*
X177818000Y-132049818D01*
X177837685Y-131982779D01*
X177890489Y-131937024D01*
X177959647Y-131927080D01*
X177980319Y-131931887D01*
X178079871Y-131964234D01*
X178170000Y-131978509D01*
X178170000Y-130990747D01*
X178207708Y-131012518D01*
X178347591Y-131050000D01*
X178492409Y-131050000D01*
X178632292Y-131012518D01*
X178670000Y-130990747D01*
X178670000Y-131978508D01*
X178760128Y-131964234D01*
X178977570Y-131893582D01*
X179181276Y-131789788D01*
X179366242Y-131655402D01*
X179527905Y-131493739D01*
X179589371Y-131409137D01*
X179644701Y-131366470D01*
X179714314Y-131360491D01*
X179776109Y-131393096D01*
X179790007Y-131409134D01*
X179851714Y-131494066D01*
X180013434Y-131655786D01*
X180198462Y-131790217D01*
X180330599Y-131857544D01*
X180402244Y-131894049D01*
X180619751Y-131964721D01*
X180619752Y-131964721D01*
X180619755Y-131964722D01*
X180845646Y-132000500D01*
X180845647Y-132000500D01*
X181074353Y-132000500D01*
X181074354Y-132000500D01*
X181300245Y-131964722D01*
X181300248Y-131964721D01*
X181300249Y-131964721D01*
X181517755Y-131894049D01*
X181517755Y-131894048D01*
X181517758Y-131894048D01*
X181721538Y-131790217D01*
X181904245Y-131657472D01*
X181970046Y-131633994D01*
X182038100Y-131649819D01*
X182086795Y-131699924D01*
X182093308Y-131714459D01*
X182103702Y-131742328D01*
X182103706Y-131742335D01*
X182189952Y-131857544D01*
X182189955Y-131857547D01*
X182305164Y-131943793D01*
X182305171Y-131943797D01*
X182440017Y-131994091D01*
X182440016Y-131994091D01*
X182446944Y-131994835D01*
X182499627Y-132000500D01*
X184500372Y-132000499D01*
X184559983Y-131994091D01*
X184694831Y-131943796D01*
X184810046Y-131857546D01*
X184896296Y-131742331D01*
X184946591Y-131607483D01*
X184953000Y-131547873D01*
X184952999Y-130858013D01*
X189849500Y-130858013D01*
X189849500Y-131046986D01*
X189879059Y-131233618D01*
X189937454Y-131413336D01*
X189989434Y-131515351D01*
X190023240Y-131581699D01*
X190134310Y-131734573D01*
X190267927Y-131868190D01*
X190420801Y-131979260D01*
X190589168Y-132065047D01*
X190711612Y-132104831D01*
X190769287Y-132144269D01*
X190796485Y-132208627D01*
X190784570Y-132277474D01*
X190737326Y-132328949D01*
X190711612Y-132340693D01*
X190589361Y-132380415D01*
X190421060Y-132466169D01*
X190395670Y-132484616D01*
X190395669Y-132484616D01*
X191050000Y-133138946D01*
X191050001Y-133138946D01*
X191704328Y-132484616D01*
X191678933Y-132466166D01*
X191510637Y-132380414D01*
X191388388Y-132340693D01*
X191330712Y-132301255D01*
X191303514Y-132236897D01*
X191315429Y-132168050D01*
X191362673Y-132116575D01*
X191388382Y-132104833D01*
X191510832Y-132065047D01*
X191679199Y-131979260D01*
X191832073Y-131868190D01*
X191965690Y-131734573D01*
X192076760Y-131581699D01*
X192162547Y-131413332D01*
X192220940Y-131233618D01*
X192221987Y-131227007D01*
X192250500Y-131046986D01*
X192250500Y-130858013D01*
X192220940Y-130671381D01*
X192190985Y-130579190D01*
X192162547Y-130491668D01*
X192162545Y-130491665D01*
X192162545Y-130491663D01*
X192096268Y-130361588D01*
X192076760Y-130323301D01*
X191965690Y-130170427D01*
X191832073Y-130036810D01*
X191679199Y-129925740D01*
X191510836Y-129839954D01*
X191331118Y-129781559D01*
X191144486Y-129752000D01*
X191144481Y-129752000D01*
X190955519Y-129752000D01*
X190955514Y-129752000D01*
X190768881Y-129781559D01*
X190589163Y-129839954D01*
X190420800Y-129925740D01*
X190387410Y-129950000D01*
X190267927Y-130036810D01*
X190267925Y-130036812D01*
X190267924Y-130036812D01*
X190134312Y-130170424D01*
X190134312Y-130170425D01*
X190134310Y-130170427D01*
X190103779Y-130212449D01*
X190023240Y-130323300D01*
X189937454Y-130491663D01*
X189879059Y-130671381D01*
X189849500Y-130858013D01*
X184952999Y-130858013D01*
X184952999Y-130491668D01*
X184952999Y-129452129D01*
X184952998Y-129452123D01*
X184948481Y-129410104D01*
X184946591Y-129392517D01*
X184941922Y-129380000D01*
X184896297Y-129257671D01*
X184896293Y-129257664D01*
X184810047Y-129142455D01*
X184810044Y-129142452D01*
X184694835Y-129056206D01*
X184694828Y-129056202D01*
X184559982Y-129005908D01*
X184559983Y-129005908D01*
X184500383Y-128999501D01*
X184500381Y-128999500D01*
X184500373Y-128999500D01*
X184500364Y-128999500D01*
X182499629Y-128999500D01*
X182499623Y-128999501D01*
X182440016Y-129005908D01*
X182305171Y-129056202D01*
X182305164Y-129056206D01*
X182189955Y-129142452D01*
X182189952Y-129142455D01*
X182103706Y-129257664D01*
X182103703Y-129257670D01*
X182093308Y-129285541D01*
X182051436Y-129341474D01*
X181985972Y-129365891D01*
X181917699Y-129351039D01*
X181904250Y-129342531D01*
X181721538Y-129209783D01*
X181517755Y-129105950D01*
X181300248Y-129035278D01*
X181114812Y-129005908D01*
X181074354Y-128999500D01*
X180845646Y-128999500D01*
X180805188Y-129005908D01*
X180619753Y-129035278D01*
X180619750Y-129035278D01*
X180402244Y-129105950D01*
X180198461Y-129209783D01*
X180094873Y-129285045D01*
X180013434Y-129344214D01*
X180013432Y-129344216D01*
X180013431Y-129344216D01*
X179851716Y-129505931D01*
X179851709Y-129505940D01*
X179790007Y-129590864D01*
X179734677Y-129633530D01*
X179665063Y-129639508D01*
X179603269Y-129606901D01*
X179589372Y-129590863D01*
X179527907Y-129506263D01*
X179527902Y-129506257D01*
X179366242Y-129344597D01*
X179181276Y-129210211D01*
X178977568Y-129106417D01*
X178760124Y-129035765D01*
X178670000Y-129021490D01*
X178670000Y-130009252D01*
X178632292Y-129987482D01*
X178492409Y-129950000D01*
X178347591Y-129950000D01*
X178207708Y-129987482D01*
X178170000Y-130009252D01*
X178170000Y-129021490D01*
X178169999Y-129021490D01*
X178079872Y-129035765D01*
X177980317Y-129068112D01*
X177952198Y-129068915D01*
X177924353Y-129072919D01*
X177917741Y-129069899D01*
X177910475Y-129070107D01*
X177886383Y-129055579D01*
X177860797Y-129043894D01*
X177856867Y-129037779D01*
X177850643Y-129034026D01*
X177838231Y-129008781D01*
X177823023Y-128985116D01*
X177821545Y-128974842D01*
X177819816Y-128971324D01*
X177818000Y-128950181D01*
X177818000Y-128802808D01*
X177837685Y-128735769D01*
X177890489Y-128690014D01*
X177959647Y-128680070D01*
X177961399Y-128680335D01*
X178085554Y-128700000D01*
X178274447Y-128700000D01*
X178461002Y-128670451D01*
X178640637Y-128612085D01*
X178808937Y-128526331D01*
X178834328Y-128507883D01*
X178834328Y-128507882D01*
X178176446Y-127850000D01*
X178226078Y-127850000D01*
X178315095Y-127826148D01*
X178394905Y-127780070D01*
X178460070Y-127714905D01*
X178506148Y-127635095D01*
X178530000Y-127546078D01*
X178530000Y-127499999D01*
X178533554Y-127499999D01*
X178533554Y-127500000D01*
X179187882Y-128154328D01*
X179187883Y-128154328D01*
X179206331Y-128128937D01*
X179292086Y-127960635D01*
X179331806Y-127838389D01*
X179371243Y-127780713D01*
X179435601Y-127753514D01*
X179504448Y-127765428D01*
X179555924Y-127812672D01*
X179567668Y-127838387D01*
X179607454Y-127960836D01*
X179687449Y-128117834D01*
X179693240Y-128129199D01*
X179804310Y-128282073D01*
X179937927Y-128415690D01*
X180090801Y-128526760D01*
X180114494Y-128538832D01*
X180259163Y-128612545D01*
X180259165Y-128612545D01*
X180259168Y-128612547D01*
X180323150Y-128633336D01*
X180438881Y-128670940D01*
X180625514Y-128700500D01*
X180625519Y-128700500D01*
X180814486Y-128700500D01*
X181001118Y-128670940D01*
X181002623Y-128670451D01*
X181180832Y-128612547D01*
X181349199Y-128526760D01*
X181502073Y-128415690D01*
X181635690Y-128282073D01*
X181746760Y-128129199D01*
X181832547Y-127960832D01*
X181890940Y-127781118D01*
X181895312Y-127753514D01*
X181920500Y-127594486D01*
X181920500Y-127405513D01*
X181890940Y-127218881D01*
X181863846Y-127135497D01*
X181832547Y-127039168D01*
X181832545Y-127039165D01*
X181832545Y-127039163D01*
X181746759Y-126870800D01*
X181734229Y-126853554D01*
X181635690Y-126717927D01*
X181502073Y-126584310D01*
X181349199Y-126473240D01*
X181323622Y-126460208D01*
X181180836Y-126387454D01*
X181001118Y-126329059D01*
X180814486Y-126299500D01*
X180814481Y-126299500D01*
X180625519Y-126299500D01*
X180625514Y-126299500D01*
X180438881Y-126329059D01*
X180259163Y-126387454D01*
X180090800Y-126473240D01*
X180003579Y-126536610D01*
X179937927Y-126584310D01*
X179937925Y-126584312D01*
X179937924Y-126584312D01*
X179804312Y-126717924D01*
X179804312Y-126717925D01*
X179804310Y-126717927D01*
X179756610Y-126783579D01*
X179693240Y-126870800D01*
X179607454Y-127039163D01*
X179567668Y-127161612D01*
X179528230Y-127219287D01*
X179463871Y-127246485D01*
X179395025Y-127234570D01*
X179343549Y-127187325D01*
X179331806Y-127161611D01*
X179292085Y-127039362D01*
X179206329Y-126871059D01*
X179187883Y-126845670D01*
X179187882Y-126845669D01*
X178533554Y-127499999D01*
X178530000Y-127499999D01*
X178530000Y-127453922D01*
X178506148Y-127364905D01*
X178460070Y-127285095D01*
X178394905Y-127219930D01*
X178315095Y-127173852D01*
X178226078Y-127150000D01*
X178176444Y-127150000D01*
X178834328Y-126492116D01*
X178808933Y-126473666D01*
X178640637Y-126387914D01*
X178461002Y-126329548D01*
X178274447Y-126300000D01*
X178085553Y-126300000D01*
X177961398Y-126319664D01*
X177892104Y-126310709D01*
X177838652Y-126265713D01*
X177818013Y-126198962D01*
X177818000Y-126197191D01*
X177818000Y-125929846D01*
X177837685Y-125862807D01*
X177854314Y-125842170D01*
X179010971Y-124685513D01*
X182299500Y-124685513D01*
X182299500Y-124874486D01*
X182329059Y-125061118D01*
X182387454Y-125240836D01*
X182454790Y-125372989D01*
X182473240Y-125409199D01*
X182584310Y-125562073D01*
X182717927Y-125695690D01*
X182870801Y-125806760D01*
X182950347Y-125847290D01*
X183039163Y-125892545D01*
X183039165Y-125892545D01*
X183039168Y-125892547D01*
X183124158Y-125920162D01*
X183160803Y-125932069D01*
X183218478Y-125971507D01*
X183245676Y-126035866D01*
X183233761Y-126104712D01*
X183186516Y-126156188D01*
X183160803Y-126167931D01*
X183039163Y-126207454D01*
X182870800Y-126293240D01*
X182813439Y-126334916D01*
X182717927Y-126404310D01*
X182717925Y-126404312D01*
X182717924Y-126404312D01*
X182584312Y-126537924D01*
X182584312Y-126537925D01*
X182584310Y-126537927D01*
X182565353Y-126564019D01*
X182473240Y-126690800D01*
X182387454Y-126859163D01*
X182329059Y-127038881D01*
X182299500Y-127225513D01*
X182299500Y-127414486D01*
X182329059Y-127601118D01*
X182387454Y-127780836D01*
X182435179Y-127874500D01*
X182473240Y-127949199D01*
X182584310Y-128102073D01*
X182717927Y-128235690D01*
X182870801Y-128346760D01*
X182950347Y-128387290D01*
X183039163Y-128432545D01*
X183039165Y-128432545D01*
X183039168Y-128432547D01*
X183105258Y-128454021D01*
X183218881Y-128490940D01*
X183405514Y-128520500D01*
X183405519Y-128520500D01*
X183594486Y-128520500D01*
X183781118Y-128490940D01*
X183796377Y-128485982D01*
X183960832Y-128432547D01*
X184129199Y-128346760D01*
X184282073Y-128235690D01*
X184415690Y-128102073D01*
X184433171Y-128078013D01*
X187579500Y-128078013D01*
X187579500Y-128266986D01*
X187609059Y-128453618D01*
X187667454Y-128633336D01*
X187719647Y-128735769D01*
X187753240Y-128801699D01*
X187864310Y-128954573D01*
X187997927Y-129088190D01*
X188150801Y-129199260D01*
X188230347Y-129239790D01*
X188319163Y-129285045D01*
X188319165Y-129285045D01*
X188319168Y-129285047D01*
X188415497Y-129316346D01*
X188498881Y-129343440D01*
X188685514Y-129373000D01*
X188685519Y-129373000D01*
X188874486Y-129373000D01*
X189061118Y-129343440D01*
X189067169Y-129341474D01*
X189240832Y-129285047D01*
X189409199Y-129199260D01*
X189562073Y-129088190D01*
X189695690Y-128954573D01*
X189806760Y-128801699D01*
X189892547Y-128633332D01*
X189932069Y-128511695D01*
X189971507Y-128454021D01*
X190035866Y-128426823D01*
X190104712Y-128438738D01*
X190156188Y-128485982D01*
X190167930Y-128511694D01*
X190176748Y-128538832D01*
X190207454Y-128633336D01*
X190259647Y-128735769D01*
X190293240Y-128801699D01*
X190404310Y-128954573D01*
X190537927Y-129088190D01*
X190690801Y-129199260D01*
X190770347Y-129239790D01*
X190859163Y-129285045D01*
X190859165Y-129285045D01*
X190859168Y-129285047D01*
X190955497Y-129316346D01*
X191038881Y-129343440D01*
X191225514Y-129373000D01*
X191225519Y-129373000D01*
X191414486Y-129373000D01*
X191601118Y-129343440D01*
X191607169Y-129341474D01*
X191780832Y-129285047D01*
X191949199Y-129199260D01*
X192102073Y-129088190D01*
X192235690Y-128954573D01*
X192346760Y-128801699D01*
X192432547Y-128633332D01*
X192490940Y-128453618D01*
X192496948Y-128415687D01*
X192520500Y-128266986D01*
X192520500Y-128172135D01*
X193049500Y-128172135D01*
X193049500Y-130172870D01*
X193049501Y-130172876D01*
X193055908Y-130232483D01*
X193106202Y-130367328D01*
X193106206Y-130367335D01*
X193192452Y-130482544D01*
X193192455Y-130482547D01*
X193307664Y-130568793D01*
X193307669Y-130568796D01*
X193335539Y-130579190D01*
X193391473Y-130621061D01*
X193415891Y-130686524D01*
X193401040Y-130754798D01*
X193392525Y-130768259D01*
X193259783Y-130950961D01*
X193155950Y-131154744D01*
X193085278Y-131372250D01*
X193085278Y-131372253D01*
X193049500Y-131598146D01*
X193049500Y-131826853D01*
X193085278Y-132052746D01*
X193085278Y-132052749D01*
X193155950Y-132270255D01*
X193255772Y-132466166D01*
X193259783Y-132474038D01*
X193394214Y-132659066D01*
X193555934Y-132820786D01*
X193640864Y-132882491D01*
X193683529Y-132937821D01*
X193689508Y-133007435D01*
X193656902Y-133069230D01*
X193640864Y-133083127D01*
X193556257Y-133144597D01*
X193394597Y-133306257D01*
X193260211Y-133491223D01*
X193156417Y-133694929D01*
X193085765Y-133912371D01*
X193071491Y-134002500D01*
X194059252Y-134002500D01*
X194037482Y-134040208D01*
X194000000Y-134180091D01*
X194000000Y-134324909D01*
X194037482Y-134464792D01*
X194059252Y-134502500D01*
X193071491Y-134502500D01*
X193085765Y-134592628D01*
X193156417Y-134810070D01*
X193260211Y-135013776D01*
X193394597Y-135198742D01*
X193556257Y-135360402D01*
X193741223Y-135494788D01*
X193944929Y-135598582D01*
X194162371Y-135669234D01*
X194300000Y-135691032D01*
X194300000Y-134743247D01*
X194337708Y-134765018D01*
X194477591Y-134802500D01*
X194622409Y-134802500D01*
X194762292Y-134765018D01*
X194800000Y-134743247D01*
X194800000Y-135691031D01*
X194937628Y-135669234D01*
X195155070Y-135598582D01*
X195358776Y-135494788D01*
X195543742Y-135360402D01*
X195705402Y-135198742D01*
X195839788Y-135013776D01*
X195943582Y-134810070D01*
X196014234Y-134592628D01*
X196028509Y-134502500D01*
X195040748Y-134502500D01*
X195062518Y-134464792D01*
X195100000Y-134324909D01*
X195100000Y-134180091D01*
X195062518Y-134040208D01*
X195040748Y-134002500D01*
X196028509Y-134002500D01*
X196014234Y-133912371D01*
X195943582Y-133694929D01*
X195839788Y-133491223D01*
X195705402Y-133306257D01*
X195543742Y-133144597D01*
X195459135Y-133083126D01*
X195416470Y-133027796D01*
X195410491Y-132958182D01*
X195443097Y-132896387D01*
X195459125Y-132882499D01*
X195544066Y-132820786D01*
X195705786Y-132659066D01*
X195840217Y-132474038D01*
X195944048Y-132270258D01*
X195984984Y-132144269D01*
X196014721Y-132052749D01*
X196014721Y-132052748D01*
X196014722Y-132052745D01*
X196050500Y-131826854D01*
X196050500Y-131598146D01*
X196014722Y-131372255D01*
X196014721Y-131372251D01*
X196014721Y-131372250D01*
X195944049Y-131154744D01*
X195909638Y-131087208D01*
X195840217Y-130950962D01*
X195707472Y-130768255D01*
X195683994Y-130702453D01*
X195699819Y-130634399D01*
X195749925Y-130585704D01*
X195764455Y-130579192D01*
X195792331Y-130568796D01*
X195907546Y-130482546D01*
X195993796Y-130367331D01*
X196044091Y-130232483D01*
X196050500Y-130172873D01*
X196050499Y-128172128D01*
X196044091Y-128112517D01*
X196042771Y-128108979D01*
X195993797Y-127977671D01*
X195993795Y-127977668D01*
X195983291Y-127963636D01*
X195983290Y-127963635D01*
X195963560Y-127937279D01*
X195907546Y-127862454D01*
X195907544Y-127862453D01*
X195907544Y-127862452D01*
X195792335Y-127776206D01*
X195792328Y-127776202D01*
X195657482Y-127725908D01*
X195657483Y-127725908D01*
X195597883Y-127719501D01*
X195597881Y-127719500D01*
X195597873Y-127719500D01*
X195597864Y-127719500D01*
X193502129Y-127719500D01*
X193502123Y-127719501D01*
X193442516Y-127725908D01*
X193307671Y-127776202D01*
X193307664Y-127776206D01*
X193192455Y-127862452D01*
X193192452Y-127862455D01*
X193106206Y-127977664D01*
X193106202Y-127977671D01*
X193055908Y-128112517D01*
X193049501Y-128172116D01*
X193049501Y-128172123D01*
X193049500Y-128172135D01*
X192520500Y-128172135D01*
X192520500Y-128078013D01*
X192490940Y-127891381D01*
X192453516Y-127776204D01*
X192432547Y-127711668D01*
X192432545Y-127711665D01*
X192432545Y-127711663D01*
X192375654Y-127600009D01*
X192346760Y-127543301D01*
X192235690Y-127390427D01*
X192102073Y-127256810D01*
X191949199Y-127145740D01*
X191780836Y-127059954D01*
X191601118Y-127001559D01*
X191414486Y-126972000D01*
X191414481Y-126972000D01*
X191225519Y-126972000D01*
X191225514Y-126972000D01*
X191038881Y-127001559D01*
X190859163Y-127059954D01*
X190690800Y-127145740D01*
X190636832Y-127184951D01*
X190537927Y-127256810D01*
X190537925Y-127256812D01*
X190537924Y-127256812D01*
X190404312Y-127390424D01*
X190404312Y-127390425D01*
X190404310Y-127390427D01*
X190386834Y-127414481D01*
X190293240Y-127543300D01*
X190207454Y-127711663D01*
X190167931Y-127833303D01*
X190128493Y-127890978D01*
X190064134Y-127918176D01*
X189995288Y-127906261D01*
X189943812Y-127859016D01*
X189932069Y-127833303D01*
X189913516Y-127776204D01*
X189892547Y-127711668D01*
X189892545Y-127711665D01*
X189892545Y-127711663D01*
X189835654Y-127600009D01*
X189806760Y-127543301D01*
X189695690Y-127390427D01*
X189562073Y-127256810D01*
X189409199Y-127145740D01*
X189240836Y-127059954D01*
X189061118Y-127001559D01*
X188874486Y-126972000D01*
X188874481Y-126972000D01*
X188685519Y-126972000D01*
X188685514Y-126972000D01*
X188498881Y-127001559D01*
X188319163Y-127059954D01*
X188150800Y-127145740D01*
X188096832Y-127184951D01*
X187997927Y-127256810D01*
X187997925Y-127256812D01*
X187997924Y-127256812D01*
X187864312Y-127390424D01*
X187864312Y-127390425D01*
X187864310Y-127390427D01*
X187846834Y-127414481D01*
X187753240Y-127543300D01*
X187667454Y-127711663D01*
X187609059Y-127891381D01*
X187579500Y-128078013D01*
X184433171Y-128078013D01*
X184526760Y-127949199D01*
X184612547Y-127780832D01*
X184670940Y-127601118D01*
X184673817Y-127582952D01*
X184700500Y-127414486D01*
X184700500Y-127225513D01*
X184670940Y-127038881D01*
X184630477Y-126914351D01*
X184612547Y-126859168D01*
X184612545Y-126859165D01*
X184612545Y-126859163D01*
X184540580Y-126717925D01*
X184526760Y-126690801D01*
X184415690Y-126537927D01*
X184282073Y-126404310D01*
X184251385Y-126382014D01*
X199620000Y-126382014D01*
X199620000Y-126617985D01*
X199650799Y-126851914D01*
X199711870Y-127079837D01*
X199802160Y-127297819D01*
X199802165Y-127297828D01*
X199920144Y-127502171D01*
X199920145Y-127502172D01*
X199982721Y-127583723D01*
X200818958Y-126747487D01*
X200843978Y-126807890D01*
X200915112Y-126914351D01*
X201005649Y-127004888D01*
X201112110Y-127076022D01*
X201172511Y-127101041D01*
X200336275Y-127937277D01*
X200417827Y-127999854D01*
X200417828Y-127999855D01*
X200622171Y-128117834D01*
X200622180Y-128117839D01*
X200840163Y-128208129D01*
X200840161Y-128208129D01*
X201068085Y-128269200D01*
X201302014Y-128299999D01*
X201302029Y-128300000D01*
X201537971Y-128300000D01*
X201537985Y-128299999D01*
X201771914Y-128269200D01*
X201999837Y-128208129D01*
X202217819Y-128117839D01*
X202217828Y-128117834D01*
X202422181Y-127999850D01*
X202503723Y-127937279D01*
X202503723Y-127937276D01*
X201667487Y-127101041D01*
X201727890Y-127076022D01*
X201834351Y-127004888D01*
X201924888Y-126914351D01*
X201996022Y-126807890D01*
X202021041Y-126747488D01*
X202857276Y-127583723D01*
X202857279Y-127583723D01*
X202919850Y-127502181D01*
X203037834Y-127297828D01*
X203037839Y-127297819D01*
X203128129Y-127079837D01*
X203189200Y-126851914D01*
X203219999Y-126617985D01*
X203220000Y-126617971D01*
X203220000Y-126382028D01*
X203219999Y-126382014D01*
X203189200Y-126148085D01*
X203128129Y-125920162D01*
X203037839Y-125702180D01*
X203037834Y-125702171D01*
X202919855Y-125497828D01*
X202919848Y-125497817D01*
X202900286Y-125472324D01*
X202900283Y-125472321D01*
X202857277Y-125416275D01*
X202021041Y-126252511D01*
X201996022Y-126192110D01*
X201924888Y-126085649D01*
X201834351Y-125995112D01*
X201727890Y-125923978D01*
X201667488Y-125898958D01*
X202166462Y-125399983D01*
X204699500Y-125399983D01*
X204699500Y-127600001D01*
X204699501Y-127600018D01*
X204710000Y-127702796D01*
X204710001Y-127702799D01*
X204765185Y-127869331D01*
X204765187Y-127869336D01*
X204778785Y-127891382D01*
X204857288Y-128018656D01*
X204981344Y-128142712D01*
X205130666Y-128234814D01*
X205297203Y-128289999D01*
X205399991Y-128300500D01*
X207600008Y-128300499D01*
X207702797Y-128289999D01*
X207869334Y-128234814D01*
X208018656Y-128142712D01*
X208142712Y-128018656D01*
X208234814Y-127869334D01*
X208289999Y-127702797D01*
X208300500Y-127600009D01*
X208300499Y-125399992D01*
X208289999Y-125297203D01*
X208234814Y-125130666D01*
X208142712Y-124981344D01*
X208018656Y-124857288D01*
X207869334Y-124765186D01*
X207702797Y-124710001D01*
X207702795Y-124710000D01*
X207600010Y-124699500D01*
X205399998Y-124699500D01*
X205399981Y-124699501D01*
X205297203Y-124710000D01*
X205297200Y-124710001D01*
X205130668Y-124765185D01*
X205130663Y-124765187D01*
X204981342Y-124857289D01*
X204857289Y-124981342D01*
X204765187Y-125130663D01*
X204765185Y-125130668D01*
X204759035Y-125149228D01*
X204710001Y-125297203D01*
X204710001Y-125297204D01*
X204710000Y-125297204D01*
X204699500Y-125399983D01*
X202166462Y-125399983D01*
X202503723Y-125062721D01*
X202422172Y-125000145D01*
X202422171Y-125000144D01*
X202217828Y-124882165D01*
X202217819Y-124882160D01*
X201999836Y-124791870D01*
X201999838Y-124791870D01*
X201771914Y-124730799D01*
X201537985Y-124700000D01*
X201302014Y-124700000D01*
X201068085Y-124730799D01*
X200840162Y-124791870D01*
X200622180Y-124882160D01*
X200622171Y-124882165D01*
X200417828Y-125000144D01*
X200417818Y-125000150D01*
X200336275Y-125062720D01*
X200336275Y-125062721D01*
X201172512Y-125898958D01*
X201112110Y-125923978D01*
X201005649Y-125995112D01*
X200915112Y-126085649D01*
X200843978Y-126192110D01*
X200818958Y-126252511D01*
X199982721Y-125416275D01*
X199982720Y-125416275D01*
X199920150Y-125497818D01*
X199920144Y-125497828D01*
X199802165Y-125702171D01*
X199802160Y-125702180D01*
X199711870Y-125920162D01*
X199650799Y-126148085D01*
X199620000Y-126382014D01*
X184251385Y-126382014D01*
X184129199Y-126293240D01*
X184099954Y-126278339D01*
X183960836Y-126207454D01*
X183886472Y-126183291D01*
X183839195Y-126167930D01*
X183781521Y-126128493D01*
X183754323Y-126064134D01*
X183766238Y-125995288D01*
X183813482Y-125943812D01*
X183839194Y-125932069D01*
X183960832Y-125892547D01*
X184129199Y-125806760D01*
X184282073Y-125695690D01*
X184415690Y-125562073D01*
X184526760Y-125409199D01*
X184612547Y-125240832D01*
X184670940Y-125061118D01*
X184677233Y-125021385D01*
X184700500Y-124874486D01*
X184700500Y-124685513D01*
X184670940Y-124498881D01*
X184612545Y-124319163D01*
X184526759Y-124150800D01*
X184415690Y-123997927D01*
X184282073Y-123864310D01*
X184129199Y-123753240D01*
X184084106Y-123730264D01*
X183960836Y-123667454D01*
X183781118Y-123609059D01*
X183594486Y-123579500D01*
X183594481Y-123579500D01*
X183405519Y-123579500D01*
X183405514Y-123579500D01*
X183218881Y-123609059D01*
X183039163Y-123667454D01*
X182870800Y-123753240D01*
X182819371Y-123790606D01*
X182717927Y-123864310D01*
X182717925Y-123864312D01*
X182717924Y-123864312D01*
X182584312Y-123997924D01*
X182584312Y-123997925D01*
X182584310Y-123997927D01*
X182536610Y-124063579D01*
X182473240Y-124150800D01*
X182387454Y-124319163D01*
X182329059Y-124498881D01*
X182299500Y-124685513D01*
X179010971Y-124685513D01*
X183323047Y-120373436D01*
X183384368Y-120339953D01*
X183449044Y-120343188D01*
X183519299Y-120366015D01*
X183737028Y-120400500D01*
X183737029Y-120400500D01*
X183957471Y-120400500D01*
X183957472Y-120400500D01*
X184175201Y-120366015D01*
X184384856Y-120297895D01*
X184581272Y-120197815D01*
X184759615Y-120068242D01*
X184880209Y-119947648D01*
X192699500Y-119947648D01*
X192699500Y-120152351D01*
X192731522Y-120354534D01*
X192794781Y-120549223D01*
X192848531Y-120654711D01*
X192882385Y-120721154D01*
X192887715Y-120731613D01*
X193008028Y-120897213D01*
X193152786Y-121041971D01*
X193294504Y-121144933D01*
X193318390Y-121162287D01*
X193500781Y-121255220D01*
X193558373Y-121273932D01*
X193607735Y-121304182D01*
X193953554Y-121650000D01*
X193947339Y-121650000D01*
X193845606Y-121677259D01*
X193754394Y-121729920D01*
X193679920Y-121804394D01*
X193627259Y-121895606D01*
X193600000Y-121997339D01*
X193600000Y-122003553D01*
X192920524Y-121324077D01*
X192920523Y-121324077D01*
X192888143Y-121368644D01*
X192795244Y-121550968D01*
X192732009Y-121745582D01*
X192700000Y-121947682D01*
X192700000Y-122152317D01*
X192732009Y-122354417D01*
X192795244Y-122549031D01*
X192888141Y-122731350D01*
X192888147Y-122731359D01*
X192920523Y-122775921D01*
X192920524Y-122775922D01*
X193600000Y-122096446D01*
X193600000Y-122102661D01*
X193627259Y-122204394D01*
X193679920Y-122295606D01*
X193754394Y-122370080D01*
X193845606Y-122422741D01*
X193947339Y-122450000D01*
X193953553Y-122450000D01*
X193274076Y-123129474D01*
X193318650Y-123161859D01*
X193500968Y-123254755D01*
X193695582Y-123317990D01*
X193897683Y-123350000D01*
X194102317Y-123350000D01*
X194304417Y-123317990D01*
X194499031Y-123254755D01*
X194681349Y-123161859D01*
X194725921Y-123129474D01*
X194046447Y-122450000D01*
X194052661Y-122450000D01*
X194154394Y-122422741D01*
X194245606Y-122370080D01*
X194320080Y-122295606D01*
X194372741Y-122204394D01*
X194400000Y-122102661D01*
X194400000Y-122096447D01*
X195079474Y-122775921D01*
X195111859Y-122731349D01*
X195204755Y-122549031D01*
X195267990Y-122354417D01*
X195300000Y-122152317D01*
X195300000Y-121947682D01*
X195267990Y-121745582D01*
X195204755Y-121550968D01*
X195111859Y-121368650D01*
X195079474Y-121324077D01*
X195079474Y-121324076D01*
X194400000Y-122003551D01*
X194400000Y-121997339D01*
X194372741Y-121895606D01*
X194320080Y-121804394D01*
X194245606Y-121729920D01*
X194154394Y-121677259D01*
X194052661Y-121650000D01*
X194046447Y-121650000D01*
X194392262Y-121304183D01*
X194441626Y-121273933D01*
X194499213Y-121255222D01*
X194499219Y-121255220D01*
X194499223Y-121255218D01*
X194681610Y-121162287D01*
X194801312Y-121075319D01*
X194847213Y-121041971D01*
X194847215Y-121041968D01*
X194847219Y-121041966D01*
X194991966Y-120897219D01*
X194991968Y-120897215D01*
X194991971Y-120897213D01*
X195089942Y-120762365D01*
X195112287Y-120731610D01*
X195205220Y-120549219D01*
X195268477Y-120354534D01*
X195300500Y-120152352D01*
X195300500Y-119947648D01*
X195268477Y-119745466D01*
X195205220Y-119550781D01*
X195205218Y-119550778D01*
X195205218Y-119550776D01*
X195160264Y-119462550D01*
X195112287Y-119368390D01*
X195104556Y-119357749D01*
X194991971Y-119202786D01*
X194847213Y-119058028D01*
X194681613Y-118937715D01*
X194681612Y-118937714D01*
X194681610Y-118937713D01*
X194597760Y-118894989D01*
X194499223Y-118844781D01*
X194304534Y-118781522D01*
X194129995Y-118753878D01*
X194102352Y-118749500D01*
X193897648Y-118749500D01*
X193873329Y-118753351D01*
X193695465Y-118781522D01*
X193500776Y-118844781D01*
X193318386Y-118937715D01*
X193152786Y-119058028D01*
X193008028Y-119202786D01*
X192887715Y-119368386D01*
X192794781Y-119550776D01*
X192731522Y-119745465D01*
X192699500Y-119947648D01*
X184880209Y-119947648D01*
X184915492Y-119912365D01*
X184917896Y-119909055D01*
X184946352Y-119869891D01*
X185036751Y-119745465D01*
X185045065Y-119734022D01*
X185145145Y-119537606D01*
X185213265Y-119327951D01*
X185247750Y-119110222D01*
X185247750Y-118889778D01*
X185213265Y-118672049D01*
X185154883Y-118492365D01*
X185145146Y-118462396D01*
X185145145Y-118462393D01*
X185110487Y-118394375D01*
X185045065Y-118265978D01*
X185024338Y-118237449D01*
X184915497Y-118087641D01*
X184915493Y-118087636D01*
X184759613Y-117931756D01*
X184759608Y-117931752D01*
X184619995Y-117830318D01*
X184577329Y-117774989D01*
X184571350Y-117705375D01*
X184603955Y-117643580D01*
X184619995Y-117629682D01*
X184759608Y-117528247D01*
X184759606Y-117528247D01*
X184759615Y-117528242D01*
X184915492Y-117372365D01*
X185045065Y-117194022D01*
X185145145Y-116997606D01*
X185213265Y-116787951D01*
X185247750Y-116570222D01*
X185247750Y-116349778D01*
X185213265Y-116132049D01*
X185154883Y-115952365D01*
X185145146Y-115922396D01*
X185145145Y-115922393D01*
X185110487Y-115854375D01*
X185045065Y-115725978D01*
X185015347Y-115685075D01*
X184915497Y-115547641D01*
X184915493Y-115547636D01*
X184759613Y-115391756D01*
X184759608Y-115391752D01*
X184619995Y-115290318D01*
X184577329Y-115234989D01*
X184571350Y-115165375D01*
X184603955Y-115103580D01*
X184619995Y-115089682D01*
X184759608Y-114988247D01*
X184759606Y-114988247D01*
X184759615Y-114988242D01*
X184915492Y-114832365D01*
X185045065Y-114654022D01*
X185145145Y-114457606D01*
X185213265Y-114247951D01*
X185247750Y-114030222D01*
X185247750Y-113809778D01*
X185213265Y-113592049D01*
X185154883Y-113412365D01*
X185145146Y-113382396D01*
X185145145Y-113382393D01*
X185110487Y-113314375D01*
X185045065Y-113185978D01*
X185024338Y-113157449D01*
X184915497Y-113007641D01*
X184915493Y-113007636D01*
X184759613Y-112851756D01*
X184759608Y-112851752D01*
X184619995Y-112750318D01*
X184577329Y-112694989D01*
X184571350Y-112625375D01*
X184603955Y-112563580D01*
X184619995Y-112549682D01*
X184759608Y-112448247D01*
X184759606Y-112448247D01*
X184759615Y-112448242D01*
X184915492Y-112292365D01*
X185045065Y-112114022D01*
X185145145Y-111917606D01*
X185213265Y-111707951D01*
X185247750Y-111490222D01*
X185247750Y-111269778D01*
X185213265Y-111052049D01*
X185154883Y-110872365D01*
X185145146Y-110842396D01*
X185145145Y-110842393D01*
X185110487Y-110774375D01*
X185045065Y-110645978D01*
X185015347Y-110605075D01*
X184915497Y-110467641D01*
X184915493Y-110467636D01*
X184759613Y-110311756D01*
X184759608Y-110311752D01*
X184619995Y-110210318D01*
X184577329Y-110154989D01*
X184571350Y-110085375D01*
X184603955Y-110023580D01*
X184619995Y-110009682D01*
X184759607Y-109908248D01*
X184759607Y-109908247D01*
X184759615Y-109908242D01*
X184890040Y-109777816D01*
X184951359Y-109744334D01*
X185021051Y-109749318D01*
X185065399Y-109777819D01*
X189713681Y-114426101D01*
X189747166Y-114487424D01*
X189750000Y-114513782D01*
X189750000Y-115559252D01*
X189712292Y-115537482D01*
X189572409Y-115500000D01*
X189427591Y-115500000D01*
X189287708Y-115537482D01*
X189250000Y-115559252D01*
X189250000Y-114550000D01*
X188499655Y-114550000D01*
X188440127Y-114556401D01*
X188440120Y-114556403D01*
X188305413Y-114606645D01*
X188305406Y-114606649D01*
X188190312Y-114692809D01*
X188190309Y-114692812D01*
X188104149Y-114807906D01*
X188104145Y-114807913D01*
X188053903Y-114942620D01*
X188053901Y-114942627D01*
X188047500Y-115002155D01*
X188047500Y-115800000D01*
X189009252Y-115800000D01*
X188987482Y-115837708D01*
X188950000Y-115977591D01*
X188950000Y-116122409D01*
X188987482Y-116262292D01*
X189009252Y-116300000D01*
X188047500Y-116300000D01*
X188047500Y-117097844D01*
X188053901Y-117157372D01*
X188053903Y-117157379D01*
X188104145Y-117292086D01*
X188104149Y-117292093D01*
X188190309Y-117407187D01*
X188190312Y-117407190D01*
X188305406Y-117493350D01*
X188305413Y-117493354D01*
X188440120Y-117543596D01*
X188440127Y-117543598D01*
X188499655Y-117549999D01*
X188499672Y-117550000D01*
X189250000Y-117550000D01*
X189250000Y-116540747D01*
X189287708Y-116562518D01*
X189427591Y-116600000D01*
X189572409Y-116600000D01*
X189712292Y-116562518D01*
X189750000Y-116540747D01*
X189750000Y-117550000D01*
X190500328Y-117550000D01*
X190500344Y-117549999D01*
X190559872Y-117543598D01*
X190559879Y-117543596D01*
X190694586Y-117493354D01*
X190694593Y-117493350D01*
X190809687Y-117407190D01*
X190809690Y-117407187D01*
X190895850Y-117292093D01*
X190895854Y-117292086D01*
X190906272Y-117264155D01*
X190948143Y-117208221D01*
X191013607Y-117183804D01*
X191081880Y-117198655D01*
X191095331Y-117207164D01*
X191278462Y-117340217D01*
X191409904Y-117407190D01*
X191482244Y-117444049D01*
X191699751Y-117514721D01*
X191699752Y-117514721D01*
X191699755Y-117514722D01*
X191925646Y-117550500D01*
X191925647Y-117550500D01*
X192154353Y-117550500D01*
X192154354Y-117550500D01*
X192380245Y-117514722D01*
X192380248Y-117514721D01*
X192380249Y-117514721D01*
X192597755Y-117444049D01*
X192597755Y-117444048D01*
X192597758Y-117444048D01*
X192801538Y-117340217D01*
X192986566Y-117205786D01*
X193148286Y-117044066D01*
X193209683Y-116959559D01*
X193265012Y-116916896D01*
X193334625Y-116910917D01*
X193396420Y-116943523D01*
X193410314Y-116959556D01*
X193471714Y-117044066D01*
X193633434Y-117205786D01*
X193818462Y-117340217D01*
X193949904Y-117407190D01*
X194022244Y-117444049D01*
X194239751Y-117514721D01*
X194239752Y-117514721D01*
X194239755Y-117514722D01*
X194465646Y-117550500D01*
X194465647Y-117550500D01*
X194694353Y-117550500D01*
X194694354Y-117550500D01*
X194920245Y-117514722D01*
X194920248Y-117514721D01*
X194920249Y-117514721D01*
X195137755Y-117444049D01*
X195137755Y-117444048D01*
X195137758Y-117444048D01*
X195341538Y-117340217D01*
X195526566Y-117205786D01*
X195688286Y-117044066D01*
X195822717Y-116859038D01*
X195926548Y-116655258D01*
X195973174Y-116511758D01*
X195997221Y-116437749D01*
X195997221Y-116437748D01*
X195997222Y-116437745D01*
X196033000Y-116211854D01*
X196033000Y-115888146D01*
X195997222Y-115662255D01*
X195997221Y-115662251D01*
X195997221Y-115662250D01*
X195926549Y-115444744D01*
X195899548Y-115391752D01*
X195822717Y-115240962D01*
X195688286Y-115055934D01*
X195526566Y-114894214D01*
X195341538Y-114759783D01*
X195210100Y-114692812D01*
X195137755Y-114655950D01*
X194920248Y-114585278D01*
X194737925Y-114556401D01*
X194694354Y-114549500D01*
X194465646Y-114549500D01*
X194422063Y-114556403D01*
X194239753Y-114585278D01*
X194239750Y-114585278D01*
X194022244Y-114655950D01*
X193818461Y-114759783D01*
X193752217Y-114807913D01*
X193633434Y-114894214D01*
X193633432Y-114894216D01*
X193633431Y-114894216D01*
X193471715Y-115055932D01*
X193410318Y-115140438D01*
X193391707Y-115154788D01*
X193376169Y-115172422D01*
X193364550Y-115175728D01*
X193354987Y-115183103D01*
X193331575Y-115185113D01*
X193308968Y-115191548D01*
X193297406Y-115188048D01*
X193285374Y-115189082D01*
X193264588Y-115178114D01*
X193242095Y-115171306D01*
X193230180Y-115159959D01*
X193223579Y-115156476D01*
X193215615Y-115147972D01*
X193212496Y-115144311D01*
X193148286Y-115055934D01*
X193073322Y-114980970D01*
X193070115Y-114977206D01*
X193057803Y-114949642D01*
X193043334Y-114923144D01*
X193042499Y-114915379D01*
X193041620Y-114913411D01*
X193042011Y-114910841D01*
X193040500Y-114896786D01*
X193040500Y-114484223D01*
X193040499Y-114484221D01*
X193002053Y-114290942D01*
X193002052Y-114290941D01*
X193002051Y-114290932D01*
X193001133Y-114288716D01*
X192977804Y-114232394D01*
X192969288Y-114211834D01*
X192926635Y-114108860D01*
X192926634Y-114108859D01*
X192926632Y-114108853D01*
X192877936Y-114035974D01*
X192817139Y-113944984D01*
X192674686Y-113802531D01*
X192674655Y-113802502D01*
X190685808Y-111813655D01*
X190680750Y-111804392D01*
X190672455Y-111797864D01*
X190664293Y-111774253D01*
X190652323Y-111752332D01*
X190653075Y-111741804D01*
X190649627Y-111731828D01*
X190655525Y-111707555D01*
X190657307Y-111682640D01*
X190664069Y-111672391D01*
X190666125Y-111663934D01*
X190679308Y-111649298D01*
X190687952Y-111636199D01*
X190826344Y-111504340D01*
X190856126Y-111489000D01*
X190885522Y-111472949D01*
X190887074Y-111473060D01*
X190888459Y-111472347D01*
X190921817Y-111475544D01*
X190955214Y-111477933D01*
X190956459Y-111478865D01*
X190958010Y-111479014D01*
X190984340Y-111499736D01*
X191011148Y-111519804D01*
X191012658Y-111522022D01*
X191012915Y-111522225D01*
X191013038Y-111522580D01*
X191017418Y-111529016D01*
X191057288Y-111593656D01*
X191181344Y-111717712D01*
X191330666Y-111809814D01*
X191497203Y-111864999D01*
X191599991Y-111875500D01*
X192400008Y-111875499D01*
X192400016Y-111875498D01*
X192400019Y-111875498D01*
X192456302Y-111869748D01*
X192502797Y-111864999D01*
X192669334Y-111809814D01*
X192818656Y-111717712D01*
X192942712Y-111593656D01*
X193034814Y-111444334D01*
X193089999Y-111277797D01*
X193100500Y-111175009D01*
X193100499Y-109824992D01*
X193095554Y-109776588D01*
X193089999Y-109722203D01*
X193089998Y-109722200D01*
X193079328Y-109690000D01*
X193034814Y-109555666D01*
X192942712Y-109406344D01*
X192818656Y-109282288D01*
X192669334Y-109190186D01*
X192502797Y-109135001D01*
X192502795Y-109135000D01*
X192400010Y-109124500D01*
X191599998Y-109124500D01*
X191599980Y-109124501D01*
X191497203Y-109135000D01*
X191497200Y-109135001D01*
X191330668Y-109190185D01*
X191330663Y-109190187D01*
X191181342Y-109282289D01*
X191057289Y-109406342D01*
X191017420Y-109470981D01*
X190965472Y-109517705D01*
X190896509Y-109528928D01*
X190832427Y-109501084D01*
X190824200Y-109493565D01*
X190716602Y-109385967D01*
X190576524Y-109284195D01*
X190422257Y-109205591D01*
X190257589Y-109152087D01*
X190257581Y-109152085D01*
X190250000Y-109150884D01*
X190250000Y-110219670D01*
X190230255Y-110199925D01*
X190144745Y-110150556D01*
X190049370Y-110125000D01*
X189950630Y-110125000D01*
X189855255Y-110150556D01*
X189769745Y-110199925D01*
X189750000Y-110219670D01*
X189750000Y-109150884D01*
X189749999Y-109150884D01*
X189742418Y-109152085D01*
X189742410Y-109152087D01*
X189577742Y-109205591D01*
X189423475Y-109284195D01*
X189283397Y-109385967D01*
X189160967Y-109508397D01*
X189059195Y-109648475D01*
X188980591Y-109802744D01*
X188968153Y-109841025D01*
X188928715Y-109898701D01*
X188864357Y-109925899D01*
X188795510Y-109913984D01*
X188762541Y-109890388D01*
X187822136Y-108949983D01*
X195699500Y-108949983D01*
X195699500Y-110150001D01*
X195699501Y-110150018D01*
X195710000Y-110252796D01*
X195710001Y-110252799D01*
X195765185Y-110419331D01*
X195765187Y-110419336D01*
X195779807Y-110443039D01*
X195857288Y-110568656D01*
X195981344Y-110692712D01*
X196130666Y-110784814D01*
X196297203Y-110839999D01*
X196399991Y-110850500D01*
X197600008Y-110850499D01*
X197702797Y-110839999D01*
X197869334Y-110784814D01*
X198018656Y-110692712D01*
X198142712Y-110568656D01*
X198234814Y-110419334D01*
X198289999Y-110252797D01*
X198300500Y-110150009D01*
X198300499Y-109447682D01*
X200700000Y-109447682D01*
X200700000Y-109652317D01*
X200732009Y-109854417D01*
X200795244Y-110049031D01*
X200888141Y-110231350D01*
X200888147Y-110231359D01*
X200920523Y-110275921D01*
X200920524Y-110275922D01*
X201600000Y-109596446D01*
X201600000Y-109602661D01*
X201627259Y-109704394D01*
X201679920Y-109795606D01*
X201754394Y-109870080D01*
X201845606Y-109922741D01*
X201947339Y-109950000D01*
X201953553Y-109950000D01*
X201274076Y-110629474D01*
X201318650Y-110661859D01*
X201500968Y-110754755D01*
X201695582Y-110817990D01*
X201897683Y-110850000D01*
X202102317Y-110850000D01*
X202304417Y-110817990D01*
X202499031Y-110754755D01*
X202681349Y-110661859D01*
X202725921Y-110629474D01*
X202046447Y-109950000D01*
X202052661Y-109950000D01*
X202154394Y-109922741D01*
X202245606Y-109870080D01*
X202320080Y-109795606D01*
X202372741Y-109704394D01*
X202400000Y-109602661D01*
X202400000Y-109596447D01*
X203079474Y-110275921D01*
X203111859Y-110231349D01*
X203204755Y-110049031D01*
X203267990Y-109854417D01*
X203300000Y-109652317D01*
X203300000Y-109447682D01*
X203267990Y-109245582D01*
X203204755Y-109050968D01*
X203111859Y-108868650D01*
X203079474Y-108824077D01*
X203079474Y-108824076D01*
X202400000Y-109503551D01*
X202400000Y-109497339D01*
X202372741Y-109395606D01*
X202320080Y-109304394D01*
X202245606Y-109229920D01*
X202154394Y-109177259D01*
X202052661Y-109150000D01*
X202046446Y-109150000D01*
X202725922Y-108470524D01*
X202725921Y-108470523D01*
X202681359Y-108438147D01*
X202681350Y-108438141D01*
X202499031Y-108345244D01*
X202304417Y-108282009D01*
X202102317Y-108250000D01*
X201897683Y-108250000D01*
X201695582Y-108282009D01*
X201500968Y-108345244D01*
X201318644Y-108438143D01*
X201274077Y-108470523D01*
X201274077Y-108470524D01*
X201953554Y-109150000D01*
X201947339Y-109150000D01*
X201845606Y-109177259D01*
X201754394Y-109229920D01*
X201679920Y-109304394D01*
X201627259Y-109395606D01*
X201600000Y-109497339D01*
X201600000Y-109503553D01*
X200920524Y-108824077D01*
X200920523Y-108824077D01*
X200888143Y-108868644D01*
X200795244Y-109050968D01*
X200732009Y-109245582D01*
X200700000Y-109447682D01*
X198300499Y-109447682D01*
X198300499Y-108949992D01*
X198289999Y-108847203D01*
X198234814Y-108680666D01*
X198225382Y-108665375D01*
X198174500Y-108582881D01*
X198174499Y-108582880D01*
X198142712Y-108531344D01*
X198018656Y-108407288D01*
X197897183Y-108332363D01*
X197869336Y-108315187D01*
X197869331Y-108315185D01*
X197830727Y-108302393D01*
X197702797Y-108260001D01*
X197702795Y-108260000D01*
X197600010Y-108249500D01*
X196399998Y-108249500D01*
X196399981Y-108249501D01*
X196297203Y-108260000D01*
X196297200Y-108260001D01*
X196130668Y-108315185D01*
X196130663Y-108315187D01*
X195981342Y-108407289D01*
X195857289Y-108531342D01*
X195765187Y-108680663D01*
X195765186Y-108680666D01*
X195710001Y-108847203D01*
X195710001Y-108847204D01*
X195710000Y-108847204D01*
X195699500Y-108949983D01*
X187822136Y-108949983D01*
X186434069Y-107561916D01*
X186400584Y-107500593D01*
X186397750Y-107474235D01*
X186397750Y-105211458D01*
X186397749Y-105211457D01*
X186375679Y-105100500D01*
X186359301Y-105018164D01*
X186334303Y-104957815D01*
X186331718Y-104951574D01*
X186283885Y-104836092D01*
X186283883Y-104836088D01*
X186283882Y-104836086D01*
X186278644Y-104828247D01*
X186174389Y-104672217D01*
X186064508Y-104562336D01*
X186064508Y-104562337D01*
X186035032Y-104532861D01*
X186035028Y-104532858D01*
X185980881Y-104478711D01*
X203549500Y-104478711D01*
X203549500Y-104721288D01*
X203581161Y-104961785D01*
X203643947Y-105196104D01*
X203736773Y-105420205D01*
X203736776Y-105420212D01*
X203858064Y-105630289D01*
X203858066Y-105630292D01*
X203858067Y-105630293D01*
X204005733Y-105822736D01*
X204005739Y-105822743D01*
X204177256Y-105994260D01*
X204177262Y-105994265D01*
X204369711Y-106141936D01*
X204579788Y-106263224D01*
X204775269Y-106344195D01*
X204793528Y-106351758D01*
X204803900Y-106356054D01*
X205038211Y-106418838D01*
X205218586Y-106442584D01*
X205278711Y-106450500D01*
X205278712Y-106450500D01*
X205521289Y-106450500D01*
X205569388Y-106444167D01*
X205761789Y-106418838D01*
X205996100Y-106356054D01*
X206220212Y-106263224D01*
X206430289Y-106141936D01*
X206622738Y-105994265D01*
X206794265Y-105822738D01*
X206941936Y-105630289D01*
X207063224Y-105420212D01*
X207156054Y-105196100D01*
X207218838Y-104961789D01*
X207250500Y-104721288D01*
X207250500Y-104478712D01*
X207218838Y-104238211D01*
X207156054Y-104003900D01*
X207063224Y-103779788D01*
X206941936Y-103569711D01*
X206844846Y-103443181D01*
X206794266Y-103377263D01*
X206794260Y-103377256D01*
X206622743Y-103205739D01*
X206622736Y-103205733D01*
X206430293Y-103058067D01*
X206430292Y-103058066D01*
X206430289Y-103058064D01*
X206220212Y-102936776D01*
X206220205Y-102936773D01*
X205996104Y-102843947D01*
X205761785Y-102781161D01*
X205521289Y-102749500D01*
X205521288Y-102749500D01*
X205278712Y-102749500D01*
X205278711Y-102749500D01*
X205038214Y-102781161D01*
X204803895Y-102843947D01*
X204579794Y-102936773D01*
X204579785Y-102936777D01*
X204369706Y-103058067D01*
X204177263Y-103205733D01*
X204177256Y-103205739D01*
X204005739Y-103377256D01*
X204005733Y-103377263D01*
X203858067Y-103569706D01*
X203858064Y-103569710D01*
X203858064Y-103569711D01*
X203850909Y-103582104D01*
X203736777Y-103779785D01*
X203736773Y-103779794D01*
X203643947Y-104003895D01*
X203581161Y-104238214D01*
X203549500Y-104478711D01*
X185980881Y-104478711D01*
X185284069Y-103781899D01*
X185250584Y-103720576D01*
X185247750Y-103694218D01*
X185247750Y-103649778D01*
X185213265Y-103432049D01*
X185153081Y-103246819D01*
X185145146Y-103222396D01*
X185145145Y-103222393D01*
X185061415Y-103058067D01*
X185045065Y-103025978D01*
X184980257Y-102936777D01*
X184915497Y-102847641D01*
X184915493Y-102847636D01*
X184759613Y-102691756D01*
X184759608Y-102691752D01*
X184581275Y-102562187D01*
X184581274Y-102562186D01*
X184581272Y-102562185D01*
X184518346Y-102530122D01*
X184384856Y-102462104D01*
X184384853Y-102462103D01*
X184175202Y-102393985D01*
X184066336Y-102376742D01*
X183957472Y-102359500D01*
X183737028Y-102359500D01*
X183737023Y-102359500D01*
X183606640Y-102380151D01*
X183537347Y-102371197D01*
X183499561Y-102345359D01*
X182730761Y-101576559D01*
X182730741Y-101576537D01*
X182587067Y-101432863D01*
X182587063Y-101432860D01*
X182423202Y-101323371D01*
X182423193Y-101323366D01*
X182350597Y-101293296D01*
X182294447Y-101270038D01*
X182241118Y-101247949D01*
X182241114Y-101247948D01*
X182241110Y-101247946D01*
X182144470Y-101228724D01*
X182047826Y-101209500D01*
X182047823Y-101209500D01*
X167571459Y-101209500D01*
X167571455Y-101209500D01*
X167474812Y-101228724D01*
X167378167Y-101247947D01*
X167378161Y-101247949D01*
X167324834Y-101270037D01*
X167324834Y-101270038D01*
X167279315Y-101288892D01*
X167196089Y-101323366D01*
X167196079Y-101323371D01*
X167032219Y-101432859D01*
X166962540Y-101502538D01*
X166892861Y-101572218D01*
X166892858Y-101572221D01*
X165021899Y-103443181D01*
X164960576Y-103476666D01*
X164934218Y-103479500D01*
X164889778Y-103479500D01*
X164817201Y-103490995D01*
X164672047Y-103513985D01*
X164462396Y-103582103D01*
X164462393Y-103582104D01*
X164265974Y-103682187D01*
X164087641Y-103811752D01*
X164087636Y-103811756D01*
X163931756Y-103967636D01*
X163931752Y-103967641D01*
X163802187Y-104145974D01*
X163702104Y-104342393D01*
X163702103Y-104342396D01*
X163633985Y-104552047D01*
X163614952Y-104672217D01*
X163599500Y-104769778D01*
X163599500Y-104990222D01*
X163609749Y-105054933D01*
X163633985Y-105207952D01*
X163702103Y-105417603D01*
X163702104Y-105417606D01*
X163802187Y-105614025D01*
X163931752Y-105792358D01*
X163931756Y-105792363D01*
X164087640Y-105948247D01*
X164227679Y-106049990D01*
X164270345Y-106105319D01*
X164276324Y-106174933D01*
X164243719Y-106236728D01*
X164227679Y-106250626D01*
X164202485Y-106268930D01*
X164202485Y-106268932D01*
X164870590Y-106937037D01*
X164807007Y-106954075D01*
X164692993Y-107019901D01*
X164599901Y-107112993D01*
X164534075Y-107227007D01*
X164517037Y-107290590D01*
X163848932Y-106622485D01*
X163848931Y-106622485D01*
X163802616Y-106686233D01*
X163702567Y-106882589D01*
X163634473Y-107092164D01*
X163600000Y-107309818D01*
X163600000Y-107530181D01*
X163634473Y-107747835D01*
X163702567Y-107957410D01*
X163802611Y-108153756D01*
X163848932Y-108217513D01*
X164517037Y-107549408D01*
X164534075Y-107612993D01*
X164599901Y-107727007D01*
X164692993Y-107820099D01*
X164807007Y-107885925D01*
X164870590Y-107902962D01*
X164202485Y-108571065D01*
X164202485Y-108571066D01*
X164227680Y-108589371D01*
X164270346Y-108644701D01*
X164276325Y-108714314D01*
X164243720Y-108776110D01*
X164227681Y-108790008D01*
X164087636Y-108891756D01*
X163931756Y-109047636D01*
X163931752Y-109047641D01*
X163802187Y-109225974D01*
X163702105Y-109422393D01*
X163695800Y-109441798D01*
X163656362Y-109499473D01*
X163592003Y-109526671D01*
X163523157Y-109514756D01*
X163498486Y-109498738D01*
X160980246Y-107400205D01*
X157500000Y-104500000D01*
X152000000Y-104500000D01*
X152000000Y-121500000D01*
X163500000Y-121500000D01*
X163500000Y-120777449D01*
X163519685Y-120710410D01*
X163572489Y-120664655D01*
X163641647Y-120654711D01*
X163705203Y-120683736D01*
X163734484Y-120721152D01*
X163755479Y-120762358D01*
X163802187Y-120854025D01*
X163931752Y-121032358D01*
X163931756Y-121032363D01*
X164087636Y-121188243D01*
X164087641Y-121188247D01*
X164205578Y-121273932D01*
X164265978Y-121317815D01*
X164394375Y-121383237D01*
X164462393Y-121417895D01*
X164462396Y-121417896D01*
X164672048Y-121486015D01*
X164701586Y-121490693D01*
X164857017Y-121515311D01*
X164920150Y-121545239D01*
X164957082Y-121604550D01*
X164956084Y-121674413D01*
X164925299Y-121725464D01*
X164287584Y-122363181D01*
X164226261Y-122396666D01*
X164199903Y-122399500D01*
X148427286Y-122399500D01*
X148386365Y-122410464D01*
X148386365Y-122410465D01*
X148349097Y-122420451D01*
X148274560Y-122440423D01*
X148274555Y-122440426D01*
X148137636Y-122519475D01*
X148137628Y-122519481D01*
X148074117Y-122582993D01*
X148025826Y-122631284D01*
X148025824Y-122631286D01*
X147402356Y-123254755D01*
X146793930Y-123863181D01*
X146732607Y-123896666D01*
X146706249Y-123899500D01*
X146387702Y-123899500D01*
X146320663Y-123879815D01*
X146274908Y-123827011D01*
X146264964Y-123757853D01*
X146293989Y-123694297D01*
X146331407Y-123665015D01*
X146483760Y-123587386D01*
X146547513Y-123541066D01*
X146547514Y-123541066D01*
X145879409Y-122872962D01*
X145942993Y-122855925D01*
X146057007Y-122790099D01*
X146150099Y-122697007D01*
X146215925Y-122582993D01*
X146232962Y-122519410D01*
X146901066Y-123187514D01*
X146901066Y-123187513D01*
X146947386Y-123123760D01*
X147047432Y-122927410D01*
X147115526Y-122717835D01*
X147150000Y-122500181D01*
X147150000Y-122279818D01*
X147115526Y-122062164D01*
X147047432Y-121852589D01*
X146947388Y-121656243D01*
X146901066Y-121592485D01*
X146901065Y-121592485D01*
X146232962Y-122260589D01*
X146215925Y-122197007D01*
X146150099Y-122082993D01*
X146057007Y-121989901D01*
X145942993Y-121924075D01*
X145879407Y-121907037D01*
X146547513Y-121238932D01*
X146522319Y-121220628D01*
X146479653Y-121165298D01*
X146473674Y-121095685D01*
X146506279Y-121033889D01*
X146522313Y-121019994D01*
X146662365Y-120918242D01*
X146818242Y-120762365D01*
X146947815Y-120584022D01*
X147047895Y-120387606D01*
X147116015Y-120177951D01*
X147150500Y-119960222D01*
X147150500Y-119739778D01*
X147116015Y-119522049D01*
X147071802Y-119385974D01*
X147047896Y-119312396D01*
X147047895Y-119312393D01*
X146994520Y-119207641D01*
X146947815Y-119115978D01*
X146931260Y-119093192D01*
X146818247Y-118937641D01*
X146818243Y-118937636D01*
X146662363Y-118781756D01*
X146662358Y-118781752D01*
X146522745Y-118680318D01*
X146480079Y-118624989D01*
X146474100Y-118555375D01*
X146506705Y-118493580D01*
X146522745Y-118479682D01*
X146662358Y-118378247D01*
X146662356Y-118378247D01*
X146662365Y-118378242D01*
X146818242Y-118222365D01*
X146947815Y-118044022D01*
X147047895Y-117847606D01*
X147116015Y-117637951D01*
X147150500Y-117420222D01*
X147150500Y-117199778D01*
X147116015Y-116982049D01*
X147047895Y-116772394D01*
X147047895Y-116772393D01*
X146994520Y-116667641D01*
X146947815Y-116575978D01*
X146901155Y-116511756D01*
X146818247Y-116397641D01*
X146818243Y-116397636D01*
X146662363Y-116241756D01*
X146662358Y-116241752D01*
X146522745Y-116140318D01*
X146480079Y-116084989D01*
X146474100Y-116015375D01*
X146506705Y-115953580D01*
X146522745Y-115939682D01*
X146662358Y-115838247D01*
X146662356Y-115838247D01*
X146662365Y-115838242D01*
X146818242Y-115682365D01*
X146947815Y-115504022D01*
X147047895Y-115307606D01*
X147116015Y-115097951D01*
X147150500Y-114880222D01*
X147150500Y-114659778D01*
X147116015Y-114442049D01*
X147066915Y-114290932D01*
X147047896Y-114232396D01*
X147047895Y-114232393D01*
X146994520Y-114127641D01*
X146947815Y-114035978D01*
X146901155Y-113971756D01*
X146818247Y-113857641D01*
X146818243Y-113857636D01*
X146662363Y-113701756D01*
X146662358Y-113701752D01*
X146522745Y-113600318D01*
X146480079Y-113544989D01*
X146474100Y-113475375D01*
X146506705Y-113413580D01*
X146522745Y-113399682D01*
X146662358Y-113298247D01*
X146662356Y-113298247D01*
X146662365Y-113298242D01*
X146818242Y-113142365D01*
X146947815Y-112964022D01*
X147047895Y-112767606D01*
X147116015Y-112557951D01*
X147150500Y-112340222D01*
X147150500Y-112119778D01*
X147116015Y-111902049D01*
X147047895Y-111692394D01*
X147047895Y-111692393D01*
X146994520Y-111587641D01*
X146947815Y-111495978D01*
X146910294Y-111444334D01*
X146818247Y-111317641D01*
X146818243Y-111317636D01*
X146662363Y-111161756D01*
X146662358Y-111161752D01*
X146522745Y-111060318D01*
X146480079Y-111004989D01*
X146474100Y-110935375D01*
X146506705Y-110873580D01*
X146522745Y-110859682D01*
X146662358Y-110758247D01*
X146662356Y-110758247D01*
X146662365Y-110758242D01*
X146818242Y-110602365D01*
X146947815Y-110424022D01*
X147047895Y-110227606D01*
X147116015Y-110017951D01*
X147150500Y-109800222D01*
X147150500Y-109579778D01*
X147116015Y-109362049D01*
X147073084Y-109229920D01*
X147047896Y-109152396D01*
X147047895Y-109152393D01*
X146994520Y-109047641D01*
X146947815Y-108955978D01*
X146901155Y-108891756D01*
X146818247Y-108777641D01*
X146818243Y-108777636D01*
X146662363Y-108621756D01*
X146662358Y-108621752D01*
X146522745Y-108520318D01*
X146480079Y-108464989D01*
X146474100Y-108395375D01*
X146506705Y-108333580D01*
X146522745Y-108319682D01*
X146662358Y-108218247D01*
X146662356Y-108218247D01*
X146662365Y-108218242D01*
X146818242Y-108062365D01*
X146947815Y-107884022D01*
X147047895Y-107687606D01*
X147116015Y-107477951D01*
X147150500Y-107260222D01*
X147150500Y-107039778D01*
X147116015Y-106822049D01*
X147047895Y-106612394D01*
X147047895Y-106612393D01*
X146994520Y-106507641D01*
X146947815Y-106415978D01*
X146904278Y-106356054D01*
X146818247Y-106237641D01*
X146818243Y-106237636D01*
X146662363Y-106081756D01*
X146662358Y-106081752D01*
X146522745Y-105980318D01*
X146480079Y-105924989D01*
X146474100Y-105855375D01*
X146506705Y-105793580D01*
X146522745Y-105779682D01*
X146662358Y-105678247D01*
X146662356Y-105678247D01*
X146662365Y-105678242D01*
X146818242Y-105522365D01*
X146947815Y-105344022D01*
X147047895Y-105147606D01*
X147116015Y-104937951D01*
X147142651Y-104769778D01*
X148359500Y-104769778D01*
X148359500Y-104990222D01*
X148369749Y-105054933D01*
X148393985Y-105207952D01*
X148462103Y-105417603D01*
X148462104Y-105417606D01*
X148562187Y-105614025D01*
X148691752Y-105792358D01*
X148691756Y-105792363D01*
X148847636Y-105948243D01*
X148847641Y-105948247D01*
X148987254Y-106049682D01*
X149029920Y-106105012D01*
X149035899Y-106174625D01*
X149003293Y-106236420D01*
X148987254Y-106250318D01*
X148847641Y-106351752D01*
X148847636Y-106351756D01*
X148691756Y-106507636D01*
X148691752Y-106507641D01*
X148562187Y-106685974D01*
X148462104Y-106882393D01*
X148462103Y-106882396D01*
X148393985Y-107092047D01*
X148374930Y-107212358D01*
X148359500Y-107309778D01*
X148359500Y-107530222D01*
X148372610Y-107612993D01*
X148393985Y-107747952D01*
X148462103Y-107957603D01*
X148462104Y-107957606D01*
X148515479Y-108062358D01*
X148562049Y-108153756D01*
X148562187Y-108154025D01*
X148691752Y-108332358D01*
X148691756Y-108332363D01*
X148847636Y-108488243D01*
X148847641Y-108488247D01*
X148987254Y-108589682D01*
X149029920Y-108645012D01*
X149035899Y-108714625D01*
X149003293Y-108776420D01*
X148987254Y-108790318D01*
X148847641Y-108891752D01*
X148847636Y-108891756D01*
X148691756Y-109047636D01*
X148691752Y-109047641D01*
X148562187Y-109225974D01*
X148462104Y-109422393D01*
X148462103Y-109422396D01*
X148393985Y-109632047D01*
X148371093Y-109776585D01*
X148359500Y-109849778D01*
X148359500Y-110070222D01*
X148372224Y-110150556D01*
X148393985Y-110287952D01*
X148462103Y-110497603D01*
X148462104Y-110497606D01*
X148515479Y-110602358D01*
X148561516Y-110692710D01*
X148562187Y-110694025D01*
X148691752Y-110872358D01*
X148691756Y-110872363D01*
X148847636Y-111028243D01*
X148847641Y-111028247D01*
X148987254Y-111129682D01*
X149029920Y-111185012D01*
X149035899Y-111254625D01*
X149003293Y-111316420D01*
X148987254Y-111330318D01*
X148847641Y-111431752D01*
X148847636Y-111431756D01*
X148691756Y-111587636D01*
X148691752Y-111587641D01*
X148562187Y-111765974D01*
X148462104Y-111962393D01*
X148462103Y-111962396D01*
X148393985Y-112172047D01*
X148393985Y-112172049D01*
X148359500Y-112389778D01*
X148359500Y-112610222D01*
X148372926Y-112694989D01*
X148393985Y-112827952D01*
X148462103Y-113037603D01*
X148462104Y-113037606D01*
X148562187Y-113234025D01*
X148691752Y-113412358D01*
X148691756Y-113412363D01*
X148847636Y-113568243D01*
X148847641Y-113568247D01*
X148987254Y-113669682D01*
X149029920Y-113725012D01*
X149035899Y-113794625D01*
X149003293Y-113856420D01*
X148987254Y-113870318D01*
X148847641Y-113971752D01*
X148847636Y-113971756D01*
X148691756Y-114127636D01*
X148691752Y-114127641D01*
X148562187Y-114305974D01*
X148462104Y-114502393D01*
X148462103Y-114502396D01*
X148393985Y-114712047D01*
X148374930Y-114832358D01*
X148359500Y-114929778D01*
X148359500Y-115150222D01*
X148372926Y-115234989D01*
X148393985Y-115367952D01*
X148462103Y-115577603D01*
X148462104Y-115577606D01*
X148562187Y-115774025D01*
X148691752Y-115952358D01*
X148691756Y-115952363D01*
X148847636Y-116108243D01*
X148847641Y-116108247D01*
X148987254Y-116209682D01*
X149029920Y-116265012D01*
X149035899Y-116334625D01*
X149003293Y-116396420D01*
X148987254Y-116410318D01*
X148847641Y-116511752D01*
X148847636Y-116511756D01*
X148691756Y-116667636D01*
X148691752Y-116667641D01*
X148562187Y-116845974D01*
X148462104Y-117042393D01*
X148462103Y-117042396D01*
X148393985Y-117252047D01*
X148369413Y-117407187D01*
X148359500Y-117469778D01*
X148359500Y-117690222D01*
X148370201Y-117757783D01*
X148393985Y-117907952D01*
X148462103Y-118117603D01*
X148462104Y-118117606D01*
X148562187Y-118314025D01*
X148691752Y-118492358D01*
X148691756Y-118492363D01*
X148847636Y-118648243D01*
X148847641Y-118648247D01*
X148987254Y-118749682D01*
X149029920Y-118805012D01*
X149035899Y-118874625D01*
X149003293Y-118936420D01*
X148987254Y-118950318D01*
X148847641Y-119051752D01*
X148847636Y-119051756D01*
X148691756Y-119207636D01*
X148691752Y-119207641D01*
X148562187Y-119385974D01*
X148462104Y-119582393D01*
X148462103Y-119582396D01*
X148393985Y-119792047D01*
X148359500Y-120009778D01*
X148359500Y-120230221D01*
X148393985Y-120447952D01*
X148462103Y-120657603D01*
X148462104Y-120657606D01*
X148562187Y-120854025D01*
X148691752Y-121032358D01*
X148691756Y-121032363D01*
X148847636Y-121188243D01*
X148847641Y-121188247D01*
X148965578Y-121273932D01*
X149025978Y-121317815D01*
X149154375Y-121383237D01*
X149222393Y-121417895D01*
X149222396Y-121417896D01*
X149327221Y-121451955D01*
X149432049Y-121486015D01*
X149649778Y-121520500D01*
X149649779Y-121520500D01*
X149870221Y-121520500D01*
X149870222Y-121520500D01*
X150087951Y-121486015D01*
X150297606Y-121417895D01*
X150494022Y-121317815D01*
X150672365Y-121188242D01*
X150828242Y-121032365D01*
X150957815Y-120854022D01*
X151057895Y-120657606D01*
X151126015Y-120447951D01*
X151160500Y-120230222D01*
X151160500Y-120009778D01*
X151126015Y-119792049D01*
X151067607Y-119612284D01*
X151057896Y-119582396D01*
X151057895Y-119582393D01*
X150999630Y-119468044D01*
X150957815Y-119385978D01*
X150915656Y-119327951D01*
X150828247Y-119207641D01*
X150828243Y-119207636D01*
X150672363Y-119051756D01*
X150672358Y-119051752D01*
X150532745Y-118950318D01*
X150490079Y-118894989D01*
X150484100Y-118825375D01*
X150516705Y-118763580D01*
X150532745Y-118749682D01*
X150672358Y-118648247D01*
X150672356Y-118648247D01*
X150672365Y-118648242D01*
X150828242Y-118492365D01*
X150957815Y-118314022D01*
X151057895Y-118117606D01*
X151126015Y-117907951D01*
X151160500Y-117690222D01*
X151160500Y-117469778D01*
X151126015Y-117252049D01*
X151075912Y-117097844D01*
X151057896Y-117042396D01*
X151057895Y-117042393D01*
X151000867Y-116930472D01*
X150957815Y-116845978D01*
X150904355Y-116772396D01*
X150828247Y-116667641D01*
X150828243Y-116667636D01*
X150672363Y-116511756D01*
X150672358Y-116511752D01*
X150532745Y-116410318D01*
X150490079Y-116354989D01*
X150484100Y-116285375D01*
X150516705Y-116223580D01*
X150532745Y-116209682D01*
X150672358Y-116108247D01*
X150672356Y-116108247D01*
X150672365Y-116108242D01*
X150828242Y-115952365D01*
X150957815Y-115774022D01*
X151057895Y-115577606D01*
X151126015Y-115367951D01*
X151160500Y-115150222D01*
X151160500Y-114929778D01*
X151126015Y-114712049D01*
X151073363Y-114550000D01*
X151057896Y-114502396D01*
X151057895Y-114502393D01*
X150999630Y-114388044D01*
X150957815Y-114305978D01*
X150904355Y-114232396D01*
X150828247Y-114127641D01*
X150828243Y-114127636D01*
X150672363Y-113971756D01*
X150672358Y-113971752D01*
X150532745Y-113870318D01*
X150490079Y-113814989D01*
X150484100Y-113745375D01*
X150516705Y-113683580D01*
X150532745Y-113669682D01*
X150672358Y-113568247D01*
X150672356Y-113568247D01*
X150672365Y-113568242D01*
X150828242Y-113412365D01*
X150957815Y-113234022D01*
X151057895Y-113037606D01*
X151126015Y-112827951D01*
X151160500Y-112610222D01*
X151160500Y-112389778D01*
X151126015Y-112172049D01*
X151091955Y-112067221D01*
X151057896Y-111962396D01*
X151057895Y-111962393D01*
X150998871Y-111846555D01*
X150957815Y-111765978D01*
X150922748Y-111717712D01*
X150828247Y-111587641D01*
X150828243Y-111587636D01*
X150672363Y-111431756D01*
X150672358Y-111431752D01*
X150532745Y-111330318D01*
X150490079Y-111274989D01*
X150484100Y-111205375D01*
X150516705Y-111143580D01*
X150532745Y-111129682D01*
X150672358Y-111028247D01*
X150672356Y-111028247D01*
X150672365Y-111028242D01*
X150828242Y-110872365D01*
X150957815Y-110694022D01*
X151057895Y-110497606D01*
X151126015Y-110287951D01*
X151160500Y-110070222D01*
X151160500Y-109849778D01*
X151126015Y-109632049D01*
X151073682Y-109470981D01*
X151057896Y-109422396D01*
X151057895Y-109422393D01*
X150997770Y-109304394D01*
X150957815Y-109225978D01*
X150933498Y-109192508D01*
X150828247Y-109047641D01*
X150828243Y-109047636D01*
X150672363Y-108891756D01*
X150672358Y-108891752D01*
X150532745Y-108790318D01*
X150490079Y-108734989D01*
X150484100Y-108665375D01*
X150516705Y-108603580D01*
X150532745Y-108589682D01*
X150672358Y-108488247D01*
X150672356Y-108488247D01*
X150672365Y-108488242D01*
X150828242Y-108332365D01*
X150957815Y-108154022D01*
X151057895Y-107957606D01*
X151126015Y-107747951D01*
X151160500Y-107530222D01*
X151160500Y-107309778D01*
X151126015Y-107092049D01*
X151070114Y-106920000D01*
X151057896Y-106882396D01*
X151057895Y-106882393D01*
X150998550Y-106765925D01*
X150957815Y-106685978D01*
X150904355Y-106612396D01*
X150828247Y-106507641D01*
X150828243Y-106507636D01*
X150672363Y-106351756D01*
X150672358Y-106351752D01*
X150532745Y-106250318D01*
X150490079Y-106194989D01*
X150484100Y-106125375D01*
X150516705Y-106063580D01*
X150532745Y-106049682D01*
X150672358Y-105948247D01*
X150672356Y-105948247D01*
X150672365Y-105948242D01*
X150828242Y-105792365D01*
X150957815Y-105614022D01*
X151057895Y-105417606D01*
X151126015Y-105207951D01*
X151160500Y-104990222D01*
X151160500Y-104769778D01*
X151126015Y-104552049D01*
X151057895Y-104342394D01*
X151057895Y-104342393D01*
X151004812Y-104238214D01*
X150957815Y-104145978D01*
X150904355Y-104072396D01*
X150828247Y-103967641D01*
X150828243Y-103967636D01*
X150672363Y-103811756D01*
X150672358Y-103811752D01*
X150494025Y-103682187D01*
X150494024Y-103682186D01*
X150494022Y-103682185D01*
X150430420Y-103649778D01*
X150297606Y-103582104D01*
X150297603Y-103582103D01*
X150087952Y-103513985D01*
X149979086Y-103496742D01*
X149870222Y-103479500D01*
X149649778Y-103479500D01*
X149577201Y-103490995D01*
X149432047Y-103513985D01*
X149222396Y-103582103D01*
X149222393Y-103582104D01*
X149025974Y-103682187D01*
X148847641Y-103811752D01*
X148847636Y-103811756D01*
X148691756Y-103967636D01*
X148691752Y-103967641D01*
X148562187Y-104145974D01*
X148462104Y-104342393D01*
X148462103Y-104342396D01*
X148393985Y-104552047D01*
X148374952Y-104672217D01*
X148359500Y-104769778D01*
X147142651Y-104769778D01*
X147150500Y-104720222D01*
X147150500Y-104499778D01*
X147116015Y-104282049D01*
X147047895Y-104072394D01*
X147047895Y-104072393D01*
X146994520Y-103967641D01*
X146947815Y-103875978D01*
X146901155Y-103811756D01*
X146818247Y-103697641D01*
X146818243Y-103697636D01*
X146662363Y-103541756D01*
X146662358Y-103541752D01*
X146484025Y-103412187D01*
X146484024Y-103412186D01*
X146484022Y-103412185D01*
X146421096Y-103380122D01*
X146287606Y-103312104D01*
X146287603Y-103312103D01*
X146077952Y-103243985D01*
X145878001Y-103212316D01*
X145860222Y-103209500D01*
X145639778Y-103209500D01*
X145621999Y-103212316D01*
X145422047Y-103243985D01*
X145212396Y-103312103D01*
X145212393Y-103312104D01*
X145015974Y-103412187D01*
X144837641Y-103541752D01*
X144837636Y-103541756D01*
X144681756Y-103697636D01*
X144681752Y-103697641D01*
X144552187Y-103875974D01*
X144452104Y-104072393D01*
X144452103Y-104072396D01*
X144383985Y-104282047D01*
X144349500Y-104499778D01*
X144349500Y-104720221D01*
X144383985Y-104937952D01*
X144452103Y-105147603D01*
X144452104Y-105147606D01*
X144552187Y-105344025D01*
X144681752Y-105522358D01*
X144681756Y-105522363D01*
X144837636Y-105678243D01*
X144837641Y-105678247D01*
X144977254Y-105779682D01*
X145019920Y-105835012D01*
X145025899Y-105904625D01*
X144993293Y-105966420D01*
X144977254Y-105980318D01*
X144837641Y-106081752D01*
X144837636Y-106081756D01*
X144681756Y-106237636D01*
X144681752Y-106237641D01*
X144552187Y-106415974D01*
X144452104Y-106612393D01*
X144452103Y-106612396D01*
X144383985Y-106822047D01*
X144349500Y-107039778D01*
X144349500Y-107260221D01*
X144383985Y-107477952D01*
X144452103Y-107687603D01*
X144452104Y-107687606D01*
X144552187Y-107884025D01*
X144681752Y-108062358D01*
X144681756Y-108062363D01*
X144837636Y-108218243D01*
X144837641Y-108218247D01*
X144977254Y-108319682D01*
X145019920Y-108375012D01*
X145025899Y-108444625D01*
X144993293Y-108506420D01*
X144977254Y-108520318D01*
X144837641Y-108621752D01*
X144837636Y-108621756D01*
X144681756Y-108777636D01*
X144681752Y-108777641D01*
X144552187Y-108955974D01*
X144452104Y-109152393D01*
X144452103Y-109152396D01*
X144383985Y-109362047D01*
X144359331Y-109517705D01*
X144349500Y-109579778D01*
X144349500Y-109800222D01*
X144362610Y-109882993D01*
X144383985Y-110017952D01*
X144452103Y-110227603D01*
X144452104Y-110227606D01*
X144482853Y-110287952D01*
X144552049Y-110423756D01*
X144552187Y-110424025D01*
X144681752Y-110602358D01*
X144681756Y-110602363D01*
X144837636Y-110758243D01*
X144837641Y-110758247D01*
X144977254Y-110859682D01*
X145019920Y-110915012D01*
X145025899Y-110984625D01*
X144993293Y-111046420D01*
X144977254Y-111060318D01*
X144837641Y-111161752D01*
X144837636Y-111161756D01*
X144681756Y-111317636D01*
X144681752Y-111317641D01*
X144552187Y-111495974D01*
X144452104Y-111692393D01*
X144452103Y-111692396D01*
X144383985Y-111902047D01*
X144349500Y-112119778D01*
X144349500Y-112340221D01*
X144383985Y-112557952D01*
X144452103Y-112767603D01*
X144452104Y-112767606D01*
X144552187Y-112964025D01*
X144681752Y-113142358D01*
X144681756Y-113142363D01*
X144837636Y-113298243D01*
X144837641Y-113298247D01*
X144977254Y-113399682D01*
X145019920Y-113455012D01*
X145025899Y-113524625D01*
X144993293Y-113586420D01*
X144977254Y-113600318D01*
X144837641Y-113701752D01*
X144837636Y-113701756D01*
X144681756Y-113857636D01*
X144681752Y-113857641D01*
X144552187Y-114035974D01*
X144452104Y-114232393D01*
X144452103Y-114232396D01*
X144383985Y-114442047D01*
X144366966Y-114549500D01*
X144349500Y-114659778D01*
X144349500Y-114880222D01*
X144360495Y-114949642D01*
X144383985Y-115097952D01*
X144452103Y-115307603D01*
X144452104Y-115307606D01*
X144552187Y-115504025D01*
X144681752Y-115682358D01*
X144681756Y-115682363D01*
X144837636Y-115838243D01*
X144837641Y-115838247D01*
X144977254Y-115939682D01*
X145019920Y-115995012D01*
X145025899Y-116064625D01*
X144993293Y-116126420D01*
X144977254Y-116140318D01*
X144837641Y-116241752D01*
X144837636Y-116241756D01*
X144681756Y-116397636D01*
X144681752Y-116397641D01*
X144552187Y-116575974D01*
X144452104Y-116772393D01*
X144452103Y-116772396D01*
X144383985Y-116982047D01*
X144349500Y-117199778D01*
X144349500Y-117420221D01*
X144383985Y-117637952D01*
X144452103Y-117847603D01*
X144452104Y-117847606D01*
X144482853Y-117907952D01*
X144530152Y-118000781D01*
X144552187Y-118044025D01*
X144681752Y-118222358D01*
X144681756Y-118222363D01*
X144837636Y-118378243D01*
X144837641Y-118378247D01*
X144977254Y-118479682D01*
X145019920Y-118535012D01*
X145025899Y-118604625D01*
X144993293Y-118666420D01*
X144977254Y-118680318D01*
X144837641Y-118781752D01*
X144837636Y-118781756D01*
X144681756Y-118937636D01*
X144681752Y-118937641D01*
X144552187Y-119115974D01*
X144452104Y-119312393D01*
X144452103Y-119312396D01*
X144383985Y-119522047D01*
X144349500Y-119739778D01*
X144349500Y-119960221D01*
X144383985Y-120177952D01*
X144452103Y-120387603D01*
X144452104Y-120387606D01*
X144552187Y-120584025D01*
X144681752Y-120762358D01*
X144681756Y-120762363D01*
X144837640Y-120918247D01*
X144977679Y-121019990D01*
X145020345Y-121075319D01*
X145026324Y-121144933D01*
X144993719Y-121206728D01*
X144977679Y-121220626D01*
X144952485Y-121238930D01*
X144952485Y-121238932D01*
X145620590Y-121907037D01*
X145557007Y-121924075D01*
X145442993Y-121989901D01*
X145349901Y-122082993D01*
X145284075Y-122197007D01*
X145267037Y-122260590D01*
X144598932Y-121592485D01*
X144598931Y-121592485D01*
X144552616Y-121656233D01*
X144452567Y-121852589D01*
X144384473Y-122062164D01*
X144350000Y-122279818D01*
X144350000Y-122500181D01*
X144384473Y-122717835D01*
X144452567Y-122927410D01*
X144552611Y-123123756D01*
X144598932Y-123187513D01*
X145267037Y-122519408D01*
X145284075Y-122582993D01*
X145349901Y-122697007D01*
X145442993Y-122790099D01*
X145557007Y-122855925D01*
X145620590Y-122872962D01*
X144952485Y-123541065D01*
X144952485Y-123541066D01*
X145016243Y-123587388D01*
X145168593Y-123665015D01*
X145219389Y-123712990D01*
X145236184Y-123780811D01*
X145213646Y-123846946D01*
X145158931Y-123890397D01*
X145112298Y-123899500D01*
X137079766Y-123899500D01*
X137012727Y-123879815D01*
X137010875Y-123878602D01*
X136879185Y-123790609D01*
X136879172Y-123790602D01*
X136733501Y-123730264D01*
X136733489Y-123730261D01*
X136578845Y-123699500D01*
X136578842Y-123699500D01*
X136421158Y-123699500D01*
X136421155Y-123699500D01*
X136266510Y-123730261D01*
X136266498Y-123730264D01*
X136120827Y-123790602D01*
X136120814Y-123790609D01*
X135989711Y-123878210D01*
X135989707Y-123878213D01*
X135878213Y-123989707D01*
X135878210Y-123989711D01*
X135790609Y-124120814D01*
X135790602Y-124120827D01*
X135730264Y-124266498D01*
X135730261Y-124266510D01*
X135699500Y-124421153D01*
X135699500Y-124578846D01*
X135730261Y-124733489D01*
X135730264Y-124733501D01*
X135790602Y-124879172D01*
X135790611Y-124879188D01*
X135796049Y-124887327D01*
X135816926Y-124954005D01*
X135798440Y-125021385D01*
X135746461Y-125068074D01*
X135677491Y-125079249D01*
X135613427Y-125051362D01*
X135605265Y-125043897D01*
X134528421Y-123967052D01*
X134528414Y-123967046D01*
X134454729Y-123917812D01*
X134454729Y-123917813D01*
X134405491Y-123884913D01*
X134268917Y-123828343D01*
X134268907Y-123828340D01*
X134123920Y-123799500D01*
X134123918Y-123799500D01*
X130073445Y-123799500D01*
X130006406Y-123779815D01*
X129960651Y-123727011D01*
X129950707Y-123657853D01*
X129979732Y-123594297D01*
X130000559Y-123575182D01*
X130047513Y-123541066D01*
X130047514Y-123541066D01*
X129379409Y-122872962D01*
X129442993Y-122855925D01*
X129557007Y-122790099D01*
X129650099Y-122697007D01*
X129715925Y-122582993D01*
X129732962Y-122519410D01*
X130401066Y-123187514D01*
X130401066Y-123187513D01*
X130447386Y-123123760D01*
X130547432Y-122927410D01*
X130615526Y-122717835D01*
X130650000Y-122500181D01*
X130650000Y-122279818D01*
X130615526Y-122062164D01*
X130547432Y-121852589D01*
X130447388Y-121656243D01*
X130401066Y-121592485D01*
X130401065Y-121592485D01*
X129732962Y-122260589D01*
X129715925Y-122197007D01*
X129650099Y-122082993D01*
X129557007Y-121989901D01*
X129442993Y-121924075D01*
X129379407Y-121907037D01*
X130047513Y-121238932D01*
X130022319Y-121220628D01*
X129979653Y-121165298D01*
X129973674Y-121095685D01*
X130006279Y-121033889D01*
X130022313Y-121019994D01*
X130162365Y-120918242D01*
X130318242Y-120762365D01*
X130447815Y-120584022D01*
X130547895Y-120387606D01*
X130616015Y-120177951D01*
X130650500Y-119960222D01*
X130650500Y-119739778D01*
X130616015Y-119522049D01*
X130571802Y-119385974D01*
X130547896Y-119312396D01*
X130547895Y-119312393D01*
X130494520Y-119207641D01*
X130447815Y-119115978D01*
X130431260Y-119093192D01*
X130318247Y-118937641D01*
X130318243Y-118937636D01*
X130162363Y-118781756D01*
X130162358Y-118781752D01*
X130022745Y-118680318D01*
X129980079Y-118624989D01*
X129974100Y-118555375D01*
X130006705Y-118493580D01*
X130022745Y-118479682D01*
X130162358Y-118378247D01*
X130162356Y-118378247D01*
X130162365Y-118378242D01*
X130318242Y-118222365D01*
X130447815Y-118044022D01*
X130547895Y-117847606D01*
X130616015Y-117637951D01*
X130650500Y-117420222D01*
X130650500Y-117199778D01*
X130616015Y-116982049D01*
X130547895Y-116772394D01*
X130547895Y-116772393D01*
X130494520Y-116667641D01*
X130447815Y-116575978D01*
X130401155Y-116511756D01*
X130318247Y-116397641D01*
X130318243Y-116397636D01*
X130162363Y-116241756D01*
X130162358Y-116241752D01*
X130022745Y-116140318D01*
X129980079Y-116084989D01*
X129974100Y-116015375D01*
X130006705Y-115953580D01*
X130022745Y-115939682D01*
X130162358Y-115838247D01*
X130162356Y-115838247D01*
X130162365Y-115838242D01*
X130318242Y-115682365D01*
X130447815Y-115504022D01*
X130547895Y-115307606D01*
X130616015Y-115097951D01*
X130650500Y-114880222D01*
X130650500Y-114659778D01*
X130616015Y-114442049D01*
X130566915Y-114290932D01*
X130547896Y-114232396D01*
X130547895Y-114232393D01*
X130494520Y-114127641D01*
X130447815Y-114035978D01*
X130401155Y-113971756D01*
X130318247Y-113857641D01*
X130318243Y-113857636D01*
X130162363Y-113701756D01*
X130162358Y-113701752D01*
X130022745Y-113600318D01*
X129980079Y-113544989D01*
X129974100Y-113475375D01*
X130006705Y-113413580D01*
X130022745Y-113399682D01*
X130162358Y-113298247D01*
X130162356Y-113298247D01*
X130162365Y-113298242D01*
X130318242Y-113142365D01*
X130447815Y-112964022D01*
X130547895Y-112767606D01*
X130616015Y-112557951D01*
X130650500Y-112340222D01*
X130650500Y-112119778D01*
X130616015Y-111902049D01*
X130547895Y-111692394D01*
X130547895Y-111692393D01*
X130494520Y-111587641D01*
X130447815Y-111495978D01*
X130410294Y-111444334D01*
X130318247Y-111317641D01*
X130318243Y-111317636D01*
X130162363Y-111161756D01*
X130162358Y-111161752D01*
X130022319Y-111060008D01*
X129979653Y-111004678D01*
X129973674Y-110935065D01*
X130006279Y-110873270D01*
X130022319Y-110859372D01*
X130047513Y-110841066D01*
X130047514Y-110841066D01*
X129379409Y-110172962D01*
X129442993Y-110155925D01*
X129557007Y-110090099D01*
X129650099Y-109997007D01*
X129715925Y-109882993D01*
X129732962Y-109819410D01*
X130401066Y-110487514D01*
X130401066Y-110487513D01*
X130447386Y-110423760D01*
X130547432Y-110227410D01*
X130615526Y-110017835D01*
X130650000Y-109800181D01*
X130650000Y-109579818D01*
X130615526Y-109362164D01*
X130547432Y-109152589D01*
X130447388Y-108956243D01*
X130401066Y-108892485D01*
X130401065Y-108892485D01*
X129732962Y-109560589D01*
X129715925Y-109497007D01*
X129650099Y-109382993D01*
X129557007Y-109289901D01*
X129442993Y-109224075D01*
X129379407Y-109207037D01*
X130047513Y-108538932D01*
X130022319Y-108520628D01*
X129979653Y-108465298D01*
X129973674Y-108395685D01*
X130006279Y-108333889D01*
X130022313Y-108319994D01*
X130162365Y-108218242D01*
X130318242Y-108062365D01*
X130447815Y-107884022D01*
X130547895Y-107687606D01*
X130616015Y-107477951D01*
X130650500Y-107260222D01*
X130650500Y-107039778D01*
X130616015Y-106822049D01*
X130547895Y-106612394D01*
X130547895Y-106612393D01*
X130494520Y-106507641D01*
X130447815Y-106415978D01*
X130404278Y-106356054D01*
X130318247Y-106237641D01*
X130318243Y-106237636D01*
X130162363Y-106081756D01*
X130162358Y-106081752D01*
X130022745Y-105980318D01*
X129980079Y-105924989D01*
X129974100Y-105855375D01*
X130006705Y-105793580D01*
X130022745Y-105779682D01*
X130162358Y-105678247D01*
X130162356Y-105678247D01*
X130162365Y-105678242D01*
X130318242Y-105522365D01*
X130447815Y-105344022D01*
X130547895Y-105147606D01*
X130616015Y-104937951D01*
X130650500Y-104720222D01*
X130650500Y-104499778D01*
X130616015Y-104282049D01*
X130547895Y-104072394D01*
X130547895Y-104072393D01*
X130494520Y-103967641D01*
X130447815Y-103875978D01*
X130401155Y-103811756D01*
X130318247Y-103697641D01*
X130318243Y-103697636D01*
X130162363Y-103541756D01*
X130162358Y-103541752D01*
X129984025Y-103412187D01*
X129984024Y-103412186D01*
X129984022Y-103412185D01*
X129921096Y-103380122D01*
X129787606Y-103312104D01*
X129787603Y-103312103D01*
X129577952Y-103243985D01*
X129378001Y-103212316D01*
X129360222Y-103209500D01*
X129139778Y-103209500D01*
X129121999Y-103212316D01*
X128922047Y-103243985D01*
X128712396Y-103312103D01*
X128712393Y-103312104D01*
X128515974Y-103412187D01*
X128337641Y-103541752D01*
X128337636Y-103541756D01*
X128181756Y-103697636D01*
X128181752Y-103697641D01*
X128052187Y-103875974D01*
X127952104Y-104072393D01*
X127952103Y-104072396D01*
X127883985Y-104282047D01*
X127849500Y-104499778D01*
X127849500Y-104720221D01*
X127883985Y-104937952D01*
X127952103Y-105147603D01*
X127952104Y-105147606D01*
X128052187Y-105344025D01*
X128181752Y-105522358D01*
X128181756Y-105522363D01*
X128337636Y-105678243D01*
X128337641Y-105678247D01*
X128477254Y-105779682D01*
X128519920Y-105835012D01*
X128525899Y-105904625D01*
X128493293Y-105966420D01*
X128477254Y-105980318D01*
X128337641Y-106081752D01*
X128337636Y-106081756D01*
X128181756Y-106237636D01*
X128181752Y-106237641D01*
X128052187Y-106415974D01*
X127952104Y-106612393D01*
X127952103Y-106612396D01*
X127883985Y-106822047D01*
X127849500Y-107039778D01*
X127849500Y-107260221D01*
X127883985Y-107477952D01*
X127952103Y-107687603D01*
X127952104Y-107687606D01*
X128052187Y-107884025D01*
X128181752Y-108062358D01*
X128181756Y-108062363D01*
X128337640Y-108218247D01*
X128477679Y-108319990D01*
X128520345Y-108375319D01*
X128526324Y-108444933D01*
X128493719Y-108506728D01*
X128477679Y-108520626D01*
X128452485Y-108538930D01*
X128452485Y-108538932D01*
X129120590Y-109207037D01*
X129057007Y-109224075D01*
X128942993Y-109289901D01*
X128849901Y-109382993D01*
X128784075Y-109497007D01*
X128767037Y-109560590D01*
X128098932Y-108892485D01*
X128098931Y-108892485D01*
X128052616Y-108956233D01*
X127952567Y-109152589D01*
X127884473Y-109362164D01*
X127850000Y-109579818D01*
X127850000Y-109800181D01*
X127884473Y-110017835D01*
X127952567Y-110227410D01*
X128052611Y-110423756D01*
X128098932Y-110487513D01*
X128767037Y-109819408D01*
X128784075Y-109882993D01*
X128849901Y-109997007D01*
X128942993Y-110090099D01*
X129057007Y-110155925D01*
X129120590Y-110172962D01*
X128452485Y-110841065D01*
X128452485Y-110841066D01*
X128477680Y-110859371D01*
X128520346Y-110914701D01*
X128526325Y-110984314D01*
X128493720Y-111046110D01*
X128477681Y-111060008D01*
X128337636Y-111161756D01*
X128181756Y-111317636D01*
X128181752Y-111317641D01*
X128052187Y-111495974D01*
X127952104Y-111692393D01*
X127952103Y-111692396D01*
X127883985Y-111902047D01*
X127849500Y-112119778D01*
X127849500Y-112340221D01*
X127883985Y-112557952D01*
X127952103Y-112767603D01*
X127952104Y-112767606D01*
X128052187Y-112964025D01*
X128181752Y-113142358D01*
X128181756Y-113142363D01*
X128337636Y-113298243D01*
X128337641Y-113298247D01*
X128477254Y-113399682D01*
X128519920Y-113455012D01*
X128525899Y-113524625D01*
X128493293Y-113586420D01*
X128477254Y-113600318D01*
X128337641Y-113701752D01*
X128337636Y-113701756D01*
X128181756Y-113857636D01*
X128181752Y-113857641D01*
X128052187Y-114035974D01*
X127952104Y-114232393D01*
X127952103Y-114232396D01*
X127883985Y-114442047D01*
X127866966Y-114549500D01*
X127849500Y-114659778D01*
X127849500Y-114880222D01*
X127860495Y-114949642D01*
X127883985Y-115097952D01*
X127952103Y-115307603D01*
X127952104Y-115307606D01*
X128052187Y-115504025D01*
X128181752Y-115682358D01*
X128181756Y-115682363D01*
X128337636Y-115838243D01*
X128337641Y-115838247D01*
X128477254Y-115939682D01*
X128519920Y-115995012D01*
X128525899Y-116064625D01*
X128493293Y-116126420D01*
X128477254Y-116140318D01*
X128337641Y-116241752D01*
X128337636Y-116241756D01*
X128181756Y-116397636D01*
X128181752Y-116397641D01*
X128052187Y-116575974D01*
X127952104Y-116772393D01*
X127952103Y-116772396D01*
X127883985Y-116982047D01*
X127849500Y-117199778D01*
X127849500Y-117420221D01*
X127883985Y-117637952D01*
X127952103Y-117847603D01*
X127952104Y-117847606D01*
X127982853Y-117907952D01*
X128030152Y-118000781D01*
X128052187Y-118044025D01*
X128181752Y-118222358D01*
X128181756Y-118222363D01*
X128337636Y-118378243D01*
X128337641Y-118378247D01*
X128477254Y-118479682D01*
X128519920Y-118535012D01*
X128525899Y-118604625D01*
X128493293Y-118666420D01*
X128477254Y-118680318D01*
X128337641Y-118781752D01*
X128337636Y-118781756D01*
X128181756Y-118937636D01*
X128181752Y-118937641D01*
X128052187Y-119115974D01*
X127952104Y-119312393D01*
X127952103Y-119312396D01*
X127883985Y-119522047D01*
X127849500Y-119739778D01*
X127849500Y-119960221D01*
X127883985Y-120177952D01*
X127952103Y-120387603D01*
X127952104Y-120387606D01*
X128052187Y-120584025D01*
X128181752Y-120762358D01*
X128181756Y-120762363D01*
X128337640Y-120918247D01*
X128477679Y-121019990D01*
X128520345Y-121075319D01*
X128526324Y-121144933D01*
X128493719Y-121206728D01*
X128477679Y-121220626D01*
X128452485Y-121238930D01*
X128452485Y-121238932D01*
X129120590Y-121907037D01*
X129057007Y-121924075D01*
X128942993Y-121989901D01*
X128849901Y-122082993D01*
X128784075Y-122197007D01*
X128767037Y-122260590D01*
X128098932Y-121592485D01*
X128098931Y-121592485D01*
X128052616Y-121656233D01*
X127952567Y-121852589D01*
X127884473Y-122062164D01*
X127850000Y-122279818D01*
X127850000Y-122500181D01*
X127884473Y-122717835D01*
X127952567Y-122927410D01*
X128052611Y-123123756D01*
X128098932Y-123187513D01*
X128767037Y-122519408D01*
X128784075Y-122582993D01*
X128849901Y-122697007D01*
X128942993Y-122790099D01*
X129057007Y-122855925D01*
X129120590Y-122872962D01*
X128452485Y-123541065D01*
X128452485Y-123541066D01*
X128499441Y-123575181D01*
X128542107Y-123630511D01*
X128548086Y-123700124D01*
X128515481Y-123761920D01*
X128454642Y-123796277D01*
X128426556Y-123799500D01*
X111716080Y-123799500D01*
X111571092Y-123828340D01*
X111571086Y-123828342D01*
X111434508Y-123884914D01*
X111434496Y-123884921D01*
X111385269Y-123917813D01*
X111311588Y-123967044D01*
X111311580Y-123967050D01*
X109308806Y-125969824D01*
X109247483Y-126003309D01*
X109201726Y-126004616D01*
X109106291Y-125989500D01*
X109106287Y-125989500D01*
X108893713Y-125989500D01*
X108845042Y-125997208D01*
X108683760Y-126022753D01*
X108481585Y-126088444D01*
X108292179Y-126184951D01*
X108120213Y-126309890D01*
X107969890Y-126460213D01*
X107844951Y-126632179D01*
X107748444Y-126821585D01*
X107682753Y-127023760D01*
X107649500Y-127233713D01*
X100500500Y-127233713D01*
X100500500Y-117900013D01*
X104200000Y-117900013D01*
X104200000Y-118250000D01*
X105184314Y-118250000D01*
X105179920Y-118254394D01*
X105127259Y-118345606D01*
X105100000Y-118447339D01*
X105100000Y-118552661D01*
X105127259Y-118654394D01*
X105179920Y-118745606D01*
X105184314Y-118750000D01*
X104200001Y-118750000D01*
X104200001Y-119099986D01*
X104210494Y-119202697D01*
X104265641Y-119369119D01*
X104265643Y-119369124D01*
X104357684Y-119518345D01*
X104481654Y-119642315D01*
X104630875Y-119734356D01*
X104630880Y-119734358D01*
X104797302Y-119789505D01*
X104797309Y-119789506D01*
X104900019Y-119799999D01*
X105249999Y-119799999D01*
X105250000Y-119799998D01*
X105250000Y-118815686D01*
X105254394Y-118820080D01*
X105345606Y-118872741D01*
X105447339Y-118900000D01*
X105552661Y-118900000D01*
X105654394Y-118872741D01*
X105745606Y-118820080D01*
X105750000Y-118815686D01*
X105750000Y-119799999D01*
X106099972Y-119799999D01*
X106099986Y-119799998D01*
X106202697Y-119789505D01*
X106369119Y-119734358D01*
X106369124Y-119734356D01*
X106518345Y-119642315D01*
X106642315Y-119518345D01*
X106734356Y-119369124D01*
X106734359Y-119369117D01*
X106749063Y-119324743D01*
X106788835Y-119267298D01*
X106853350Y-119240474D01*
X106922126Y-119252788D01*
X106967088Y-119290861D01*
X107008034Y-119347219D01*
X107152786Y-119491971D01*
X107259692Y-119569641D01*
X107318390Y-119612287D01*
X107434607Y-119671503D01*
X107500776Y-119705218D01*
X107500778Y-119705218D01*
X107500781Y-119705220D01*
X107590459Y-119734358D01*
X107695465Y-119768477D01*
X107796557Y-119784488D01*
X107897648Y-119800500D01*
X107897649Y-119800500D01*
X108102351Y-119800500D01*
X108102352Y-119800500D01*
X108304534Y-119768477D01*
X108499219Y-119705220D01*
X108681610Y-119612287D01*
X108774590Y-119544732D01*
X108847213Y-119491971D01*
X108847215Y-119491968D01*
X108847219Y-119491966D01*
X108991966Y-119347219D01*
X108991968Y-119347215D01*
X108991971Y-119347213D01*
X109044732Y-119274590D01*
X109112287Y-119181610D01*
X109205220Y-118999219D01*
X109268477Y-118804534D01*
X109300500Y-118602352D01*
X109300500Y-118397648D01*
X109279645Y-118265974D01*
X109268477Y-118195465D01*
X109237458Y-118100000D01*
X109205220Y-118000781D01*
X109205218Y-118000778D01*
X109205218Y-118000776D01*
X109157921Y-117907952D01*
X109112287Y-117818390D01*
X109104556Y-117807749D01*
X108991971Y-117652786D01*
X108847213Y-117508028D01*
X108681613Y-117387715D01*
X108681612Y-117387714D01*
X108681610Y-117387713D01*
X108622675Y-117357684D01*
X108499223Y-117294781D01*
X108304534Y-117231522D01*
X108129995Y-117203878D01*
X108102352Y-117199500D01*
X107897648Y-117199500D01*
X107873329Y-117203351D01*
X107695465Y-117231522D01*
X107500776Y-117294781D01*
X107318386Y-117387715D01*
X107152786Y-117508028D01*
X107008032Y-117652782D01*
X106967087Y-117709139D01*
X106911757Y-117751804D01*
X106842144Y-117757783D01*
X106780349Y-117725177D01*
X106749063Y-117675256D01*
X106734359Y-117630882D01*
X106734356Y-117630875D01*
X106642315Y-117481654D01*
X106518345Y-117357684D01*
X106369124Y-117265643D01*
X106369119Y-117265641D01*
X106202697Y-117210494D01*
X106202690Y-117210493D01*
X106099986Y-117200000D01*
X105750000Y-117200000D01*
X105750000Y-118184314D01*
X105745606Y-118179920D01*
X105654394Y-118127259D01*
X105552661Y-118100000D01*
X105447339Y-118100000D01*
X105345606Y-118127259D01*
X105254394Y-118179920D01*
X105250000Y-118184314D01*
X105250000Y-117200000D01*
X104900028Y-117200000D01*
X104900012Y-117200001D01*
X104797302Y-117210494D01*
X104630880Y-117265641D01*
X104630875Y-117265643D01*
X104481654Y-117357684D01*
X104357684Y-117481654D01*
X104265643Y-117630875D01*
X104265641Y-117630880D01*
X104210494Y-117797302D01*
X104210493Y-117797309D01*
X104200000Y-117900013D01*
X100500500Y-117900013D01*
X100500500Y-110188713D01*
X110899500Y-110188713D01*
X110899500Y-110701286D01*
X110927013Y-110875000D01*
X110932754Y-110911243D01*
X110978504Y-111052047D01*
X110998444Y-111113414D01*
X111094951Y-111302820D01*
X111219890Y-111474786D01*
X111370213Y-111625109D01*
X111542179Y-111750048D01*
X111542181Y-111750049D01*
X111542184Y-111750051D01*
X111731588Y-111846557D01*
X111933757Y-111912246D01*
X112143713Y-111945500D01*
X112143714Y-111945500D01*
X112356286Y-111945500D01*
X112356287Y-111945500D01*
X112566243Y-111912246D01*
X112768412Y-111846557D01*
X112957816Y-111750051D01*
X113129792Y-111625104D01*
X113268604Y-111486291D01*
X113329923Y-111452809D01*
X113399615Y-111457793D01*
X113455549Y-111499664D01*
X113461821Y-111508878D01*
X113465185Y-111514333D01*
X113465186Y-111514334D01*
X113557288Y-111663656D01*
X113681344Y-111787712D01*
X113830666Y-111879814D01*
X113997203Y-111934999D01*
X114099991Y-111945500D01*
X115400008Y-111945499D01*
X115502797Y-111934999D01*
X115669334Y-111879814D01*
X115818656Y-111787712D01*
X115942712Y-111663656D01*
X116034814Y-111514334D01*
X116089999Y-111347797D01*
X116100500Y-111245009D01*
X116100499Y-110188713D01*
X119899500Y-110188713D01*
X119899500Y-110701286D01*
X119927013Y-110875000D01*
X119932754Y-110911243D01*
X119978504Y-111052047D01*
X119998444Y-111113414D01*
X120094951Y-111302820D01*
X120219890Y-111474786D01*
X120370213Y-111625109D01*
X120542179Y-111750048D01*
X120542181Y-111750049D01*
X120542184Y-111750051D01*
X120731588Y-111846557D01*
X120933757Y-111912246D01*
X121143713Y-111945500D01*
X121143714Y-111945500D01*
X121356286Y-111945500D01*
X121356287Y-111945500D01*
X121566243Y-111912246D01*
X121768412Y-111846557D01*
X121957816Y-111750051D01*
X122129792Y-111625104D01*
X122268604Y-111486291D01*
X122329923Y-111452809D01*
X122399615Y-111457793D01*
X122455549Y-111499664D01*
X122461821Y-111508878D01*
X122465185Y-111514333D01*
X122465186Y-111514334D01*
X122557288Y-111663656D01*
X122681344Y-111787712D01*
X122830666Y-111879814D01*
X122997203Y-111934999D01*
X123099991Y-111945500D01*
X124400008Y-111945499D01*
X124502797Y-111934999D01*
X124669334Y-111879814D01*
X124818656Y-111787712D01*
X124942712Y-111663656D01*
X125034814Y-111514334D01*
X125089999Y-111347797D01*
X125100500Y-111245009D01*
X125100499Y-109644992D01*
X125089999Y-109542203D01*
X125034814Y-109375666D01*
X124942712Y-109226344D01*
X124818656Y-109102288D01*
X124669334Y-109010186D01*
X124502797Y-108955001D01*
X124502795Y-108955000D01*
X124400010Y-108944500D01*
X123099998Y-108944500D01*
X123099981Y-108944501D01*
X122997203Y-108955000D01*
X122997200Y-108955001D01*
X122830668Y-109010185D01*
X122830663Y-109010187D01*
X122681342Y-109102289D01*
X122557289Y-109226342D01*
X122461821Y-109381121D01*
X122409873Y-109427845D01*
X122340910Y-109439068D01*
X122276828Y-109411224D01*
X122268601Y-109403705D01*
X122129786Y-109264890D01*
X121957820Y-109139951D01*
X121768414Y-109043444D01*
X121768413Y-109043443D01*
X121768412Y-109043443D01*
X121566243Y-108977754D01*
X121566241Y-108977753D01*
X121566240Y-108977753D01*
X121404957Y-108952208D01*
X121356287Y-108944500D01*
X121143713Y-108944500D01*
X121095042Y-108952208D01*
X120933760Y-108977753D01*
X120731585Y-109043444D01*
X120542179Y-109139951D01*
X120370213Y-109264890D01*
X120219890Y-109415213D01*
X120094951Y-109587179D01*
X119998444Y-109776585D01*
X119932753Y-109978760D01*
X119899500Y-110188713D01*
X116100499Y-110188713D01*
X116100499Y-109644992D01*
X116098372Y-109624174D01*
X116089999Y-109542203D01*
X116089998Y-109542200D01*
X116076373Y-109501084D01*
X116034814Y-109375666D01*
X115942712Y-109226344D01*
X115818656Y-109102288D01*
X115669334Y-109010186D01*
X115502797Y-108955001D01*
X115502795Y-108955000D01*
X115400010Y-108944500D01*
X114099998Y-108944500D01*
X114099981Y-108944501D01*
X113997203Y-108955000D01*
X113997200Y-108955001D01*
X113830668Y-109010185D01*
X113830663Y-109010187D01*
X113681342Y-109102289D01*
X113557289Y-109226342D01*
X113461821Y-109381121D01*
X113409873Y-109427845D01*
X113340910Y-109439068D01*
X113276828Y-109411224D01*
X113268601Y-109403705D01*
X113129786Y-109264890D01*
X112957820Y-109139951D01*
X112768414Y-109043444D01*
X112768413Y-109043443D01*
X112768412Y-109043443D01*
X112566243Y-108977754D01*
X112566241Y-108977753D01*
X112566240Y-108977753D01*
X112404957Y-108952208D01*
X112356287Y-108944500D01*
X112143713Y-108944500D01*
X112095042Y-108952208D01*
X111933760Y-108977753D01*
X111731585Y-109043444D01*
X111542179Y-109139951D01*
X111370213Y-109264890D01*
X111219890Y-109415213D01*
X111094951Y-109587179D01*
X110998444Y-109776585D01*
X110932753Y-109978760D01*
X110899500Y-110188713D01*
X100500500Y-110188713D01*
X100500500Y-104602871D01*
X100500632Y-104597144D01*
X100506108Y-104478711D01*
X102749500Y-104478711D01*
X102749500Y-104721288D01*
X102781161Y-104961785D01*
X102843947Y-105196104D01*
X102936773Y-105420205D01*
X102936776Y-105420212D01*
X103058064Y-105630289D01*
X103058066Y-105630292D01*
X103058067Y-105630293D01*
X103205733Y-105822736D01*
X103205739Y-105822743D01*
X103377256Y-105994260D01*
X103377262Y-105994265D01*
X103569711Y-106141936D01*
X103779788Y-106263224D01*
X103975269Y-106344195D01*
X103993528Y-106351758D01*
X104003900Y-106356054D01*
X104238211Y-106418838D01*
X104418586Y-106442584D01*
X104478711Y-106450500D01*
X104478712Y-106450500D01*
X104721289Y-106450500D01*
X104769388Y-106444167D01*
X104961789Y-106418838D01*
X105196100Y-106356054D01*
X105420212Y-106263224D01*
X105630289Y-106141936D01*
X105822738Y-105994265D01*
X105994265Y-105822738D01*
X106141936Y-105630289D01*
X106263224Y-105420212D01*
X106356054Y-105196100D01*
X106418838Y-104961789D01*
X106450500Y-104721288D01*
X106450500Y-104478712D01*
X106418838Y-104238211D01*
X106356054Y-104003900D01*
X106263224Y-103779788D01*
X106141936Y-103569711D01*
X106044846Y-103443181D01*
X105994266Y-103377263D01*
X105994260Y-103377256D01*
X105822743Y-103205739D01*
X105822736Y-103205733D01*
X105630293Y-103058067D01*
X105630292Y-103058066D01*
X105630289Y-103058064D01*
X105420212Y-102936776D01*
X105420205Y-102936773D01*
X105196104Y-102843947D01*
X104961785Y-102781161D01*
X104721289Y-102749500D01*
X104721288Y-102749500D01*
X104478712Y-102749500D01*
X104478711Y-102749500D01*
X104238214Y-102781161D01*
X104003895Y-102843947D01*
X103779794Y-102936773D01*
X103779785Y-102936777D01*
X103569706Y-103058067D01*
X103377263Y-103205733D01*
X103377256Y-103205739D01*
X103205739Y-103377256D01*
X103205733Y-103377263D01*
X103058067Y-103569706D01*
X103058064Y-103569710D01*
X103058064Y-103569711D01*
X103050909Y-103582104D01*
X102936777Y-103779785D01*
X102936773Y-103779794D01*
X102843947Y-104003895D01*
X102781161Y-104238214D01*
X102749500Y-104478711D01*
X100506108Y-104478711D01*
X100506560Y-104468926D01*
X100512410Y-104342393D01*
X100517723Y-104227460D01*
X100518780Y-104216065D01*
X100522410Y-104190044D01*
X100551109Y-103984305D01*
X100579866Y-103920632D01*
X100586212Y-103913786D01*
X103913763Y-100586235D01*
X103933414Y-100575505D01*
X103950403Y-100560909D01*
X103971104Y-100554925D01*
X103975082Y-100552753D01*
X103984282Y-100551112D01*
X104216074Y-100518779D01*
X104227460Y-100517723D01*
X104597145Y-100500632D01*
X104602872Y-100500500D01*
X104665892Y-100500500D01*
X205334108Y-100500500D01*
X205397128Y-100500500D01*
X205402855Y-100500632D01*
G37*
%TD.AperFunction*%
%TD*%
%TA.AperFunction,Conductor*%
%TO.N,GND*%
G36*
X138500000Y-142000000D02*
G01*
X136500000Y-143000000D01*
X134000000Y-138000000D01*
X134390287Y-136438847D01*
X135048559Y-135780575D01*
X137000000Y-135000000D01*
X138500000Y-142000000D01*
G37*
%TD.AperFunction*%
%TD*%
M02*
