M48
; DRILL file KiCad 10.0.3 date 2026-07-15T10:17:12
; FORMAT={-:-/ absolute / metric / decimal}
; #@! TF.CreationDate,2026-07-15T10:17:12+09:00
; #@! TF.GenerationSoftware,Kicad,Pcbnew,10.0.3
; #@! TF.FileFunction,Plated,1,2,PTH
FMAT,2
METRIC
; #@! TA.AperFunction,Plated,PTH,ViaDrill
T1C0.300
; #@! TA.AperFunction,Plated,PTH,ComponentDrill
T2C0.700
; #@! TA.AperFunction,Plated,PTH,ComponentDrill
T3C0.750
; #@! TA.AperFunction,Plated,PTH,ComponentDrill
T4C0.800
; #@! TA.AperFunction,Plated,PTH,ComponentDrill
T5C1.000
; #@! TA.AperFunction,Plated,PTH,ComponentDrill
T6C1.100
; #@! TA.AperFunction,Plated,PTH,ComponentDrill
T7C1.300
%
G90
G05
T1
X102.0Y-110.5
X102.0Y-113.5
X102.0Y-115.0
X102.0Y-118.5
X102.0Y-122.5
X102.5Y-137.5
X103.5Y-127.5
X103.5Y-132.5
X104.0Y-111.5
X104.0Y-125.0
X104.5Y-113.0
X105.0Y-110.0
X105.0Y-127.5
X105.0Y-131.0
X105.0Y-136.0
X105.5Y-139.5
X108.5Y-102.5
X109.5Y-123.0
X110.0Y-145.0
X110.5Y-106.5
X111.0Y-104.0
X112.0Y-103.0
X112.0Y-118.5
X112.0Y-121.5
X112.0Y-137.0
X112.0Y-141.0
X112.0Y-146.0
X112.5Y-116.0
X113.5Y-103.5
X113.5Y-116.5
X114.0Y-119.5
X114.0Y-134.5
X114.5Y-101.5
X114.5Y-138.0
X115.5Y-135.0
X116.0Y-118.0
X116.0Y-142.5
X116.0Y-147.5
X116.5Y-106.0
X116.5Y-144.5
X117.5Y-107.5
X117.5Y-110.5
X117.5Y-120.5
X119.0Y-105.5
X120.0Y-106.5
X120.5Y-103.5
X120.5Y-117.5
X123.0Y-104.5
X123.0Y-115.5
X123.0Y-118.5
X123.0Y-121.5
X123.0Y-146.5
X124.0Y-131.0
X124.5Y-106.0
X124.5Y-127.0
X125.0Y-103.5
X125.0Y-128.5
X125.5Y-118.0
X125.5Y-144.0
X125.5Y-146.0
X126.5Y-127.0
X127.5Y-134.5
X128.0Y-142.0
X128.5Y-132.0
X132.5Y-107.5
X133.0Y-119.5
X133.5Y-113.0
X134.0Y-144.0
X134.5Y-116.5
X136.0Y-109.0
X136.0Y-146.5
X136.5Y-116.0
X136.5Y-124.5
X136.5Y-125.5
X136.5Y-138.0
X136.5Y-142.0
X137.0Y-121.5
X138.0Y-113.5
X138.0Y-118.5
X138.5Y-106.0
X140.0Y-120.0
X140.0Y-132.5
X140.0Y-134.0
X140.5Y-140.0
X141.0Y-109.0
X141.0Y-148.0
X141.5Y-117.5
X141.5Y-130.0
X141.5Y-130.5
X142.0Y-136.0
X142.0Y-142.5
X142.5Y-120.5
X143.0Y-105.5
X143.5Y-116.5
X168.5Y-139.0
X169.0Y-137.0
X169.0Y-147.0
X170.0Y-130.0
X170.0Y-144.0
X170.0Y-147.0
X170.5Y-126.0
X170.5Y-147.5
X171.0Y-119.0
X172.0Y-109.0
X172.0Y-114.0
X172.5Y-105.0
X172.5Y-111.5
X172.5Y-116.5
X173.0Y-146.0
X174.0Y-125.0
X174.0Y-130.5
X175.0Y-121.0
X175.0Y-127.0
X175.5Y-105.0
X175.5Y-113.5
X175.5Y-142.0
X176.0Y-124.5
X176.5Y-139.0
X176.5Y-146.5
X177.0Y-123.0
X177.5Y-108.5
X177.5Y-119.0
X178.0Y-105.5
X179.0Y-120.0
X180.0Y-116.5
X180.0Y-118.5
X180.0Y-133.5
X180.0Y-142.0
X181.0Y-114.5
X181.0Y-136.5
X181.0Y-144.5
X181.0Y-147.5
X181.5Y-138.5
X184.5Y-147.5
X185.0Y-140.5
X185.5Y-137.5
X185.5Y-145.5
X186.5Y-142.5
X187.0Y-137.5
X187.0Y-139.5
X188.0Y-148.0
X188.5Y-124.0
X189.0Y-121.5
X189.5Y-104.5
X190.0Y-144.5
X190.5Y-122.5
X190.5Y-124.5
X191.0Y-101.5
X191.0Y-147.5
X191.5Y-106.0
X191.5Y-136.5
X191.5Y-139.5
X191.5Y-143.0
X193.0Y-107.0
X193.5Y-138.5
X193.5Y-141.0
X194.0Y-109.0
X194.0Y-124.5
X194.5Y-147.0
X195.5Y-102.0
X195.5Y-108.5
X195.5Y-112.0
X196.5Y-104.5
X197.0Y-106.0
X197.0Y-127.5
X197.0Y-145.5
X197.5Y-112.0
X197.5Y-131.0
X198.0Y-139.5
X199.0Y-110.5
X199.0Y-143.0
X199.5Y-103.0
X199.5Y-105.0
X199.5Y-117.05
X199.5Y-131.0
X200.0Y-108.0
X200.5Y-102.0
X201.0Y-124.0
X201.0Y-130.5
X201.5Y-139.5
X202.0Y-115.55
X202.5Y-131.5
X202.5Y-134.0
X203.0Y-123.0
X203.5Y-113.0
X203.5Y-126.0
X204.0Y-142.0
X204.5Y-124.5
X205.0Y-118.5
X205.5Y-113.5
X205.5Y-123.5
X206.0Y-134.0
X206.0Y-135.5
X206.5Y-111.0
X206.5Y-123.5
X206.5Y-129.5
X206.5Y-130.5
X207.0Y-116.5
T2
X178.18Y-127.5
X180.72Y-127.5
X183.5Y-124.78
X183.5Y-127.32
X188.78Y-128.172
X191.05Y-130.952
X191.05Y-133.493
X191.32Y-128.172
T3
X190.0Y-110.5
X192.0Y-110.5
T4
X105.5Y-118.5
X108.0Y-118.5
X194.0Y-120.05
X194.0Y-122.05
X197.0Y-109.55
X202.0Y-109.55
T5
X109.0Y-127.34
X109.0Y-129.88
X109.0Y-132.42
X109.0Y-134.96
X109.0Y-137.5
X109.0Y-140.04
X112.25Y-110.445
X114.75Y-110.445
X119.0Y-125.8
X119.0Y-128.34
X119.0Y-130.88
X119.0Y-133.42
X119.0Y-135.96
X119.0Y-138.5
X119.0Y-141.04
X119.0Y-143.58
X119.0Y-146.12
X121.25Y-110.445
X123.75Y-110.445
X129.25Y-104.61
X129.25Y-107.15
X129.25Y-109.69
X129.25Y-112.23
X129.25Y-114.77
X129.25Y-117.31
X129.25Y-119.85
X129.25Y-122.39
X132.0Y-128.38
X132.0Y-130.92
X132.0Y-133.46
X132.0Y-136.0
X132.0Y-138.54
X132.0Y-141.08
X132.0Y-143.62
X132.0Y-146.16
X145.75Y-104.61
X145.75Y-107.15
X145.75Y-109.69
X145.75Y-112.23
X145.75Y-114.77
X145.75Y-117.31
X145.75Y-119.85
X145.75Y-122.39
X149.76Y-104.88
X149.76Y-107.42
X149.76Y-109.96
X149.76Y-112.5
X149.76Y-115.04
X149.76Y-117.58
X149.76Y-120.12
X165.0Y-104.88
X165.0Y-107.42
X165.0Y-109.96
X165.0Y-112.5
X165.0Y-115.04
X165.0Y-117.58
X165.0Y-120.12
X168.607Y-103.76
X168.607Y-106.3
X168.607Y-108.84
X168.607Y-111.38
X168.607Y-113.92
X168.607Y-116.46
X168.607Y-119.0
X172.5Y-133.69
X172.5Y-136.23
X172.5Y-138.77
X172.5Y-141.31
X183.847Y-103.76
X183.847Y-106.3
X183.847Y-108.84
X183.847Y-111.38
X183.847Y-113.92
X183.847Y-116.46
X183.847Y-119.0
T6
X178.42Y-130.5
X180.96Y-130.5
X183.5Y-130.5
X189.5Y-116.05
X192.04Y-116.05
X194.55Y-129.172
X194.55Y-131.713
X194.55Y-134.252
X194.58Y-116.05
T7
X183.46Y-137.87
X183.46Y-142.95
X201.42Y-126.5
X206.5Y-126.5
M30
